STARTFONT 2.3
FONT -FontForge-Rajdhani-Book-R-Normal--8-80-72-72-P-49-ISO10646-1
SIZE 8 72 72  4
FONTBOUNDINGBOX 21 10 -4 -3
COMMENT "Generated by fontforge, http://fontforge.sourceforge.net"
COMMENT "Copyright (c) 2014 Indian Type Foundry (info@indiantypefoundry.com)"
STARTPROPERTIES 41
FOUNDRY "FontForge"
FAMILY_NAME "Rajdhani"
WEIGHT_NAME "Book"
SLANT "R"
SETWIDTH_NAME "Normal"
ADD_STYLE_NAME ""
PIXEL_SIZE 8
POINT_SIZE 80
RESOLUTION_X 72
RESOLUTION_Y 72
SPACING "P"
AVERAGE_WIDTH 49
CHARSET_REGISTRY "ISO10646"
CHARSET_ENCODING "1"
FONTNAME_REGISTRY ""
CHARSET_COLLECTIONS "ISO8859-2 ISO8859-9 ISO8859-4 ISO10646-1"
BITS_PER_PIXEL 4
FONT_NAME "Rajdhani-Regular"
FACE_NAME "Rajdhani Regular"
COPYRIGHT "Copyright (c) 2014 Indian Type Foundry (info@indiantypefoundry.com)"
FONT_VERSION "1.201;PS 1.0;hotconv 1.0.78;makeotf.lib2.5.61930; ttfautohint (v1.1) -l 7 -r 28 -G 50 -x 13 -D latn -f deva -w G"
FONT_ASCENT 6
FONT_DESCENT 2
UNDERLINE_POSITION -1
UNDERLINE_THICKNESS 1
X_HEIGHT 3
CAP_HEIGHT 4
DEFAULT_CHAR 3
RAW_ASCENT 800
RAW_DESCENT 200
NORM_SPACE 2
RELATIVE_WEIGHT 40
RELATIVE_SETWIDTH 50
SUPERSCRIPT_X 0
SUPERSCRIPT_Y 2
SUPERSCRIPT_SIZE 4
SUBSCRIPT_X 0
SUBSCRIPT_Y 0
SUBSCRIPT_SIZE 4
AVG_LOWERCASE_WIDTH 35
AVG_UPPERCASE_WIDTH 40
ENDPROPERTIES
CHARS 1043
STARTCHAR NULL.dup1
ENCODING 0
SWIDTH 0 0
DWIDTH 0 0
BBX 1 1 0 0
BITMAP
00
ENDCHAR
STARTCHAR CR
ENCODING 13
SWIDTH 0 0
DWIDTH 0 0
BBX 1 1 0 0
BITMAP
00
ENDCHAR
STARTCHAR space
ENCODING 32
SWIDTH 267 0
DWIDTH 2 0
BBX 1 1 0 0
BITMAP
00
ENDCHAR
STARTCHAR exclam
ENCODING 33
SWIDTH 237 0
DWIDTH 2 0
BBX 2 5 0 0
BITMAP
43
42
42
21
42
ENDCHAR
STARTCHAR quotedbl
ENCODING 34
SWIDTH 330 0
DWIDTH 3 0
BBX 3 2 0 3
BITMAP
5420
2200
ENDCHAR
STARTCHAR numbersign
ENCODING 35
SWIDTH 677 0
DWIDTH 5 0
BBX 5 5 0 0
BITMAP
005050
068760
050500
395920
051400
ENDCHAR
STARTCHAR dollar
ENCODING 36
SWIDTH 504 0
DWIDTH 4 0
BBX 4 7 0 -1
BITMAP
0130
4664
6002
2552
3006
4664
0130
ENDCHAR
STARTCHAR percent
ENCODING 37
SWIDTH 717 0
DWIDTH 6 0
BBX 6 5 0 0
BITMAP
444500
405500
004551
005505
032553
ENDCHAR
STARTCHAR ampersand
ENCODING 38
SWIDTH 597 0
DWIDTH 5 0
BBX 5 5 0 0
BITMAP
076400
080300
269620
606300
476910
ENDCHAR
STARTCHAR quotesingle
ENCODING 39
SWIDTH 186 0
DWIDTH 1 0
BBX 1 2 0 3
BITMAP
50
20
ENDCHAR
STARTCHAR parenleft
ENCODING 40
SWIDTH 283 0
DWIDTH 2 0
BBX 2 6 0 -1
BITMAP
44
50
50
50
60
24
ENDCHAR
STARTCHAR parenright
ENCODING 41
SWIDTH 283 0
DWIDTH 2 0
BBX 2 6 0 -1
BITMAP
35
05
05
05
06
33
ENDCHAR
STARTCHAR asterisk
ENCODING 42
SWIDTH 406 0
DWIDTH 3 0
BBX 3 2 0 3
BITMAP
2530
0520
ENDCHAR
STARTCHAR plus
ENCODING 43
SWIDTH 523 0
DWIDTH 4 0
BBX 4 3 0 1
BITMAP
0140
2683
0140
ENDCHAR
STARTCHAR comma
ENCODING 44
SWIDTH 191 0
DWIDTH 2 0
BBX 1 2 0 -1
BITMAP
70
40
ENDCHAR
STARTCHAR hyphen
ENCODING 45
SWIDTH 312 0
DWIDTH 3 0
BBX 3 1 0 2
BITMAP
3510
ENDCHAR
STARTCHAR period
ENCODING 46
SWIDTH 191 0
DWIDTH 2 0
BBX 1 2 0 0
BITMAP
10
70
ENDCHAR
STARTCHAR slash
ENCODING 47
SWIDTH 396 0
DWIDTH 3 0
BBX 3 5 0 0
BITMAP
0060
0420
0600
1600
5100
ENDCHAR
STARTCHAR zero
ENCODING 48
SWIDTH 514 0
DWIDTH 4 0
BBX 4 5 0 0
BITMAP
4665
6006
6006
6006
4665
ENDCHAR
STARTCHAR one
ENCODING 49
SWIDTH 317 0
DWIDTH 3 0
BBX 2 5 0 0
BITMAP
49
06
06
06
06
ENDCHAR
STARTCHAR two
ENCODING 50
SWIDTH 478 0
DWIDTH 4 0
BBX 4 5 0 0
BITMAP
5572
3025
0260
3500
7662
ENDCHAR
STARTCHAR three
ENCODING 51
SWIDTH 496 0
DWIDTH 4 0
BBX 4 5 0 0
BITMAP
4663
3006
0172
3006
4663
ENDCHAR
STARTCHAR four
ENCODING 52
SWIDTH 520 0
DWIDTH 4 0
BBX 4 5 0 0
BITMAP
0093
0543
2433
5577
0033
ENDCHAR
STARTCHAR five
ENCODING 53
SWIDTH 482 0
DWIDTH 4 0
BBX 4 5 0 0
BITMAP
6552
6561
1016
4006
4673
ENDCHAR
STARTCHAR six
ENCODING 54
SWIDTH 497 0
DWIDTH 4 0
BBX 4 5 0 0
BITMAP
5651
6000
7562
6006
4664
ENDCHAR
STARTCHAR seven
ENCODING 55
SWIDTH 380 0
DWIDTH 3 0
BBX 3 5 0 0
BITMAP
4590
0160
0510
0700
2400
ENDCHAR
STARTCHAR eight
ENCODING 56
SWIDTH 519 0
DWIDTH 4 0
BBX 4 5 0 0
BITMAP
4665
6006
3865
6006
4665
ENDCHAR
STARTCHAR nine
ENCODING 57
SWIDTH 497 0
DWIDTH 4 0
BBX 4 5 0 0
BITMAP
5664
6006
3656
0006
1574
ENDCHAR
STARTCHAR colon
ENCODING 58
SWIDTH 191 0
DWIDTH 2 0
BBX 1 4 0 0
BITMAP
70
10
10
70
ENDCHAR
STARTCHAR semicolon
ENCODING 59
SWIDTH 191 0
DWIDTH 2 0
BBX 1 5 0 -1
BITMAP
70
10
00
60
40
ENDCHAR
STARTCHAR less
ENCODING 60
SWIDTH 513 0
DWIDTH 4 0
BBX 4 3 0 1
BITMAP
0263
4710
0153
ENDCHAR
STARTCHAR equal
ENCODING 61
SWIDTH 531 0
DWIDTH 4 0
BBX 4 2 0 1
BITMAP
2553
2553
ENDCHAR
STARTCHAR greater
ENCODING 62
SWIDTH 531 0
DWIDTH 4 0
BBX 4 3 0 1
BITMAP
2630
0066
2510
ENDCHAR
STARTCHAR question
ENCODING 63
SWIDTH 473 0
DWIDTH 4 0
BBX 4 5 0 0
BITMAP
4671
3042
0250
0210
0430
ENDCHAR
STARTCHAR at
ENCODING 64
SWIDTH 753 0
DWIDTH 6 0
BBX 6 6 0 -1
BITMAP
034451
236625
523325
523425
235561
034410
ENDCHAR
STARTCHAR A
ENCODING 65
SWIDTH 533 0
DWIDTH 4 0
BBX 4 5 0 0
BITMAP
0470
0660
0633
4657
6006
ENDCHAR
STARTCHAR B
ENCODING 66
SWIDTH 546 0
DWIDTH 4 0
BBX 4 5 0 0
BITMAP
5656
5106
5666
5106
5666
ENDCHAR
STARTCHAR C
ENCODING 67
SWIDTH 542 0
DWIDTH 4 0
BBX 4 5 0 0
BITMAP
3657
6003
6000
6003
3767
ENDCHAR
STARTCHAR D
ENCODING 68
SWIDTH 557 0
DWIDTH 4 0
BBX 4 5 0 0
BITMAP
5657
5106
5106
5106
5667
ENDCHAR
STARTCHAR E
ENCODING 69
SWIDTH 481 0
DWIDTH 4 0
BBX 4 5 0 0
BITMAP
5652
5100
5650
5100
5652
ENDCHAR
STARTCHAR F
ENCODING 70
SWIDTH 459 0
DWIDTH 4 0
BBX 4 5 0 0
BITMAP
5651
5100
5650
5100
5100
ENDCHAR
STARTCHAR G
ENCODING 71
SWIDTH 539 0
DWIDTH 4 0
BBX 4 5 0 0
BITMAP
3656
6003
6046
6006
3766
ENDCHAR
STARTCHAR H
ENCODING 72
SWIDTH 570 0
DWIDTH 5 0
BBX 4 5 0 0
BITMAP
5106
5106
5658
5106
5106
ENDCHAR
STARTCHAR I
ENCODING 73
SWIDTH 230 0
DWIDTH 2 0
BBX 2 5 0 0
BITMAP
42
42
42
42
42
ENDCHAR
STARTCHAR J
ENCODING 74
SWIDTH 499 0
DWIDTH 4 0
BBX 4 5 0 0
BITMAP
0015
0015
0015
5015
6672
ENDCHAR
STARTCHAR K
ENCODING 75
SWIDTH 530 0
DWIDTH 4 0
BBX 4 5 0 0
BITMAP
5125
5270
5850
5252
5107
ENDCHAR
STARTCHAR L
ENCODING 76
SWIDTH 451 0
DWIDTH 4 0
BBX 4 5 0 0
BITMAP
5100
5100
5100
5100
5662
ENDCHAR
STARTCHAR M
ENCODING 77
SWIDTH 696 0
DWIDTH 6 0
BBX 5 5 0 0
BITMAP
5600B0
570570
525660
517360
510060
ENDCHAR
STARTCHAR N
ENCODING 78
SWIDTH 579 0
DWIDTH 5 0
BBX 4 5 0 0
BITMAP
5506
5716
5266
5148
5109
ENDCHAR
STARTCHAR O
ENCODING 79
SWIDTH 553 0
DWIDTH 4 0
BBX 4 5 0 0
BITMAP
3656
6006
6006
6006
3766
ENDCHAR
STARTCHAR P
ENCODING 80
SWIDTH 524 0
DWIDTH 4 0
BBX 4 5 0 0
BITMAP
5656
5107
5654
5100
5100
ENDCHAR
STARTCHAR Q
ENCODING 81
SWIDTH 556 0
DWIDTH 4 0
BBX 4 6 0 -1
BITMAP
3757
6006
6006
6006
3767
0042
ENDCHAR
STARTCHAR R
ENCODING 82
SWIDTH 534 0
DWIDTH 4 0
BBX 4 5 0 0
BITMAP
5656
5106
5683
5133
5106
ENDCHAR
STARTCHAR S
ENCODING 83
SWIDTH 562 0
DWIDTH 5 0
BBX 4 5 0 0
BITMAP
3756
5202
0663
3007
3767
ENDCHAR
STARTCHAR T
ENCODING 84
SWIDTH 420 0
DWIDTH 3 0
BBX 4 5 0 0
BITMAP
4951
0600
0600
0600
0600
ENDCHAR
STARTCHAR U
ENCODING 85
SWIDTH 552 0
DWIDTH 4 0
BBX 4 5 0 0
BITMAP
5106
5106
5106
5106
3766
ENDCHAR
STARTCHAR V
ENCODING 86
SWIDTH 500 0
DWIDTH 4 0
BBX 4 5 0 0
BITMAP
6006
5115
1551
0660
0550
ENDCHAR
STARTCHAR W
ENCODING 87
SWIDTH 794 0
DWIDTH 6 0
BBX 6 5 0 0
BITMAP
703706
606606
336416
065165
091091
ENDCHAR
STARTCHAR X
ENCODING 88
SWIDTH 504 0
DWIDTH 4 0
BBX 4 5 0 0
BITMAP
5215
0660
0660
0661
6116
ENDCHAR
STARTCHAR Y
ENCODING 89
SWIDTH 493 0
DWIDTH 4 0
BBX 4 5 0 0
BITMAP
6016
1561
0660
0430
0330
ENDCHAR
STARTCHAR Z
ENCODING 90
SWIDTH 482 0
DWIDTH 4 0
BBX 4 5 0 0
BITMAP
3685
0070
0520
1600
8663
ENDCHAR
STARTCHAR bracketleft
ENCODING 91
SWIDTH 287 0
DWIDTH 2 0
BBX 2 6 0 -1
BITMAP
63
50
50
50
50
44
ENDCHAR
STARTCHAR backslash
ENCODING 92
SWIDTH 396 0
DWIDTH 3 0
BBX 3 5 0 0
BITMAP
5100
1600
0600
0420
0060
ENDCHAR
STARTCHAR bracketright
ENCODING 93
SWIDTH 287 0
DWIDTH 2 0
BBX 2 6 0 -1
BITMAP
27
05
05
05
05
25
ENDCHAR
STARTCHAR asciicircum
ENCODING 94
SWIDTH 465 0
DWIDTH 4 0
BBX 4 2 0 3
BITMAP
0650
4251
ENDCHAR
STARTCHAR underscore
ENCODING 95
SWIDTH 372 0
DWIDTH 3 0
BBX 3 1 0 -1
BITMAP
4440
ENDCHAR
STARTCHAR grave
ENCODING 96
SWIDTH 269 0
DWIDTH 2 0
BBX 2 1 0 5
BITMAP
24
ENDCHAR
STARTCHAR a
ENCODING 97
SWIDTH 502 0
DWIDTH 4 0
BBX 4 4 0 0
BITMAP
4656
6006
6006
4666
ENDCHAR
STARTCHAR b
ENCODING 98
SWIDTH 504 0
DWIDTH 4 0
BBX 4 6 0 0
BITMAP
6000
6000
6664
6006
6006
6564
ENDCHAR
STARTCHAR c
ENCODING 99
SWIDTH 394 0
DWIDTH 3 0
BBX 3 4 0 0
BITMAP
4650
6000
6000
4650
ENDCHAR
STARTCHAR d
ENCODING 100
SWIDTH 504 0
DWIDTH 4 0
BBX 4 6 0 0
BITMAP
0006
0006
4666
6006
6006
4666
ENDCHAR
STARTCHAR e
ENCODING 101
SWIDTH 492 0
DWIDTH 4 0
BBX 4 4 0 0
BITMAP
4663
6006
7554
4652
ENDCHAR
STARTCHAR f
ENCODING 102
SWIDTH 303 0
DWIDTH 2 0
BBX 3 6 0 0
BITMAP
0710
1600
4910
1600
1600
1600
ENDCHAR
STARTCHAR g
ENCODING 103
SWIDTH 506 0
DWIDTH 4 0
BBX 4 5 0 -1
BITMAP
4656
6006
6006
2666
1564
ENDCHAR
STARTCHAR h
ENCODING 104
SWIDTH 507 0
DWIDTH 4 0
BBX 4 6 0 0
BITMAP
6000
6000
6664
6006
6006
6006
ENDCHAR
STARTCHAR i
ENCODING 105
SWIDTH 210 0
DWIDTH 2 0
BBX 2 6 0 0
BITMAP
51
00
51
51
51
51
ENDCHAR
STARTCHAR j
ENCODING 106
SWIDTH 210 0
DWIDTH 2 0
BBX 3 7 -1 -1
BITMAP
0510
0000
0510
0510
0510
0510
2800
ENDCHAR
STARTCHAR k
ENCODING 107
SWIDTH 431 0
DWIDTH 3 0
BBX 4 6 0 0
BITMAP
6000
6000
6061
6340
6250
6052
ENDCHAR
STARTCHAR l
ENCODING 108
SWIDTH 210 0
DWIDTH 2 0
BBX 2 6 0 0
BITMAP
51
51
51
51
51
51
ENDCHAR
STARTCHAR m
ENCODING 109
SWIDTH 769 0
DWIDTH 6 0
BBX 6 4 0 0
BITMAP
667765
602506
602406
602406
ENDCHAR
STARTCHAR n
ENCODING 110
SWIDTH 507 0
DWIDTH 4 0
BBX 4 4 0 0
BITMAP
6664
6006
6006
6006
ENDCHAR
STARTCHAR o
ENCODING 111
SWIDTH 496 0
DWIDTH 4 0
BBX 4 4 0 0
BITMAP
4664
6006
6006
4664
ENDCHAR
STARTCHAR p
ENCODING 112
SWIDTH 504 0
DWIDTH 4 0
BBX 4 5 0 -1
BITMAP
6664
6006
6006
6664
6000
ENDCHAR
STARTCHAR q
ENCODING 113
SWIDTH 502 0
DWIDTH 4 0
BBX 4 5 0 -1
BITMAP
4656
6006
6006
4666
0006
ENDCHAR
STARTCHAR r
ENCODING 114
SWIDTH 313 0
DWIDTH 3 0
BBX 3 4 0 0
BITMAP
6610
6000
6000
6000
ENDCHAR
STARTCHAR s
ENCODING 115
SWIDTH 431 0
DWIDTH 3 0
BBX 3 4 0 0
BITMAP
5540
4510
0170
3580
ENDCHAR
STARTCHAR t
ENCODING 116
SWIDTH 347 0
DWIDTH 3 0
BBX 3 5 0 0
BITMAP
2400
6820
2400
2400
1820
ENDCHAR
STARTCHAR u
ENCODING 117
SWIDTH 507 0
DWIDTH 4 0
BBX 4 4 0 0
BITMAP
6006
6006
6006
3666
ENDCHAR
STARTCHAR v
ENCODING 118
SWIDTH 416 0
DWIDTH 3 0
BBX 4 4 0 0
BITMAP
6051
5160
1550
0910
ENDCHAR
STARTCHAR w
ENCODING 119
SWIDTH 683 0
DWIDTH 5 0
BBX 6 4 0 0
BITMAP
608142
606560
263560
0A0640
ENDCHAR
STARTCHAR x
ENCODING 120
SWIDTH 413 0
DWIDTH 3 0
BBX 3 4 0 0
BITMAP
6170
1930
1830
6170
ENDCHAR
STARTCHAR y
ENCODING 121
SWIDTH 459 0
DWIDTH 4 0
BBX 4 5 0 -1
BITMAP
6024
4260
0660
0730
3700
ENDCHAR
STARTCHAR z
ENCODING 122
SWIDTH 405 0
DWIDTH 3 0
BBX 3 4 0 0
BITMAP
4690
0430
1600
8650
ENDCHAR
STARTCHAR braceleft
ENCODING 123
SWIDTH 298 0
DWIDTH 2 0
BBX 2 6 0 -1
BITMAP
06
23
61
23
24
05
ENDCHAR
STARTCHAR bar
ENCODING 124
SWIDTH 207 0
DWIDTH 2 0
BBX 1 5 0 0
BITMAP
50
50
50
50
50
ENDCHAR
STARTCHAR braceright
ENCODING 125
SWIDTH 298 0
DWIDTH 2 0
BBX 2 6 0 -1
BITMAP
42
05
08
05
15
41
ENDCHAR
STARTCHAR asciitilde
ENCODING 126
SWIDTH 523 0
DWIDTH 4 0
BBX 4 1 0 2
BITMAP
1442
ENDCHAR
STARTCHAR uni00A0
ENCODING 160
SWIDTH 267 0
DWIDTH 2 0
BBX 1 1 0 0
BITMAP
00
ENDCHAR
STARTCHAR exclamdown
ENCODING 161
SWIDTH 237 0
DWIDTH 2 0
BBX 2 5 0 0
BITMAP
42
21
42
42
43
ENDCHAR
STARTCHAR cent
ENCODING 162
SWIDTH 414 0
DWIDTH 3 0
BBX 3 6 0 -1
BITMAP
0130
4650
6000
6000
4650
0130
ENDCHAR
STARTCHAR sterling
ENCODING 163
SWIDTH 528 0
DWIDTH 4 0
BBX 4 5 0 0
BITMAP
1755
2401
5830
2400
6753
ENDCHAR
STARTCHAR yen
ENCODING 165
SWIDTH 499 0
DWIDTH 4 0
BBX 4 5 0 0
BITMAP
6006
1551
3883
3773
0330
ENDCHAR
STARTCHAR brokenbar
ENCODING 166
SWIDTH 201 0
DWIDTH 2 0
BBX 1 5 0 0
BITMAP
50
50
10
50
50
ENDCHAR
STARTCHAR section
ENCODING 167
SWIDTH 454 0
DWIDTH 4 0
BBX 4 5 0 0
BITMAP
5650
7520
5161
0482
2581
ENDCHAR
STARTCHAR dieresis
ENCODING 168
SWIDTH 345 0
DWIDTH 3 0
BBX 3 1 0 5
BITMAP
6230
ENDCHAR
STARTCHAR copyright
ENCODING 169
SWIDTH 723 0
DWIDTH 6 0
BBX 6 5 0 0
BITMAP
354461
515623
532323
505423
354471
ENDCHAR
STARTCHAR guillemotleft
ENCODING 171
SWIDTH 431 0
DWIDTH 3 0
BBX 3 4 0 0
BITMAP
0220
3540
2550
0110
ENDCHAR
STARTCHAR registered
ENCODING 174
SWIDTH 439 0
DWIDTH 4 0
BBX 3 3 0 3
BITMAP
3340
3760
1440
ENDCHAR
STARTCHAR macron
ENCODING 175
SWIDTH 358 0
DWIDTH 3 0
BBX 3 1 0 4
BITMAP
2510
ENDCHAR
STARTCHAR degree
ENCODING 176
SWIDTH 298 0
DWIDTH 2 0
BBX 2 2 0 4
BITMAP
45
24
ENDCHAR
STARTCHAR plusminus
ENCODING 177
SWIDTH 523 0
DWIDTH 4 0
BBX 4 3 0 1
BITMAP
0140
2683
2663
ENDCHAR
STARTCHAR acute
ENCODING 180
SWIDTH 269 0
DWIDTH 2 0
BBX 2 1 0 5
BITMAP
34
ENDCHAR
STARTCHAR paragraph
ENCODING 182
SWIDTH 513 0
DWIDTH 4 0
BBX 4 5 0 0
BITMAP
6C56
8B05
2805
0505
0505
ENDCHAR
STARTCHAR periodcentered
ENCODING 183
SWIDTH 207 0
DWIDTH 2 0
BBX 2 2 0 1
BITMAP
61
10
ENDCHAR
STARTCHAR cedilla
ENCODING 184
SWIDTH 257 0
DWIDTH 2 0
BBX 2 3 0 -2
BITMAP
01
33
23
ENDCHAR
STARTCHAR guillemotright
ENCODING 187
SWIDTH 431 0
DWIDTH 3 0
BBX 3 4 0 0
BITMAP
2100
1550
2550
1100
ENDCHAR
STARTCHAR questiondown
ENCODING 191
SWIDTH 473 0
DWIDTH 4 0
BBX 4 5 0 0
BITMAP
0610
0200
0600
5112
4681
ENDCHAR
STARTCHAR Agrave
ENCODING 192
SWIDTH 532 0
DWIDTH 4 0
BBX 4 7 0 0
BITMAP
0400
0210
0470
0660
0633
4657
6006
ENDCHAR
STARTCHAR Aacute
ENCODING 193
SWIDTH 532 0
DWIDTH 4 0
BBX 4 7 0 0
BITMAP
0040
0030
0470
0660
0633
4657
6006
ENDCHAR
STARTCHAR Acircumflex
ENCODING 194
SWIDTH 532 0
DWIDTH 4 0
BBX 4 7 0 0
BITMAP
0230
0220
0470
0660
0633
4657
6006
ENDCHAR
STARTCHAR Atilde
ENCODING 195
SWIDTH 532 0
DWIDTH 4 0
BBX 4 7 0 0
BITMAP
0240
0330
0470
0660
0633
4657
6006
ENDCHAR
STARTCHAR Adieresis
ENCODING 196
SWIDTH 532 0
DWIDTH 4 0
BBX 4 7 0 0
BITMAP
0660
0000
0470
0660
0633
4657
6006
ENDCHAR
STARTCHAR Aring
ENCODING 197
SWIDTH 532 0
DWIDTH 4 0
BBX 4 7 0 0
BITMAP
0340
0120
0470
0660
0633
4657
6006
ENDCHAR
STARTCHAR AE
ENCODING 198
SWIDTH 773 0
DWIDTH 6 0
BBX 6 5 0 0
BITMAP
006953
025600
060952
385600
700953
ENDCHAR
STARTCHAR Ccedilla
ENCODING 199
SWIDTH 542 0
DWIDTH 4 0
BBX 4 7 0 -2
BITMAP
3657
6003
6000
6003
3767
0160
0040
ENDCHAR
STARTCHAR Egrave
ENCODING 200
SWIDTH 481 0
DWIDTH 4 0
BBX 4 7 0 0
BITMAP
0400
0210
5652
5100
5650
5100
5652
ENDCHAR
STARTCHAR Eacute
ENCODING 201
SWIDTH 481 0
DWIDTH 4 0
BBX 4 7 0 0
BITMAP
0040
0120
5652
5100
5650
5100
5652
ENDCHAR
STARTCHAR Ecircumflex
ENCODING 202
SWIDTH 481 0
DWIDTH 4 0
BBX 4 7 0 0
BITMAP
0220
0220
5652
5100
5650
5100
5652
ENDCHAR
STARTCHAR Edieresis
ENCODING 203
SWIDTH 481 0
DWIDTH 4 0
BBX 4 7 0 0
BITMAP
0660
0000
5652
5100
5650
5100
5652
ENDCHAR
STARTCHAR Igrave
ENCODING 204
SWIDTH 230 0
DWIDTH 2 0
BBX 2 7 0 0
BITMAP
40
30
42
42
42
42
42
ENDCHAR
STARTCHAR Iacute
ENCODING 205
SWIDTH 231 0
DWIDTH 2 0
BBX 2 7 0 0
BITMAP
04
12
42
42
42
42
42
ENDCHAR
STARTCHAR Icircumflex
ENCODING 206
SWIDTH 229 0
DWIDTH 2 0
BBX 2 7 0 0
BITMAP
32
22
42
42
42
42
42
ENDCHAR
STARTCHAR Idieresis
ENCODING 207
SWIDTH 230 0
DWIDTH 2 0
BBX 2 7 0 0
BITMAP
66
00
42
42
42
42
42
ENDCHAR
STARTCHAR Eth
ENCODING 208
SWIDTH 514 0
DWIDTH 4 0
BBX 4 5 0 0
BITMAP
4657
4206
7626
4206
4667
ENDCHAR
STARTCHAR Ntilde
ENCODING 209
SWIDTH 579 0
DWIDTH 5 0
BBX 4 7 0 0
BITMAP
0231
0331
5506
5716
5266
5148
5109
ENDCHAR
STARTCHAR Ograve
ENCODING 210
SWIDTH 553 0
DWIDTH 4 0
BBX 4 7 0 0
BITMAP
0400
0120
3656
6006
6006
6006
3766
ENDCHAR
STARTCHAR Oacute
ENCODING 211
SWIDTH 553 0
DWIDTH 4 0
BBX 4 7 0 0
BITMAP
0040
0030
3656
6006
6006
6006
3766
ENDCHAR
STARTCHAR Ocircumflex
ENCODING 212
SWIDTH 553 0
DWIDTH 4 0
BBX 4 7 0 0
BITMAP
0130
0220
3656
6006
6006
6006
3766
ENDCHAR
STARTCHAR Otilde
ENCODING 213
SWIDTH 553 0
DWIDTH 4 0
BBX 4 7 0 0
BITMAP
0240
0330
3656
6006
6006
6006
3766
ENDCHAR
STARTCHAR Odieresis
ENCODING 214
SWIDTH 553 0
DWIDTH 4 0
BBX 4 7 0 0
BITMAP
0651
0000
3656
6006
6006
6006
3766
ENDCHAR
STARTCHAR multiply
ENCODING 215
SWIDTH 493 0
DWIDTH 4 0
BBX 4 3 0 1
BITMAP
1451
0770
1341
ENDCHAR
STARTCHAR Oslash
ENCODING 216
SWIDTH 559 0
DWIDTH 4 0
BBX 4 5 0 0
BITMAP
3759
6039
6146
6606
5767
ENDCHAR
STARTCHAR Ugrave
ENCODING 217
SWIDTH 552 0
DWIDTH 4 0
BBX 4 7 0 0
BITMAP
0300
0120
5106
5106
5106
5106
3766
ENDCHAR
STARTCHAR Uacute
ENCODING 218
SWIDTH 552 0
DWIDTH 4 0
BBX 4 7 0 0
BITMAP
0040
0030
5106
5106
5106
5106
3766
ENDCHAR
STARTCHAR Ucircumflex
ENCODING 219
SWIDTH 552 0
DWIDTH 4 0
BBX 4 7 0 0
BITMAP
0130
0220
5106
5106
5106
5106
3766
ENDCHAR
STARTCHAR Udieresis
ENCODING 220
SWIDTH 552 0
DWIDTH 4 0
BBX 4 7 0 0
BITMAP
0651
0000
5106
5106
5106
5106
3766
ENDCHAR
STARTCHAR Yacute
ENCODING 221
SWIDTH 493 0
DWIDTH 4 0
BBX 4 7 0 0
BITMAP
0040
0120
6016
1561
0660
0430
0330
ENDCHAR
STARTCHAR Thorn
ENCODING 222
SWIDTH 501 0
DWIDTH 4 0
BBX 4 5 0 0
BITMAP
1500
1964
1506
1962
1500
ENDCHAR
STARTCHAR germandbls
ENCODING 223
SWIDTH 540 0
DWIDTH 4 0
BBX 4 5 0 0
BITMAP
3766
6006
6165
6006
6166
ENDCHAR
STARTCHAR agrave
ENCODING 224
SWIDTH 502 0
DWIDTH 4 0
BBX 4 6 0 0
BITMAP
0610
0020
4656
6006
6006
4666
ENDCHAR
STARTCHAR aacute
ENCODING 225
SWIDTH 502 0
DWIDTH 4 0
BBX 4 6 0 0
BITMAP
0070
0010
4656
6006
6006
4666
ENDCHAR
STARTCHAR acircumflex
ENCODING 226
SWIDTH 502 0
DWIDTH 4 0
BBX 4 6 0 0
BITMAP
0450
0220
4656
6006
6006
4666
ENDCHAR
STARTCHAR atilde
ENCODING 227
SWIDTH 504 0
DWIDTH 4 0
BBX 4 6 0 0
BITMAP
0460
0330
4656
6006
6006
4666
ENDCHAR
STARTCHAR adieresis
ENCODING 228
SWIDTH 502 0
DWIDTH 4 0
BBX 4 6 0 0
BITMAP
0660
0000
4656
6006
6006
4666
ENDCHAR
STARTCHAR aring
ENCODING 229
SWIDTH 502 0
DWIDTH 4 0
BBX 4 6 0 0
BITMAP
0330
0330
4656
6006
6006
4666
ENDCHAR
STARTCHAR ae
ENCODING 230
SWIDTH 795 0
DWIDTH 6 0
BBX 6 4 0 0
BITMAP
056866
265605
600956
467854
ENDCHAR
STARTCHAR ccedilla
ENCODING 231
SWIDTH 394 0
DWIDTH 3 0
BBX 3 6 0 -2
BITMAP
4650
6000
6000
4650
0330
0230
ENDCHAR
STARTCHAR egrave
ENCODING 232
SWIDTH 492 0
DWIDTH 4 0
BBX 4 6 0 0
BITMAP
0700
0110
4663
6006
7554
4652
ENDCHAR
STARTCHAR eacute
ENCODING 233
SWIDTH 492 0
DWIDTH 4 0
BBX 4 6 0 0
BITMAP
0070
0110
4663
6006
7554
4652
ENDCHAR
STARTCHAR ecircumflex
ENCODING 234
SWIDTH 492 0
DWIDTH 4 0
BBX 4 6 0 0
BITMAP
0550
0220
4663
6006
7554
4652
ENDCHAR
STARTCHAR edieresis
ENCODING 235
SWIDTH 492 0
DWIDTH 4 0
BBX 4 6 0 0
BITMAP
0660
0000
4663
6006
7554
4652
ENDCHAR
STARTCHAR igrave
ENCODING 236
SWIDTH 210 0
DWIDTH 2 0
BBX 2 6 0 0
BITMAP
70
20
51
51
51
51
ENDCHAR
STARTCHAR iacute
ENCODING 237
SWIDTH 208 0
DWIDTH 2 0
BBX 2 6 0 0
BITMAP
16
10
51
51
51
51
ENDCHAR
STARTCHAR icircumflex
ENCODING 238
SWIDTH 210 0
DWIDTH 2 0
BBX 2 6 0 0
BITMAP
63
22
51
51
51
51
ENDCHAR
STARTCHAR idieresis
ENCODING 239
SWIDTH 210 0
DWIDTH 2 0
BBX 2 6 0 0
BITMAP
66
00
51
51
51
51
ENDCHAR
STARTCHAR eth
ENCODING 240
SWIDTH 488 0
DWIDTH 4 0
BBX 4 6 0 0
BITMAP
0660
0560
2674
6016
6006
4673
ENDCHAR
STARTCHAR ntilde
ENCODING 241
SWIDTH 507 0
DWIDTH 4 0
BBX 4 6 0 0
BITMAP
0460
0420
6664
6006
6006
6006
ENDCHAR
STARTCHAR ograve
ENCODING 242
SWIDTH 496 0
DWIDTH 4 0
BBX 4 6 0 0
BITMAP
0700
0100
4664
6006
6006
4664
ENDCHAR
STARTCHAR oacute
ENCODING 243
SWIDTH 496 0
DWIDTH 4 0
BBX 4 6 0 0
BITMAP
0070
0110
4664
6006
6006
4664
ENDCHAR
STARTCHAR ocircumflex
ENCODING 244
SWIDTH 496 0
DWIDTH 4 0
BBX 4 6 0 0
BITMAP
0540
0220
4664
6006
6006
4664
ENDCHAR
STARTCHAR otilde
ENCODING 245
SWIDTH 496 0
DWIDTH 4 0
BBX 4 6 0 0
BITMAP
0560
0420
4664
6006
6006
4664
ENDCHAR
STARTCHAR odieresis
ENCODING 246
SWIDTH 496 0
DWIDTH 4 0
BBX 4 6 0 0
BITMAP
0660
0000
4664
6006
6006
4664
ENDCHAR
STARTCHAR divide
ENCODING 247
SWIDTH 510 0
DWIDTH 4 0
BBX 4 3 0 1
BITMAP
0120
2552
0120
ENDCHAR
STARTCHAR oslash
ENCODING 248
SWIDTH 521 0
DWIDTH 4 0
BBX 4 4 0 0
BITMAP
3767
6057
6616
5765
ENDCHAR
STARTCHAR ugrave
ENCODING 249
SWIDTH 507 0
DWIDTH 4 0
BBX 4 6 0 0
BITMAP
0700
0110
6006
6006
6006
3666
ENDCHAR
STARTCHAR uacute
ENCODING 250
SWIDTH 507 0
DWIDTH 4 0
BBX 4 6 0 0
BITMAP
0070
0010
6006
6006
6006
3666
ENDCHAR
STARTCHAR ucircumflex
ENCODING 251
SWIDTH 507 0
DWIDTH 4 0
BBX 4 6 0 0
BITMAP
0550
0220
6006
6006
6006
3666
ENDCHAR
STARTCHAR udieresis
ENCODING 252
SWIDTH 507 0
DWIDTH 4 0
BBX 4 6 0 0
BITMAP
0660
0000
6006
6006
6006
3666
ENDCHAR
STARTCHAR yacute
ENCODING 253
SWIDTH 459 0
DWIDTH 4 0
BBX 4 7 0 -1
BITMAP
0160
0100
6024
4260
0660
0730
3700
ENDCHAR
STARTCHAR thorn
ENCODING 254
SWIDTH 508 0
DWIDTH 4 0
BBX 4 7 0 -1
BITMAP
6000
6000
6665
6006
6006
6665
6000
ENDCHAR
STARTCHAR ydieresis
ENCODING 255
SWIDTH 459 0
DWIDTH 4 0
BBX 4 7 0 -1
BITMAP
0660
0000
6024
4260
0660
0730
3700
ENDCHAR
STARTCHAR Amacron
ENCODING 256
SWIDTH 532 0
DWIDTH 4 0
BBX 4 7 0 0
BITMAP
0450
0000
0470
0660
0633
4657
6006
ENDCHAR
STARTCHAR amacron
ENCODING 257
SWIDTH 502 0
DWIDTH 4 0
BBX 4 5 0 0
BITMAP
0350
4656
6006
6006
4666
ENDCHAR
STARTCHAR Abreve
ENCODING 258
SWIDTH 532 0
DWIDTH 4 0
BBX 4 7 0 0
BITMAP
0220
0330
0470
0660
0633
4657
6006
ENDCHAR
STARTCHAR abreve
ENCODING 259
SWIDTH 502 0
DWIDTH 4 0
BBX 4 6 0 0
BITMAP
0440
0340
4656
6006
6006
4666
ENDCHAR
STARTCHAR Aogonek
ENCODING 260
SWIDTH 532 0
DWIDTH 4 0
BBX 4 6 0 -1
BITMAP
0470
0660
0633
4657
6007
0004
ENDCHAR
STARTCHAR aogonek
ENCODING 261
SWIDTH 502 0
DWIDTH 4 0
BBX 4 5 0 -1
BITMAP
4656
6006
6006
4666
0031
ENDCHAR
STARTCHAR Cacute
ENCODING 262
SWIDTH 542 0
DWIDTH 4 0
BBX 4 7 0 0
BITMAP
0040
0030
3657
6003
6000
6003
3767
ENDCHAR
STARTCHAR cacute
ENCODING 263
SWIDTH 394 0
DWIDTH 3 0
BBX 3 6 0 0
BITMAP
0160
0100
4650
6000
6000
4650
ENDCHAR
STARTCHAR Cdotaccent
ENCODING 266
SWIDTH 542 0
DWIDTH 4 0
BBX 4 7 0 0
BITMAP
0050
0000
3657
6003
6000
6003
3767
ENDCHAR
STARTCHAR cdotaccent
ENCODING 267
SWIDTH 394 0
DWIDTH 3 0
BBX 3 6 0 0
BITMAP
0510
0000
4650
6000
6000
4650
ENDCHAR
STARTCHAR Ccaron
ENCODING 268
SWIDTH 542 0
DWIDTH 4 0
BBX 4 7 0 0
BITMAP
0220
0130
3657
6003
6000
6003
3767
ENDCHAR
STARTCHAR ccaron
ENCODING 269
SWIDTH 394 0
DWIDTH 3 0
BBX 3 6 0 0
BITMAP
0550
0210
4650
6000
6000
4650
ENDCHAR
STARTCHAR Dcaron
ENCODING 270
SWIDTH 557 0
DWIDTH 4 0
BBX 4 7 0 0
BITMAP
0220
0130
5657
5106
5106
5106
5667
ENDCHAR
STARTCHAR dcaron
ENCODING 271
SWIDTH 534 0
DWIDTH 4 0
BBX 5 6 0 0
BITMAP
000740
010720
401600
600600
600600
476600
ENDCHAR
STARTCHAR Dcroat
ENCODING 272
SWIDTH 514 0
DWIDTH 4 0
BBX 4 5 0 0
BITMAP
4657
4206
7626
4206
4667
ENDCHAR
STARTCHAR dcroat
ENCODING 273
SWIDTH 539 0
DWIDTH 4 0
BBX 4 6 0 0
BITMAP
0006
0259
2656
6006
6006
4666
ENDCHAR
STARTCHAR Emacron
ENCODING 274
SWIDTH 481 0
DWIDTH 4 0
BBX 4 7 0 0
BITMAP
0440
0000
5652
5100
5650
5100
5652
ENDCHAR
STARTCHAR emacron
ENCODING 275
SWIDTH 492 0
DWIDTH 4 0
BBX 4 5 0 0
BITMAP
0440
4663
6006
7554
4652
ENDCHAR
STARTCHAR Ebreve
ENCODING 276
SWIDTH 481 0
DWIDTH 4 0
BBX 4 7 0 0
BITMAP
0220
0330
5652
5100
5650
5100
5652
ENDCHAR
STARTCHAR ebreve
ENCODING 277
SWIDTH 492 0
DWIDTH 4 0
BBX 4 6 0 0
BITMAP
0440
0330
4663
6006
7554
4652
ENDCHAR
STARTCHAR Edotaccent
ENCODING 278
SWIDTH 496 0
DWIDTH 4 0
BBX 4 7 0 0
BITMAP
0330
0000
5652
5100
5650
5100
5652
ENDCHAR
STARTCHAR edotaccent
ENCODING 279
SWIDTH 492 0
DWIDTH 4 0
BBX 4 6 0 0
BITMAP
0330
0000
4663
6006
7554
4652
ENDCHAR
STARTCHAR Eogonek
ENCODING 280
SWIDTH 481 0
DWIDTH 4 0
BBX 4 6 0 -1
BITMAP
5652
5100
5650
5100
5652
0040
ENDCHAR
STARTCHAR eogonek
ENCODING 281
SWIDTH 492 0
DWIDTH 4 0
BBX 4 5 0 -1
BITMAP
4663
6006
7554
4652
0040
ENDCHAR
STARTCHAR Ecaron
ENCODING 282
SWIDTH 481 0
DWIDTH 4 0
BBX 4 7 0 0
BITMAP
0220
0220
5652
5100
5650
5100
5652
ENDCHAR
STARTCHAR ecaron
ENCODING 283
SWIDTH 492 0
DWIDTH 4 0
BBX 4 6 0 0
BITMAP
0550
0110
4663
6006
7554
4652
ENDCHAR
STARTCHAR Gcircumflex
ENCODING 284
SWIDTH 539 0
DWIDTH 4 0
BBX 4 7 0 0
BITMAP
0130
0220
3656
6003
6046
6006
3766
ENDCHAR
STARTCHAR gcircumflex
ENCODING 285
SWIDTH 506 0
DWIDTH 4 0
BBX 4 7 0 -1
BITMAP
0460
0220
4656
6006
6006
2666
1564
ENDCHAR
STARTCHAR Gbreve
ENCODING 286
SWIDTH 539 0
DWIDTH 4 0
BBX 4 7 0 0
BITMAP
0210
0340
3656
6003
6046
6006
3766
ENDCHAR
STARTCHAR gbreve
ENCODING 287
SWIDTH 506 0
DWIDTH 4 0
BBX 4 7 0 -1
BITMAP
0440
0240
4656
6006
6006
2666
1564
ENDCHAR
STARTCHAR Gdotaccent
ENCODING 288
SWIDTH 539 0
DWIDTH 4 0
BBX 4 7 0 0
BITMAP
0150
0000
3656
6003
6046
6006
3766
ENDCHAR
STARTCHAR gdotaccent
ENCODING 289
SWIDTH 506 0
DWIDTH 4 0
BBX 4 7 0 -1
BITMAP
0060
0000
4656
6006
6006
2666
1564
ENDCHAR
STARTCHAR uni0122
ENCODING 290
SWIDTH 539 0
DWIDTH 4 0
BBX 4 7 0 -2
BITMAP
3656
6003
6046
6006
3766
0040
0040
ENDCHAR
STARTCHAR uni0123
ENCODING 291
SWIDTH 506 0
DWIDTH 4 0
BBX 4 7 0 -1
BITMAP
0040
0030
4656
6006
6006
2666
1564
ENDCHAR
STARTCHAR hcircumflex
ENCODING 293
SWIDTH 507 0
DWIDTH 4 0
BBX 4 6 0 0
BITMAP
6230
6000
6664
6006
6006
6006
ENDCHAR
STARTCHAR Hbar
ENCODING 294
SWIDTH 523 0
DWIDTH 4 0
BBX 5 5 0 0
BITMAP
420600
765920
465900
420600
420600
ENDCHAR
STARTCHAR hbar
ENCODING 295
SWIDTH 544 0
DWIDTH 4 0
BBX 4 6 0 0
BITMAP
2400
5830
2854
2506
2406
2406
ENDCHAR
STARTCHAR Itilde
ENCODING 296
SWIDTH 230 0
DWIDTH 2 0
BBX 2 7 0 0
BITMAP
34
52
42
42
42
42
42
ENDCHAR
STARTCHAR itilde
ENCODING 297
SWIDTH 210 0
DWIDTH 2 0
BBX 2 6 0 0
BITMAP
64
42
51
51
51
51
ENDCHAR
STARTCHAR Imacron
ENCODING 298
SWIDTH 230 0
DWIDTH 2 0
BBX 2 7 0 0
BITMAP
44
00
42
42
42
42
42
ENDCHAR
STARTCHAR imacron
ENCODING 299
SWIDTH 208 0
DWIDTH 2 0
BBX 2 5 0 0
BITMAP
53
51
51
51
51
ENDCHAR
STARTCHAR Ibreve
ENCODING 300
SWIDTH 231 0
DWIDTH 2 0
BBX 2 7 0 0
BITMAP
21
33
42
42
42
42
42
ENDCHAR
STARTCHAR ibreve
ENCODING 301
SWIDTH 211 0
DWIDTH 2 0
BBX 2 6 0 0
BITMAP
44
43
51
51
51
51
ENDCHAR
STARTCHAR Iogonek
ENCODING 302
SWIDTH 230 0
DWIDTH 2 0
BBX 2 6 0 -1
BITMAP
42
42
42
42
42
40
ENDCHAR
STARTCHAR iogonek
ENCODING 303
SWIDTH 210 0
DWIDTH 2 0
BBX 2 7 0 -1
BITMAP
51
00
51
51
51
51
40
ENDCHAR
STARTCHAR Idotaccent
ENCODING 304
SWIDTH 230 0
DWIDTH 2 0
BBX 2 6 0 0
BITMAP
42
42
42
42
42
42
ENDCHAR
STARTCHAR dotlessi
ENCODING 305
SWIDTH 212 0
DWIDTH 2 0
BBX 2 4 0 0
BITMAP
51
51
51
51
ENDCHAR
STARTCHAR IJ
ENCODING 306
SWIDTH 721 0
DWIDTH 6 0
BBX 6 5 0 0
BITMAP
420042
420042
420042
425042
427681
ENDCHAR
STARTCHAR ij
ENCODING 307
SWIDTH 419 0
DWIDTH 3 0
BBX 3 7 0 -1
BITMAP
5150
0000
5160
5160
5160
5160
0460
ENDCHAR
STARTCHAR Jcircumflex
ENCODING 308
SWIDTH 494 0
DWIDTH 4 0
BBX 4 7 0 0
BITMAP
0023
0022
0015
0015
0015
5015
6672
ENDCHAR
STARTCHAR jcircumflex
ENCODING 309
SWIDTH 209 0
DWIDTH 2 0
BBX 3 7 -1 -1
BITMAP
0630
0220
0510
0510
0510
0510
2800
ENDCHAR
STARTCHAR uni0136
ENCODING 310
SWIDTH 530 0
DWIDTH 4 0
BBX 4 7 0 -2
BITMAP
5125
5270
5850
5252
5107
0060
0020
ENDCHAR
STARTCHAR uni0137
ENCODING 311
SWIDTH 431 0
DWIDTH 3 0
BBX 4 8 0 -2
BITMAP
6000
6000
6061
6340
6250
6052
0310
0300
ENDCHAR
STARTCHAR Lacute
ENCODING 313
SWIDTH 451 0
DWIDTH 4 0
BBX 4 7 0 0
BITMAP
0400
1200
5100
5100
5100
5100
5662
ENDCHAR
STARTCHAR lacute
ENCODING 314
SWIDTH 207 0
DWIDTH 2 0
BBX 2 7 0 0
BITMAP
15
51
51
51
51
51
51
ENDCHAR
STARTCHAR uni013B
ENCODING 315
SWIDTH 451 0
DWIDTH 4 0
BBX 4 7 0 -2
BITMAP
5100
5100
5100
5100
5662
0220
0210
ENDCHAR
STARTCHAR uni013C
ENCODING 316
SWIDTH 211 0
DWIDTH 2 0
BBX 2 8 0 -2
BITMAP
51
51
51
51
51
51
30
40
ENDCHAR
STARTCHAR Lcaron
ENCODING 317
SWIDTH 451 0
DWIDTH 4 0
BBX 4 5 0 0
BITMAP
5160
5130
5100
5100
5662
ENDCHAR
STARTCHAR lcaron
ENCODING 318
SWIDTH 274 0
DWIDTH 2 0
BBX 3 6 0 0
BITMAP
5610
5400
5100
5100
5100
5100
ENDCHAR
STARTCHAR Ldot
ENCODING 319
SWIDTH 500 0
DWIDTH 4 0
BBX 4 5 0 0
BITMAP
5100
5100
5160
5110
5762
ENDCHAR
STARTCHAR ldot
ENCODING 320
SWIDTH 314 0
DWIDTH 3 0
BBX 3 6 0 0
BITMAP
5100
5100
5100
5520
5100
5100
ENDCHAR
STARTCHAR Lslash
ENCODING 321
SWIDTH 504 0
DWIDTH 4 0
BBX 4 5 0 0
BITMAP
4200
5700
6200
4200
4762
ENDCHAR
STARTCHAR lslash
ENCODING 322
SWIDTH 296 0
DWIDTH 2 0
BBX 3 6 0 0
BITMAP
0600
0710
5900
1600
0600
0600
ENDCHAR
STARTCHAR Nacute
ENCODING 323
SWIDTH 579 0
DWIDTH 5 0
BBX 4 7 0 0
BITMAP
0021
0030
5506
5716
5266
5148
5109
ENDCHAR
STARTCHAR nacute
ENCODING 324
SWIDTH 507 0
DWIDTH 4 0
BBX 4 6 0 0
BITMAP
0070
0010
6664
6006
6006
6006
ENDCHAR
STARTCHAR uni0145
ENCODING 325
SWIDTH 579 0
DWIDTH 5 0
BBX 4 7 0 -2
BITMAP
5506
5716
5266
5148
5109
0040
0040
ENDCHAR
STARTCHAR uni0146
ENCODING 326
SWIDTH 505 0
DWIDTH 4 0
BBX 4 6 0 -2
BITMAP
6664
6006
6006
6006
0120
0220
ENDCHAR
STARTCHAR Ncaron
ENCODING 327
SWIDTH 579 0
DWIDTH 5 0
BBX 4 7 0 0
BITMAP
0230
0040
5506
5716
5266
5148
5109
ENDCHAR
STARTCHAR ncaron
ENCODING 328
SWIDTH 507 0
DWIDTH 4 0
BBX 4 6 0 0
BITMAP
0550
0120
6664
6006
6006
6006
ENDCHAR
STARTCHAR Eng
ENCODING 330
SWIDTH 519 0
DWIDTH 4 0
BBX 4 6 0 -1
BITMAP
5506
5716
5266
5149
510A
0027
ENDCHAR
STARTCHAR eng
ENCODING 331
SWIDTH 507 0
DWIDTH 4 0
BBX 4 5 0 -1
BITMAP
6664
6006
6006
6006
0064
ENDCHAR
STARTCHAR Omacron
ENCODING 332
SWIDTH 553 0
DWIDTH 4 0
BBX 4 7 0 0
BITMAP
0350
0000
3656
6006
6006
6006
3766
ENDCHAR
STARTCHAR omacron
ENCODING 333
SWIDTH 496 0
DWIDTH 4 0
BBX 4 5 0 0
BITMAP
0440
4664
6006
6006
4664
ENDCHAR
STARTCHAR Obreve
ENCODING 334
SWIDTH 553 0
DWIDTH 4 0
BBX 4 7 0 0
BITMAP
0210
0240
3656
6006
6006
6006
3766
ENDCHAR
STARTCHAR obreve
ENCODING 335
SWIDTH 496 0
DWIDTH 4 0
BBX 4 6 0 0
BITMAP
0440
0330
4664
6006
6006
4664
ENDCHAR
STARTCHAR Ohungarumlaut
ENCODING 336
SWIDTH 553 0
DWIDTH 4 0
BBX 4 7 0 0
BITMAP
0253
0000
3656
6006
6006
6006
3766
ENDCHAR
STARTCHAR ohungarumlaut
ENCODING 337
SWIDTH 496 0
DWIDTH 4 0
BBX 4 6 0 0
BITMAP
0451
0000
4664
6006
6006
4664
ENDCHAR
STARTCHAR OE
ENCODING 338
SWIDTH 775 0
DWIDTH 6 0
BBX 6 5 0 0
BITMAP
375953
600600
600952
600600
376953
ENDCHAR
STARTCHAR oe
ENCODING 339
SWIDTH 812 0
DWIDTH 7 0
BBX 6 4 0 0
BITMAP
466857
600606
600957
466855
ENDCHAR
STARTCHAR Racute
ENCODING 340
SWIDTH 534 0
DWIDTH 4 0
BBX 4 7 0 0
BITMAP
0040
0120
5656
5106
5683
5133
5106
ENDCHAR
STARTCHAR racute
ENCODING 341
SWIDTH 313 0
DWIDTH 3 0
BBX 3 6 0 0
BITMAP
0700
0200
6610
6000
6000
6000
ENDCHAR
STARTCHAR uni0156
ENCODING 342
SWIDTH 534 0
DWIDTH 4 0
BBX 4 7 0 -2
BITMAP
5656
5106
5683
5133
5106
0130
0130
ENDCHAR
STARTCHAR uni0157
ENCODING 343
SWIDTH 313 0
DWIDTH 3 0
BBX 3 6 0 -2
BITMAP
6610
6000
6000
6000
4000
4000
ENDCHAR
STARTCHAR Rcaron
ENCODING 344
SWIDTH 534 0
DWIDTH 4 0
BBX 4 7 0 0
BITMAP
0220
0220
5656
5106
5683
5133
5106
ENDCHAR
STARTCHAR rcaron
ENCODING 345
SWIDTH 313 0
DWIDTH 3 0
BBX 3 6 0 0
BITMAP
3710
0300
6610
6000
6000
6000
ENDCHAR
STARTCHAR Sacute
ENCODING 346
SWIDTH 562 0
DWIDTH 5 0
BBX 4 7 0 0
BITMAP
0040
0030
3756
5202
0663
3007
3767
ENDCHAR
STARTCHAR sacute
ENCODING 347
SWIDTH 427 0
DWIDTH 3 0
BBX 3 6 0 0
BITMAP
0430
0200
5540
4510
0170
3580
ENDCHAR
STARTCHAR Scircumflex
ENCODING 348
SWIDTH 562 0
DWIDTH 5 0
BBX 4 7 0 0
BITMAP
0140
0230
3756
5202
0663
3007
3767
ENDCHAR
STARTCHAR scircumflex
ENCODING 349
SWIDTH 427 0
DWIDTH 3 0
BBX 3 6 0 0
BITMAP
0720
0220
5540
4510
0170
3580
ENDCHAR
STARTCHAR uni015E
ENCODING 350
SWIDTH 562 0
DWIDTH 5 0
BBX 4 7 0 -2
BITMAP
3756
5202
0663
3007
3767
0060
0040
ENDCHAR
STARTCHAR uni015F
ENCODING 351
SWIDTH 427 0
DWIDTH 3 0
BBX 3 6 0 -2
BITMAP
5540
4510
0170
3580
0420
0220
ENDCHAR
STARTCHAR Scaron
ENCODING 352
SWIDTH 562 0
DWIDTH 5 0
BBX 4 7 0 0
BITMAP
0230
0130
3756
5202
0663
3007
3767
ENDCHAR
STARTCHAR scaron
ENCODING 353
SWIDTH 427 0
DWIDTH 3 0
BBX 3 6 0 0
BITMAP
0630
0300
5540
4510
0170
3580
ENDCHAR
STARTCHAR uni0162
ENCODING 354
SWIDTH 420 0
DWIDTH 3 0
BBX 4 7 0 -2
BITMAP
4951
0600
0600
0600
0600
0600
0200
ENDCHAR
STARTCHAR uni0163
ENCODING 355
SWIDTH 347 0
DWIDTH 3 0
BBX 3 7 0 -2
BITMAP
2400
6820
2400
2400
1820
0600
0200
ENDCHAR
STARTCHAR Tcaron
ENCODING 356
SWIDTH 420 0
DWIDTH 3 0
BBX 4 7 0 0
BITMAP
0320
0400
4951
0600
0600
0600
0600
ENDCHAR
STARTCHAR tcaron
ENCODING 357
SWIDTH 396 0
DWIDTH 3 0
BBX 4 5 0 0
BITMAP
2351
6850
2400
2400
1820
ENDCHAR
STARTCHAR Tbar
ENCODING 358
SWIDTH 501 0
DWIDTH 4 0
BBX 4 5 0 0
BITMAP
4951
0600
2940
0600
0600
ENDCHAR
STARTCHAR tbar
ENCODING 359
SWIDTH 350 0
DWIDTH 3 0
BBX 3 5 0 0
BITMAP
2400
6820
5820
2400
0820
ENDCHAR
STARTCHAR Utilde
ENCODING 360
SWIDTH 552 0
DWIDTH 4 0
BBX 4 7 0 0
BITMAP
0240
0330
5106
5106
5106
5106
3766
ENDCHAR
STARTCHAR utilde
ENCODING 361
SWIDTH 507 0
DWIDTH 4 0
BBX 4 6 0 0
BITMAP
0460
0420
6006
6006
6006
3666
ENDCHAR
STARTCHAR Umacron
ENCODING 362
SWIDTH 552 0
DWIDTH 4 0
BBX 4 7 0 0
BITMAP
0350
0000
5106
5106
5106
5106
3766
ENDCHAR
STARTCHAR umacron
ENCODING 363
SWIDTH 507 0
DWIDTH 4 0
BBX 4 5 0 0
BITMAP
0440
6006
6006
6006
3666
ENDCHAR
STARTCHAR Ubreve
ENCODING 364
SWIDTH 552 0
DWIDTH 4 0
BBX 4 7 0 0
BITMAP
0210
0240
5106
5106
5106
5106
3766
ENDCHAR
STARTCHAR ubreve
ENCODING 365
SWIDTH 507 0
DWIDTH 4 0
BBX 4 6 0 0
BITMAP
0440
0330
6006
6006
6006
3666
ENDCHAR
STARTCHAR Uring
ENCODING 366
SWIDTH 552 0
DWIDTH 4 0
BBX 4 7 0 0
BITMAP
0340
0120
5106
5106
5106
5106
3766
ENDCHAR
STARTCHAR uring
ENCODING 367
SWIDTH 507 0
DWIDTH 4 0
BBX 4 6 0 0
BITMAP
0320
0320
6006
6006
6006
3666
ENDCHAR
STARTCHAR Uhungarumlaut
ENCODING 368
SWIDTH 552 0
DWIDTH 4 0
BBX 4 7 0 0
BITMAP
0352
0000
5106
5106
5106
5106
3766
ENDCHAR
STARTCHAR uhungarumlaut
ENCODING 369
SWIDTH 507 0
DWIDTH 4 0
BBX 4 6 0 0
BITMAP
0451
0000
6006
6006
6006
3666
ENDCHAR
STARTCHAR Uogonek
ENCODING 370
SWIDTH 552 0
DWIDTH 4 0
BBX 4 6 0 -1
BITMAP
5106
5106
5106
5106
3766
0130
ENDCHAR
STARTCHAR uogonek
ENCODING 371
SWIDTH 503 0
DWIDTH 4 0
BBX 4 5 0 -1
BITMAP
6006
6006
6006
3666
0031
ENDCHAR
STARTCHAR Wcircumflex
ENCODING 372
SWIDTH 795 0
DWIDTH 6 0
BBX 6 7 0 0
BITMAP
001300
002200
703706
606606
336416
065165
091091
ENDCHAR
STARTCHAR wcircumflex
ENCODING 373
SWIDTH 682 0
DWIDTH 5 0
BBX 6 6 0 0
BITMAP
007200
002200
608142
606560
263560
0A0640
ENDCHAR
STARTCHAR Ycircumflex
ENCODING 374
SWIDTH 493 0
DWIDTH 4 0
BBX 4 7 0 0
BITMAP
0220
0220
6016
1561
0660
0430
0330
ENDCHAR
STARTCHAR ycircumflex
ENCODING 375
SWIDTH 459 0
DWIDTH 4 0
BBX 4 7 0 -1
BITMAP
0540
0220
6024
4260
0660
0730
3700
ENDCHAR
STARTCHAR Ydieresis
ENCODING 376
SWIDTH 493 0
DWIDTH 4 0
BBX 4 7 0 0
BITMAP
0660
0000
6016
1561
0660
0430
0330
ENDCHAR
STARTCHAR Zacute
ENCODING 377
SWIDTH 482 0
DWIDTH 4 0
BBX 4 7 0 0
BITMAP
0040
0030
3685
0070
0520
1600
8663
ENDCHAR
STARTCHAR zacute
ENCODING 378
SWIDTH 405 0
DWIDTH 3 0
BBX 3 6 0 0
BITMAP
0160
0200
4690
0430
1600
8650
ENDCHAR
STARTCHAR Zdotaccent
ENCODING 379
SWIDTH 482 0
DWIDTH 4 0
BBX 4 7 0 0
BITMAP
0140
0000
3685
0070
0520
1600
8663
ENDCHAR
STARTCHAR zdotaccent
ENCODING 380
SWIDTH 405 0
DWIDTH 3 0
BBX 3 6 0 0
BITMAP
0600
0000
4690
0430
1600
8650
ENDCHAR
STARTCHAR Zcaron
ENCODING 381
SWIDTH 482 0
DWIDTH 4 0
BBX 4 7 0 0
BITMAP
0220
0220
3685
0070
0520
1600
8663
ENDCHAR
STARTCHAR zcaron
ENCODING 382
SWIDTH 405 0
DWIDTH 3 0
BBX 3 6 0 0
BITMAP
0540
0200
4690
0430
1600
8650
ENDCHAR
STARTCHAR florin
ENCODING 402
SWIDTH 494 0
DWIDTH 4 0
BBX 4 7 0 -1
BITMAP
0054
0060
0591
0420
0600
0600
5500
ENDCHAR
STARTCHAR AEacute
ENCODING 508
SWIDTH 773 0
DWIDTH 6 0
BBX 6 7 0 0
BITMAP
000310
000300
006953
025600
060952
385600
700953
ENDCHAR
STARTCHAR aeacute
ENCODING 509
SWIDTH 795 0
DWIDTH 6 0
BBX 6 6 0 0
BITMAP
000610
000200
056866
265605
600956
467854
ENDCHAR
STARTCHAR Oslashacute
ENCODING 510
SWIDTH 558 0
DWIDTH 4 0
BBX 4 7 0 0
BITMAP
0040
0030
3759
6039
6146
6606
5767
ENDCHAR
STARTCHAR oslashacute
ENCODING 511
SWIDTH 521 0
DWIDTH 4 0
BBX 4 6 0 0
BITMAP
0070
0020
3767
6057
6616
5765
ENDCHAR
STARTCHAR uni0218
ENCODING 536
SWIDTH 562 0
DWIDTH 5 0
BBX 4 7 0 -2
BITMAP
3756
5202
0663
3007
3767
0040
0040
ENDCHAR
STARTCHAR uni0219
ENCODING 537
SWIDTH 427 0
DWIDTH 3 0
BBX 3 6 0 -2
BITMAP
5540
4510
0170
3580
0600
0200
ENDCHAR
STARTCHAR circumflex
ENCODING 710
SWIDTH 326 0
DWIDTH 3 0
BBX 2 1 0 5
BITMAP
36
ENDCHAR
STARTCHAR caron
ENCODING 711
SWIDTH 326 0
DWIDTH 3 0
BBX 2 1 0 5
BITMAP
36
ENDCHAR
STARTCHAR uni02C9
ENCODING 713
SWIDTH 358 0
DWIDTH 3 0
BBX 3 1 0 4
BITMAP
2510
ENDCHAR
STARTCHAR breve
ENCODING 728
SWIDTH 332 0
DWIDTH 3 0
BBX 2 1 0 5
BITMAP
24
ENDCHAR
STARTCHAR dotaccent
ENCODING 729
SWIDTH 183 0
DWIDTH 1 0
BBX 1 1 0 5
BITMAP
60
ENDCHAR
STARTCHAR ring
ENCODING 730
SWIDTH 297 0
DWIDTH 2 0
BBX 2 2 0 4
BITMAP
33
23
ENDCHAR
STARTCHAR ogonek
ENCODING 731
SWIDTH 243 0
DWIDTH 2 0
BBX 2 2 0 -1
BITMAP
01
31
ENDCHAR
STARTCHAR tilde
ENCODING 732
SWIDTH 369 0
DWIDTH 3 0
BBX 3 1 0 5
BITMAP
3420
ENDCHAR
STARTCHAR hungarumlaut
ENCODING 733
SWIDTH 377 0
DWIDTH 3 0
BBX 3 1 0 5
BITMAP
3630
ENDCHAR
STARTCHAR Mu
ENCODING 924
SWIDTH 527 0
DWIDTH 4 0
BBX 4 5 0 -1
BITMAP
5106
5106
5106
5767
5100
ENDCHAR
STARTCHAR Pi
ENCODING 928
SWIDTH 605 0
DWIDTH 5 0
BBX 5 5 0 0
BITMAP
4A6A30
060600
060600
060600
060600
ENDCHAR
STARTCHAR Sigma
ENCODING 931
SWIDTH 481 0
DWIDTH 4 0
BBX 4 5 0 0
BITMAP
5762
0700
0430
0700
5762
ENDCHAR
STARTCHAR uni0901
ENCODING 2305
SWIDTH 0 0
DWIDTH 0 0
BBX 4 2 -3 5
BITMAP
1222
0551
ENDCHAR
STARTCHAR uni0902
ENCODING 2306
SWIDTH 0 0
DWIDTH 0 0
BBX 2 1 -2 6
BITMAP
12
ENDCHAR
STARTCHAR uni0903
ENCODING 2307
SWIDTH 247 0
DWIDTH 2 0
BBX 2 3 0 0
BITMAP
21
00
11
ENDCHAR
STARTCHAR uni0905
ENCODING 2309
SWIDTH 598 0
DWIDTH 5 0
BBX 5 5 0 0
BITMAP
264550
006510
029910
006510
463510
ENDCHAR
STARTCHAR uni0906
ENCODING 2310
SWIDTH 828 0
DWIDTH 7 0
BBX 7 5 0 0
BITMAP
26456940
00650600
03890600
00650600
46350600
ENDCHAR
STARTCHAR uni0907
ENCODING 2311
SWIDTH 478 0
DWIDTH 4 0
BBX 4 6 0 -1
BITMAP
5586
2671
6000
2651
6563
4000
ENDCHAR
STARTCHAR uni0908
ENCODING 2312
SWIDTH 478 0
DWIDTH 4 0
BBX 4 8 0 -1
BITMAP
0073
0060
5586
2671
6000
2651
6563
4000
ENDCHAR
STARTCHAR uni0909
ENCODING 2313
SWIDTH 471 0
DWIDTH 4 0
BBX 4 5 0 0
BITMAP
5595
0042
0390
4033
5671
ENDCHAR
STARTCHAR uni090A
ENCODING 2314
SWIDTH 661 0
DWIDTH 5 0
BBX 6 5 0 0
BITMAP
559652
004200
03A660
403360
567280
ENDCHAR
STARTCHAR uni090B
ENCODING 2315
SWIDTH 753 0
DWIDTH 6 0
BBX 7 5 0 0
BITMAP
55775510
16734400
60373600
30655400
15438300
ENDCHAR
STARTCHAR uni090C
ENCODING 2316
SWIDTH 676 0
DWIDTH 5 0
BBX 6 7 0 -2
BITMAP
555593
165680
606060
603060
361170
000600
000453
ENDCHAR
STARTCHAR uni090D
ENCODING 2317
SWIDTH 521 0
DWIDTH 4 0
BBX 5 7 0 0
BITMAP
050500
056100
865910
420600
425300
420000
175200
ENDCHAR
STARTCHAR uni090E
ENCODING 2318
SWIDTH 522 0
DWIDTH 4 0
BBX 5 7 0 0
BITMAP
043000
004500
865910
420600
425300
420000
175200
ENDCHAR
STARTCHAR uni090F
ENCODING 2319
SWIDTH 526 0
DWIDTH 4 0
BBX 5 5 0 0
BITMAP
865910
420600
425300
420000
175200
ENDCHAR
STARTCHAR uni0910
ENCODING 2320
SWIDTH 526 0
DWIDTH 4 0
BBX 5 7 0 0
BITMAP
006000
002400
865910
420600
425300
420000
175200
ENDCHAR
STARTCHAR uni0911
ENCODING 2321
SWIDTH 829 0
DWIDTH 7 0
BBX 7 7 0 0
BITMAP
00020200
00025500
26456940
00651600
02991600
00651600
46351600
ENDCHAR
STARTCHAR uni0912
ENCODING 2322
SWIDTH 828 0
DWIDTH 7 0
BBX 7 7 0 0
BITMAP
00016000
00002600
26456940
00651600
02991600
00651600
46351600
ENDCHAR
STARTCHAR uni0913
ENCODING 2323
SWIDTH 829 0
DWIDTH 7 0
BBX 7 7 0 0
BITMAP
00006100
00000600
26456940
00651600
02991600
00651600
46351600
ENDCHAR
STARTCHAR uni0914
ENCODING 2324
SWIDTH 829 0
DWIDTH 7 0
BBX 7 7 0 0
BITMAP
00006600
00001900
26456940
00651600
02991600
00651600
46351600
ENDCHAR
STARTCHAR uni0915
ENCODING 2325
SWIDTH 725 0
DWIDTH 6 0
BBX 6 5 0 0
BITMAP
558655
265661
604224
605124
268361
ENDCHAR
STARTCHAR uni0916
ENCODING 2326
SWIDTH 696 0
DWIDTH 6 0
BBX 6 5 0 0
BITMAP
596593
053560
666060
342680
061050
ENDCHAR
STARTCHAR uni0917
ENCODING 2327
SWIDTH 494 0
DWIDTH 4 0
BBX 4 5 0 0
BITMAP
5977
0633
0633
5233
0023
ENDCHAR
STARTCHAR uni0918
ENCODING 2328
SWIDTH 559 0
DWIDTH 4 0
BBX 5 5 0 0
BITMAP
875930
600600
371600
600700
266800
ENDCHAR
STARTCHAR uni0919
ENCODING 2329
SWIDTH 505 0
DWIDTH 4 0
BBX 5 5 0 0
BITMAP
558610
267000
600300
265100
356300
ENDCHAR
STARTCHAR uni091A
ENCODING 2330
SWIDTH 563 0
DWIDTH 5 0
BBX 5 5 0 0
BITMAP
555930
483600
240600
065800
000600
ENDCHAR
STARTCHAR uni091B
ENCODING 2331
SWIDTH 581 0
DWIDTH 5 0
BBX 5 5 0 0
BITMAP
875940
600600
280600
600510
375800
ENDCHAR
STARTCHAR uni091C
ENCODING 2332
SWIDTH 547 0
DWIDTH 4 0
BBX 5 5 0 0
BITMAP
555920
285700
033600
033600
460600
ENDCHAR
STARTCHAR uni091D
ENCODING 2333
SWIDTH 664 0
DWIDTH 5 0
BBX 6 5 0 0
BITMAP
559592
356060
358570
405160
668060
ENDCHAR
STARTCHAR uni091E
ENCODING 2334
SWIDTH 592 0
DWIDTH 5 0
BBX 5 5 0 0
BITMAP
555940
361600
019900
014600
360600
ENDCHAR
STARTCHAR uni091F
ENCODING 2335
SWIDTH 485 0
DWIDTH 4 0
BBX 4 5 0 0
BITMAP
5595
1670
6000
6004
3663
ENDCHAR
STARTCHAR uni0920
ENCODING 2336
SWIDTH 512 0
DWIDTH 4 0
BBX 5 5 0 0
BITMAP
558710
168200
600600
600600
366400
ENDCHAR
STARTCHAR uni0921
ENCODING 2337
SWIDTH 475 0
DWIDTH 4 0
BBX 4 5 0 0
BITMAP
5585
2670
6000
2662
4563
ENDCHAR
STARTCHAR uni0922
ENCODING 2338
SWIDTH 485 0
DWIDTH 4 0
BBX 4 5 0 0
BITMAP
5586
1671
6000
6063
3665
ENDCHAR
STARTCHAR uni0923
ENCODING 2339
SWIDTH 681 0
DWIDTH 5 0
BBX 6 5 0 0
BITMAP
969593
506060
516060
165060
000050
ENDCHAR
STARTCHAR uni0924
ENCODING 2340
SWIDTH 496 0
DWIDTH 4 0
BBX 4 5 0 0
BITMAP
5578
2674
6024
6024
4523
ENDCHAR
STARTCHAR uni0925
ENCODING 2341
SWIDTH 593 0
DWIDTH 5 0
BBX 5 5 0 0
BITMAP
275540
216600
563600
355900
000500
ENDCHAR
STARTCHAR uni0926
ENCODING 2342
SWIDTH 489 0
DWIDTH 4 0
BBX 4 5 0 0
BITMAP
5577
1662
6000
6015
1675
ENDCHAR
STARTCHAR uni0927
ENCODING 2343
SWIDTH 560 0
DWIDTH 4 0
BBX 5 5 0 0
BITMAP
862930
600600
381600
600700
266800
ENDCHAR
STARTCHAR uni0928
ENCODING 2344
SWIDTH 473 0
DWIDTH 4 0
BBX 4 5 0 0
BITMAP
5595
0051
4591
4051
0051
ENDCHAR
STARTCHAR uni0928093C
ENCODING 2345
SWIDTH 473 0
DWIDTH 4 0
BBX 4 5 0 0
BITMAP
5595
0051
4591
4051
0351
ENDCHAR
STARTCHAR uni092A
ENCODING 2346
SWIDTH 503 0
DWIDTH 4 0
BBX 5 5 0 0
BITMAP
966810
511400
512400
167400
001400
ENDCHAR
STARTCHAR uni092B
ENCODING 2347
SWIDTH 739 0
DWIDTH 6 0
BBX 6 5 0 0
BITMAP
967755
513761
513306
167306
003461
ENDCHAR
STARTCHAR uni092C
ENCODING 2348
SWIDTH 491 0
DWIDTH 4 0
BBX 4 5 0 0
BITMAP
5577
2643
6633
6083
2673
ENDCHAR
STARTCHAR uni092D
ENCODING 2349
SWIDTH 491 0
DWIDTH 4 0
BBX 4 5 0 0
BITMAP
7077
5033
5673
3033
0033
ENDCHAR
STARTCHAR uni092E
ENCODING 2350
SWIDTH 490 0
DWIDTH 4 0
BBX 4 5 0 0
BITMAP
9577
6033
6573
3033
0033
ENDCHAR
STARTCHAR uni092F
ENCODING 2351
SWIDTH 564 0
DWIDTH 5 0
BBX 5 5 0 0
BITMAP
595930
041600
460600
255800
000600
ENDCHAR
STARTCHAR uni0930
ENCODING 2352
SWIDTH 337 0
DWIDTH 3 0
BBX 3 5 0 0
BITMAP
5950
0510
6600
3400
0610
ENDCHAR
STARTCHAR uni0930093C
ENCODING 2353
SWIDTH 347 0
DWIDTH 3 0
BBX 3 6 0 -1
BITMAP
5860
0420
6600
2400
0500
2000
ENDCHAR
STARTCHAR uni0932
ENCODING 2354
SWIDTH 676 0
DWIDTH 5 0
BBX 6 5 0 0
BITMAP
555593
165680
606070
603060
361060
ENDCHAR
STARTCHAR uni0933
ENCODING 2355
SWIDTH 672 0
DWIDTH 5 0
BBX 6 5 0 0
BITMAP
555952
265730
607060
606060
469660
ENDCHAR
STARTCHAR uni0933093C
ENCODING 2356
SWIDTH 672 0
DWIDTH 5 0
BBX 6 6 0 -1
BITMAP
555952
265730
607060
606060
469660
030000
ENDCHAR
STARTCHAR uni0935
ENCODING 2357
SWIDTH 484 0
DWIDTH 4 0
BBX 4 5 0 0
BITMAP
5586
2642
6042
6042
2682
ENDCHAR
STARTCHAR uni0936
ENCODING 2358
SWIDTH 614 0
DWIDTH 5 0
BBX 5 5 0 0
BITMAP
466370
306330
553330
250330
051330
ENDCHAR
STARTCHAR uni0937
ENCODING 2359
SWIDTH 505 0
DWIDTH 4 0
BBX 5 5 0 0
BITMAP
986810
553500
516500
166500
001500
ENDCHAR
STARTCHAR uni0938
ENCODING 2360
SWIDTH 575 0
DWIDTH 5 0
BBX 5 5 0 0
BITMAP
595940
060600
686900
330600
060600
ENDCHAR
STARTCHAR uni0939
ENCODING 2361
SWIDTH 481 0
DWIDTH 4 0
BBX 4 6 0 -1
BITMAP
5586
2661
2761
5112
5000
1551
ENDCHAR
STARTCHAR uni093C
ENCODING 2364
SWIDTH 0 0
DWIDTH 0 0
BBX 2 1 -2 -1
BITMAP
21
ENDCHAR
STARTCHAR uni093D
ENCODING 2365
SWIDTH 529 0
DWIDTH 4 0
BBX 4 5 0 0
BITMAP
0851
0700
0272
0006
1665
ENDCHAR
STARTCHAR uni093E
ENCODING 2366
SWIDTH 231 0
DWIDTH 2 0
BBX 2 5 0 0
BITMAP
86
42
42
42
42
ENDCHAR
STARTCHAR uni093F
ENCODING 2367
SWIDTH 231 0
DWIDTH 2 0
BBX 5 7 0 0
BITMAP
275580
420030
860000
420000
420000
420000
420000
ENDCHAR
STARTCHAR uni0940
ENCODING 2368
SWIDTH 231 0
DWIDTH 2 0
BBX 4 7 -2 0
BITMAP
1881
1242
0086
0042
0042
0042
0042
ENDCHAR
STARTCHAR uni0941
ENCODING 2369
SWIDTH 0 0
DWIDTH 0 0
BBX 4 2 -3 -2
BITMAP
3011
3672
ENDCHAR
STARTCHAR uni0942
ENCODING 2370
SWIDTH 0 0
DWIDTH 0 0
BBX 3 2 -2 -2
BITMAP
6510
7160
ENDCHAR
STARTCHAR uni0943
ENCODING 2371
SWIDTH 0 0
DWIDTH 0 0
BBX 4 2 -3 -2
BITMAP
0610
1751
ENDCHAR
STARTCHAR uni0945
ENCODING 2373
SWIDTH 0 0
DWIDTH 0 0
BBX 4 2 -3 5
BITMAP
1202
0551
ENDCHAR
STARTCHAR uni0946
ENCODING 2374
SWIDTH 0 0
DWIDTH 0 0
BBX 3 3 -3 4
BITMAP
7000
1620
0110
ENDCHAR
STARTCHAR uni0947
ENCODING 2375
SWIDTH 0 0
DWIDTH 0 0
BBX 3 3 -3 4
BITMAP
3400
0510
0010
ENDCHAR
STARTCHAR uni0948
ENCODING 2376
SWIDTH 0 0
DWIDTH 0 0
BBX 3 3 -3 4
BITMAP
3440
0540
0010
ENDCHAR
STARTCHAR uni0949
ENCODING 2377
SWIDTH 231 0
DWIDTH 2 0
BBX 4 7 -1 0
BITMAP
2021
1550
0860
0420
0420
0420
0420
ENDCHAR
STARTCHAR uni094A
ENCODING 2378
SWIDTH 231 0
DWIDTH 2 0
BBX 3 7 -1 0
BITMAP
6000
1700
0860
0420
0420
0420
0420
ENDCHAR
STARTCHAR uni094B
ENCODING 2379
SWIDTH 231 0
DWIDTH 2 0
BBX 3 7 -1 0
BITMAP
4200
0600
0860
0420
0420
0420
0420
ENDCHAR
STARTCHAR uni094C
ENCODING 2380
SWIDTH 231 0
DWIDTH 2 0
BBX 3 7 -1 0
BITMAP
5520
0720
0860
0420
0420
0420
0420
ENDCHAR
STARTCHAR uni094D
ENCODING 2381
SWIDTH 0 0
DWIDTH 0 0
BBX 1 2 -1 -2
BITMAP
30
60
ENDCHAR
STARTCHAR uni0950
ENCODING 2384
SWIDTH 847 0
DWIDTH 7 0
BBX 7 6 0 0
BITMAP
00002100
05805400
00605600
04800420
30513420
46707810
ENDCHAR
STARTCHAR uni0951
ENCODING 2385
SWIDTH 0 0
DWIDTH 0 0
BBX 2 2 -2 5
BITMAP
24
12
ENDCHAR
STARTCHAR uni0952
ENCODING 2386
SWIDTH 0 0
DWIDTH 0 0
BBX 4 1 -4 -1
BITMAP
1551
ENDCHAR
STARTCHAR uni0953
ENCODING 2387
SWIDTH 0 0
DWIDTH 0 0
BBX 2 2 -2 5
BITMAP
60
21
ENDCHAR
STARTCHAR uni0954
ENCODING 2388
SWIDTH 0 0
DWIDTH 0 0
BBX 1 2 -1 5
BITMAP
60
30
ENDCHAR
STARTCHAR uni0915093C
ENCODING 2392
SWIDTH 725 0
DWIDTH 6 0
BBX 6 6 0 -1
BITMAP
558655
265661
604224
605124
268361
030000
ENDCHAR
STARTCHAR uni0916093C
ENCODING 2393
SWIDTH 696 0
DWIDTH 6 0
BBX 6 6 0 -1
BITMAP
596593
053560
666060
342680
061050
300000
ENDCHAR
STARTCHAR uni0917093C
ENCODING 2394
SWIDTH 494 0
DWIDTH 4 0
BBX 4 6 0 -1
BITMAP
5977
0633
0633
5233
0023
1100
ENDCHAR
STARTCHAR uni091C093C
ENCODING 2395
SWIDTH 547 0
DWIDTH 4 0
BBX 5 6 0 -1
BITMAP
555920
285700
033600
033600
460600
210000
ENDCHAR
STARTCHAR uni0921093C
ENCODING 2396
SWIDTH 475 0
DWIDTH 4 0
BBX 4 6 0 -1
BITMAP
5585
2670
6000
2662
4563
0210
ENDCHAR
STARTCHAR uni0922093C
ENCODING 2397
SWIDTH 485 0
DWIDTH 4 0
BBX 4 6 0 -1
BITMAP
5586
1671
6000
6063
3665
0110
ENDCHAR
STARTCHAR uni092B093C
ENCODING 2398
SWIDTH 739 0
DWIDTH 6 0
BBX 6 6 0 -1
BITMAP
967755
513761
513306
167306
003461
030000
ENDCHAR
STARTCHAR uni092F093C
ENCODING 2399
SWIDTH 564 0
DWIDTH 5 0
BBX 5 6 0 -1
BITMAP
595930
041600
460600
255800
000600
120000
ENDCHAR
STARTCHAR uni0960
ENCODING 2400
SWIDTH 753 0
DWIDTH 6 0
BBX 7 6 0 -1
BITMAP
55775510
25735400
503A7400
02B36000
27338300
00006300
ENDCHAR
STARTCHAR uni0961
ENCODING 2401
SWIDTH 676 0
DWIDTH 5 0
BBX 6 7 0 -2
BITMAP
555593
165680
606070
601450
361600
000740
000640
ENDCHAR
STARTCHAR uni0964
ENCODING 2404
SWIDTH 286 0
DWIDTH 2 0
BBX 1 5 1 0
BITMAP
60
60
60
60
60
ENDCHAR
STARTCHAR uni0965
ENCODING 2405
SWIDTH 518 0
DWIDTH 4 0
BBX 3 5 1 0
BITMAP
6060
6060
6060
6060
6060
ENDCHAR
STARTCHAR uni0966
ENCODING 2406
SWIDTH 519 0
DWIDTH 4 0
BBX 4 5 0 0
BITMAP
4665
6006
6006
6006
4665
ENDCHAR
STARTCHAR uni0967
ENCODING 2407
SWIDTH 288 0
DWIDTH 2 0
BBX 2 5 0 0
BITMAP
57
06
06
06
06
ENDCHAR
STARTCHAR uni0968
ENCODING 2408
SWIDTH 453 0
DWIDTH 4 0
BBX 4 5 0 0
BITMAP
5672
3024
0260
3400
7552
ENDCHAR
STARTCHAR uni0969
ENCODING 2409
SWIDTH 489 0
DWIDTH 4 0
BBX 4 5 0 0
BITMAP
5673
3015
0282
3015
5673
ENDCHAR
STARTCHAR uni096A
ENCODING 2410
SWIDTH 453 0
DWIDTH 4 0
BBX 4 5 0 0
BITMAP
01A0
0660
4260
6593
0050
ENDCHAR
STARTCHAR uni096B
ENCODING 2411
SWIDTH 480 0
DWIDTH 4 0
BBX 4 5 0 0
BITMAP
6662
6561
1006
4006
3673
ENDCHAR
STARTCHAR uni096C
ENCODING 2412
SWIDTH 495 0
DWIDTH 4 0
BBX 4 5 0 0
BITMAP
4751
6000
6563
6006
4665
ENDCHAR
STARTCHAR uni096D
ENCODING 2413
SWIDTH 380 0
DWIDTH 3 0
BBX 3 5 0 0
BITMAP
5690
0160
0510
0600
2400
ENDCHAR
STARTCHAR uni096E
ENCODING 2414
SWIDTH 523 0
DWIDTH 4 0
BBX 4 5 0 0
BITMAP
4665
6006
3875
6006
4665
ENDCHAR
STARTCHAR uni096F
ENCODING 2415
SWIDTH 493 0
DWIDTH 4 0
BBX 4 5 0 0
BITMAP
5663
6006
3656
0006
2573
ENDCHAR
STARTCHAR uni0970
ENCODING 2416
SWIDTH 391 0
DWIDTH 3 0
BBX 3 3 0 1
BITMAP
4640
6060
3540
ENDCHAR
STARTCHAR uni0972
ENCODING 2418
SWIDTH 598 0
DWIDTH 5 0
BBX 5 7 0 0
BITMAP
002020
001550
264550
006510
029910
006510
463510
ENDCHAR
STARTCHAR Wgrave
ENCODING 7808
SWIDTH 795 0
DWIDTH 6 0
BBX 6 7 0 0
BITMAP
004000
002100
703706
606606
336416
065165
091091
ENDCHAR
STARTCHAR wgrave
ENCODING 7809
SWIDTH 682 0
DWIDTH 5 0
BBX 6 6 0 0
BITMAP
016000
002000
608142
606560
263560
0A0640
ENDCHAR
STARTCHAR Wacute
ENCODING 7810
SWIDTH 795 0
DWIDTH 6 0
BBX 6 7 0 0
BITMAP
000300
000300
703706
606606
336416
065165
091091
ENDCHAR
STARTCHAR wacute
ENCODING 7811
SWIDTH 682 0
DWIDTH 5 0
BBX 6 6 0 0
BITMAP
001600
002000
608142
606560
263560
0A0640
ENDCHAR
STARTCHAR Wdieresis
ENCODING 7812
SWIDTH 795 0
DWIDTH 6 0
BBX 6 7 0 0
BITMAP
006500
000000
703706
606606
336416
065165
091091
ENDCHAR
STARTCHAR wdieresis
ENCODING 7813
SWIDTH 682 0
DWIDTH 5 0
BBX 6 6 0 0
BITMAP
024600
000000
608142
606560
263560
0A0640
ENDCHAR
STARTCHAR uni1E9E
ENCODING 7838
SWIDTH 542 0
DWIDTH 4 0
BBX 4 5 0 0
BITMAP
3758
5143
5155
5106
5157
ENDCHAR
STARTCHAR Ygrave
ENCODING 7922
SWIDTH 493 0
DWIDTH 4 0
BBX 4 7 0 0
BITMAP
0400
0200
6016
1561
0660
0430
0330
ENDCHAR
STARTCHAR ygrave
ENCODING 7923
SWIDTH 459 0
DWIDTH 4 0
BBX 4 7 0 -1
BITMAP
0700
0100
6024
4260
0660
0730
3700
ENDCHAR
STARTCHAR uni200B
ENCODING 8203
SWIDTH 0 0
DWIDTH 0 0
BBX 1 1 0 0
BITMAP
00
ENDCHAR
STARTCHAR uni200C
ENCODING 8204
SWIDTH 0 0
DWIDTH 0 0
BBX 2 8 -1 -2
BITMAP
33
33
33
33
33
33
33
33
ENDCHAR
STARTCHAR uni200D
ENCODING 8205
SWIDTH 0 0
DWIDTH 0 0
BBX 2 9 -1 -2
BITMAP
11
77
78
33
33
33
33
33
33
ENDCHAR
STARTCHAR endash
ENCODING 8211
SWIDTH 408 0
DWIDTH 3 0
BBX 3 1 0 2
BITMAP
3540
ENDCHAR
STARTCHAR emdash
ENCODING 8212
SWIDTH 537 0
DWIDTH 4 0
BBX 4 1 0 2
BITMAP
3554
ENDCHAR
STARTCHAR quoteleft
ENCODING 8216
SWIDTH 179 0
DWIDTH 1 0
BBX 1 2 0 3
BITMAP
30
60
ENDCHAR
STARTCHAR quoteright
ENCODING 8217
SWIDTH 179 0
DWIDTH 1 0
BBX 1 2 0 3
BITMAP
60
30
ENDCHAR
STARTCHAR quotesinglbase
ENCODING 8218
SWIDTH 187 0
DWIDTH 2 0
BBX 1 2 0 -1
BITMAP
50
40
ENDCHAR
STARTCHAR quotedblleft
ENCODING 8220
SWIDTH 329 0
DWIDTH 3 0
BBX 3 2 0 3
BITMAP
3220
6420
ENDCHAR
STARTCHAR quotedblright
ENCODING 8221
SWIDTH 329 0
DWIDTH 3 0
BBX 3 2 0 3
BITMAP
6420
3300
ENDCHAR
STARTCHAR quotedblbase
ENCODING 8222
SWIDTH 337 0
DWIDTH 3 0
BBX 3 2 0 -1
BITMAP
5320
4300
ENDCHAR
STARTCHAR dagger
ENCODING 8224
SWIDTH 427 0
DWIDTH 3 0
BBX 3 5 0 0
BITMAP
0500
3850
0600
0500
0400
ENDCHAR
STARTCHAR daggerdbl
ENCODING 8225
SWIDTH 427 0
DWIDTH 3 0
BBX 3 5 0 0
BITMAP
0500
3850
0600
3840
0500
ENDCHAR
STARTCHAR bullet
ENCODING 8226
SWIDTH 273 0
DWIDTH 2 0
BBX 2 2 0 1
BITMAP
47
11
ENDCHAR
STARTCHAR ellipsis
ENCODING 8230
SWIDTH 591 0
DWIDTH 5 0
BBX 5 2 0 0
BITMAP
101000
707430
ENDCHAR
STARTCHAR perthousand
ENCODING 8240
SWIDTH 1027 0
DWIDTH 8 0
BBX 8 5 0 0
BITMAP
44450000
40550000
00455155
00550645
03255376
ENDCHAR
STARTCHAR guilsinglleft
ENCODING 8249
SWIDTH 290 0
DWIDTH 2 0
BBX 2 4 0 0
BITMAP
02
34
24
01
ENDCHAR
STARTCHAR guilsinglright
ENCODING 8250
SWIDTH 290 0
DWIDTH 2 0
BBX 2 4 0 0
BITMAP
20
15
25
10
ENDCHAR
STARTCHAR fraction
ENCODING 8260
SWIDTH 117 0
DWIDTH 1 0
BBX 5 5 -2 0
BITMAP
000330
001500
006000
051000
330000
ENDCHAR
STARTCHAR Euro
ENCODING 8364
SWIDTH 523 0
DWIDTH 4 0
BBX 4 5 0 0
BITMAP
1755
5730
5830
2404
0865
ENDCHAR
STARTCHAR uni20B9
ENCODING 8377
SWIDTH 414 0
DWIDTH 3 0
BBX 3 5 0 0
BITMAP
3960
3770
6600
2400
0510
ENDCHAR
STARTCHAR trademark
ENCODING 8482
SWIDTH 591 0
DWIDTH 5 0
BBX 5 2 0 3
BITMAP
266430
044430
ENDCHAR
STARTCHAR uni2126
ENCODING 8486
SWIDTH 629 0
DWIDTH 5 0
BBX 5 5 0 0
BITMAP
186810
330240
330240
330240
492950
ENDCHAR
STARTCHAR partialdiff
ENCODING 8706
SWIDTH 481 0
DWIDTH 4 0
BBX 4 6 0 0
BITMAP
0510
0161
2664
6026
6016
4673
ENDCHAR
STARTCHAR uni2206
ENCODING 8710
SWIDTH 594 0
DWIDTH 5 0
BBX 5 5 0 0
BITMAP
01A000
064300
060600
330600
866750
ENDCHAR
STARTCHAR minus
ENCODING 8722
SWIDTH 523 0
DWIDTH 4 0
BBX 4 1 0 2
BITMAP
2553
ENDCHAR
STARTCHAR approxequal
ENCODING 8776
SWIDTH 523 0
DWIDTH 4 0
BBX 4 3 0 1
BITMAP
2502
2043
1542
ENDCHAR
STARTCHAR notequal
ENCODING 8800
SWIDTH 523 0
DWIDTH 4 0
BBX 4 4 0 0
BITMAP
0020
2583
2863
0200
ENDCHAR
STARTCHAR lessequal
ENCODING 8804
SWIDTH 523 0
DWIDTH 4 0
BBX 4 4 0 1
BITMAP
0013
3741
0453
2553
ENDCHAR
STARTCHAR greaterequal
ENCODING 8805
SWIDTH 523 0
DWIDTH 4 0
BBX 4 4 0 1
BITMAP
2200
0465
2540
2553
ENDCHAR
STARTCHAR uni25CC
ENCODING 9676
SWIDTH 701 0
DWIDTH 6 0
BBX 6 5 0 0
BITMAP
005500
230050
320051
050050
015640
ENDCHAR
STARTCHAR commaaccent
ENCODING 63171
SWIDTH 0 0
DWIDTH 0 0
BBX 1 2 1 -2
BITMAP
40
40
ENDCHAR
STARTCHAR .notdef
ENCODING -1
SWIDTH 600 0
DWIDTH 5 0
BBX 4 5 0 0
BITMAP
0767
1506
1506
1506
0767
ENDCHAR
STARTCHAR .null
ENCODING -1
SWIDTH 0 0
DWIDTH 0 0
BBX 1 1 0 0
BITMAP
00
ENDCHAR
STARTCHAR nonmarkingreturn
ENCODING -1
SWIDTH 333 0
DWIDTH 3 0
BBX 1 1 0 0
BITMAP
00
ENDCHAR
STARTCHAR uni0915094D
ENCODING -1
SWIDTH 519 0
DWIDTH 4 0
BBX 6 5 0 0
BITMAP
558651
265660
604200
605100
268100
ENDCHAR
STARTCHAR uni0916094D
ENCODING -1
SWIDTH 468 0
DWIDTH 4 0
BBX 5 5 0 0
BITMAP
596530
053500
666000
342630
061000
ENDCHAR
STARTCHAR uni0917094D
ENCODING -1
SWIDTH 264 0
DWIDTH 2 0
BBX 3 4 0 1
BITMAP
5910
0600
0600
5200
ENDCHAR
STARTCHAR uni0918094D
ENCODING -1
SWIDTH 321 0
DWIDTH 3 0
BBX 4 5 0 0
BITMAP
8753
6000
3710
6000
2653
ENDCHAR
STARTCHAR uni0919094D
ENCODING -1
SWIDTH 505 0
DWIDTH 4 0
BBX 5 7 0 -2
BITMAP
558610
267000
600300
265100
356300
013000
003000
ENDCHAR
STARTCHAR uni091A094D
ENCODING -1
SWIDTH 330 0
DWIDTH 3 0
BBX 4 4 0 1
BITMAP
5553
4830
2400
0653
ENDCHAR
STARTCHAR uni091B094D
ENCODING -1
SWIDTH 581 0
DWIDTH 5 0
BBX 5 5 0 0
BITMAP
875540
602600
280510
600510
375800
ENDCHAR
STARTCHAR uni091C094D
ENCODING -1
SWIDTH 309 0
DWIDTH 2 0
BBX 4 5 0 0
BITMAP
5551
2852
0330
0330
4600
ENDCHAR
STARTCHAR uni091D094D
ENCODING -1
SWIDTH 432 0
DWIDTH 3 0
BBX 5 6 0 -1
BITMAP
559510
266000
600000
267510
657000
500000
ENDCHAR
STARTCHAR uni091E094D
ENCODING -1
SWIDTH 359 0
DWIDTH 3 0
BBX 4 5 0 0
BITMAP
5553
3610
0194
0140
3600
ENDCHAR
STARTCHAR uni091F094D
ENCODING -1
SWIDTH 485 0
DWIDTH 4 0
BBX 4 7 0 -2
BITMAP
5595
1670
6000
6004
3663
0120
0060
ENDCHAR
STARTCHAR uni0920094D
ENCODING -1
SWIDTH 512 0
DWIDTH 4 0
BBX 5 7 0 -2
BITMAP
558710
168200
600600
600600
366400
011000
006000
ENDCHAR
STARTCHAR uni0921094D
ENCODING -1
SWIDTH 475 0
DWIDTH 4 0
BBX 4 7 0 -2
BITMAP
5585
2670
6000
2662
4563
0130
0030
ENDCHAR
STARTCHAR uni0922094D
ENCODING -1
SWIDTH 485 0
DWIDTH 4 0
BBX 4 7 0 -2
BITMAP
5586
1671
6000
6063
3665
0120
0060
ENDCHAR
STARTCHAR uni0923094D
ENCODING -1
SWIDTH 454 0
DWIDTH 4 0
BBX 4 4 0 1
BITMAP
9694
5060
5160
1650
ENDCHAR
STARTCHAR uni0924094D
ENCODING -1
SWIDTH 263 0
DWIDTH 2 0
BBX 3 5 0 0
BITMAP
5550
2650
6000
6000
4500
ENDCHAR
STARTCHAR uni0925094D
ENCODING -1
SWIDTH 359 0
DWIDTH 3 0
BBX 4 4 0 1
BITMAP
2750
2160
5630
3554
ENDCHAR
STARTCHAR uni0926094D
ENCODING -1
SWIDTH 489 0
DWIDTH 4 0
BBX 4 6 0 -1
BITMAP
5577
1662
6000
6015
1675
0150
ENDCHAR
STARTCHAR uni0927094D
ENCODING -1
SWIDTH 321 0
DWIDTH 3 0
BBX 4 5 0 0
BITMAP
8633
6000
3710
6000
2653
ENDCHAR
STARTCHAR uni0928094D
ENCODING -1
SWIDTH 233 0
DWIDTH 2 0
BBX 3 4 0 1
BITMAP
5530
0000
4530
4000
ENDCHAR
STARTCHAR uni092A094D
ENCODING -1
SWIDTH 269 0
DWIDTH 2 0
BBX 4 4 0 1
BITMAP
9651
5100
5100
1660
ENDCHAR
STARTCHAR uni092B094D
ENCODING -1
SWIDTH 530 0
DWIDTH 4 0
BBX 6 5 0 0
BITMAP
967751
513761
513300
167300
003300
ENDCHAR
STARTCHAR uni092C094D
ENCODING -1
SWIDTH 265 0
DWIDTH 2 0
BBX 4 5 0 0
BITMAP
5550
2610
6500
6172
2650
ENDCHAR
STARTCHAR uni092D094D
ENCODING -1
SWIDTH 261 0
DWIDTH 2 0
BBX 3 4 0 1
BITMAP
7050
5000
5650
2000
ENDCHAR
STARTCHAR uni092E094D
ENCODING -1
SWIDTH 261 0
DWIDTH 2 0
BBX 3 4 0 1
BITMAP
9550
6000
6550
2000
ENDCHAR
STARTCHAR uni092F094D
ENCODING -1
SWIDTH 323 0
DWIDTH 3 0
BBX 4 4 0 1
BITMAP
5962
4600
6001
1653
ENDCHAR
STARTCHAR uni0930094D
ENCODING -1
SWIDTH 337 0
DWIDTH 3 0
BBX 3 7 0 -2
BITMAP
5950
0510
6600
3400
0610
0400
0210
ENDCHAR
STARTCHAR uni0932094D
ENCODING -1
SWIDTH 431 0
DWIDTH 3 0
BBX 5 5 0 0
BITMAP
555530
165630
606000
603000
361000
ENDCHAR
STARTCHAR uni0933094D
ENCODING -1
SWIDTH 677 0
DWIDTH 5 0
BBX 6 5 0 0
BITMAP
555553
266640
607060
606060
469660
ENDCHAR
STARTCHAR uni0935094D
ENCODING -1
SWIDTH 255 0
DWIDTH 2 0
BBX 4 5 0 0
BITMAP
5550
2610
6000
6022
2660
ENDCHAR
STARTCHAR uni0936094D
ENCODING -1
SWIDTH 378 0
DWIDTH 3 0
BBX 3 5 0 0
BITMAP
4660
3060
5530
2500
0510
ENDCHAR
STARTCHAR uni0937094D
ENCODING -1
SWIDTH 282 0
DWIDTH 2 0
BBX 4 4 0 1
BITMAP
9851
5520
5151
1650
ENDCHAR
STARTCHAR uni0938094D
ENCODING -1
SWIDTH 338 0
DWIDTH 3 0
BBX 4 5 0 0
BITMAP
5953
0600
6863
3300
0600
ENDCHAR
STARTCHAR uni0939094D
ENCODING -1
SWIDTH 457 0
DWIDTH 4 0
BBX 5 6 0 -1
BITMAP
558600
266100
275520
510000
500000
155100
ENDCHAR
STARTCHAR uni0915093C094D
ENCODING -1
SWIDTH 519 0
DWIDTH 4 0
BBX 6 6 0 -1
BITMAP
558651
265660
604200
605100
268100
020000
ENDCHAR
STARTCHAR uni0916093C094D
ENCODING -1
SWIDTH 463 0
DWIDTH 4 0
BBX 5 6 0 -1
BITMAP
596530
053500
666000
342630
061000
300000
ENDCHAR
STARTCHAR uni0917093C094D
ENCODING -1
SWIDTH 264 0
DWIDTH 2 0
BBX 3 5 0 0
BITMAP
5910
0600
5200
0000
1100
ENDCHAR
STARTCHAR uni091C093C094D
ENCODING -1
SWIDTH 314 0
DWIDTH 3 0
BBX 4 6 0 -1
BITMAP
5551
2852
0330
0330
4600
2100
ENDCHAR
STARTCHAR uni0928093C094D
ENCODING -1
SWIDTH 241 0
DWIDTH 2 0
BBX 3 5 0 0
BITMAP
5540
0000
4540
4000
0300
ENDCHAR
STARTCHAR uni092B093C094D
ENCODING -1
SWIDTH 530 0
DWIDTH 4 0
BBX 6 6 0 -1
BITMAP
967751
513761
513300
167300
003300
030000
ENDCHAR
STARTCHAR uni092F093C094D
ENCODING -1
SWIDTH 325 0
DWIDTH 3 0
BBX 4 6 0 -1
BITMAP
5962
4600
6001
1653
0000
0300
ENDCHAR
STARTCHAR uni09080902
ENCODING -1
SWIDTH 478 0
DWIDTH 4 0
BBX 4 8 0 -1
BITMAP
0073
0062
5586
2671
6000
2651
6563
4000
ENDCHAR
STARTCHAR uni09300941
ENCODING -1
SWIDTH 533 0
DWIDTH 4 0
BBX 5 5 0 0
BITMAP
596520
056400
660500
343400
061000
ENDCHAR
STARTCHAR uni09300942
ENCODING -1
SWIDTH 645 0
DWIDTH 5 0
BBX 6 5 0 0
BITMAP
596551
053630
663050
340530
061100
ENDCHAR
STARTCHAR uni09390941
ENCODING -1
SWIDTH 495 0
DWIDTH 4 0
BBX 4 7 0 -2
BITMAP
5587
2661
2761
5112
5000
1552
3664
ENDCHAR
STARTCHAR uni09390942
ENCODING -1
SWIDTH 492 0
DWIDTH 4 0
BBX 4 7 0 -2
BITMAP
5586
1661
5100
2761
4632
3342
2705
ENDCHAR
STARTCHAR uni09260943
ENCODING -1
SWIDTH 390 0
DWIDTH 3 0
BBX 4 5 0 0
BITMAP
5591
1640
5100
3710
4640
ENDCHAR
STARTCHAR uni09390943
ENCODING -1
SWIDTH 519 0
DWIDTH 4 0
BBX 5 6 0 -1
BITMAP
558610
266100
600000
377500
617300
355100
ENDCHAR
STARTCHAR uni094D0930
ENCODING -1
SWIDTH 0 0
DWIDTH 0 0
BBX 4 2 -4 -1
BITMAP
0330
1661
ENDCHAR
STARTCHAR uni0930094D.1
ENCODING -1
SWIDTH 192 0
DWIDTH 2 0
BBX 4 3 -1 2
BITMAP
0530
1001
3661
ENDCHAR
STARTCHAR uni0930094D.2
ENCODING -1
SWIDTH 0 0
DWIDTH 0 0
BBX 3 3 -2 4
BITMAP
0710
2400
1200
ENDCHAR
STARTCHAR uni0930094D0902
ENCODING -1
SWIDTH 0 0
DWIDTH 0 0
BBX 3 3 -2 4
BITMAP
0710
2600
1100
ENDCHAR
STARTCHAR uni093E0930094D
ENCODING -1
SWIDTH 231 0
DWIDTH 2 0
BBX 2 7 0 0
BITMAP
26
42
86
42
42
42
42
ENDCHAR
STARTCHAR uni093E0930094D0902
ENCODING -1
SWIDTH 231 0
DWIDTH 2 0
BBX 2 7 0 0
BITMAP
26
44
86
42
42
42
42
ENDCHAR
STARTCHAR uni0930094D.aMatraI
ENCODING -1
SWIDTH 0 0
DWIDTH 0 0
BBX 2 2 -1 5
BITMAP
15
60
ENDCHAR
STARTCHAR uni0902.aMatraI
ENCODING -1
SWIDTH 0 0
DWIDTH 0 0
BBX 1 1 0 6
BITMAP
30
ENDCHAR
STARTCHAR uni0930094D0902.aMatraI
ENCODING -1
SWIDTH 0 0
DWIDTH 0 0
BBX 2 2 -1 5
BITMAP
15
63
ENDCHAR
STARTCHAR uni09400930094D
ENCODING -1
SWIDTH 231 0
DWIDTH 2 0
BBX 4 7 -2 0
BITMAP
1877
1242
0086
0042
0042
0042
0042
ENDCHAR
STARTCHAR uni09400902
ENCODING -1
SWIDTH 231 0
DWIDTH 2 0
BBX 4 7 -2 0
BITMAP
1884
1242
0086
0042
0042
0042
0042
ENDCHAR
STARTCHAR uni09400930094D0902
ENCODING -1
SWIDTH 231 0
DWIDTH 2 0
BBX 4 7 -2 0
BITMAP
1877
1243
0086
0042
0042
0042
0042
ENDCHAR
STARTCHAR uni0940.aLong
ENCODING -1
SWIDTH 231 0
DWIDTH 2 0
BBX 6 7 -4 0
BITMAP
085581
120042
000086
000042
000042
000042
000042
ENDCHAR
STARTCHAR uni09400930094D.aLong
ENCODING -1
SWIDTH 231 0
DWIDTH 2 0
BBX 6 7 -4 0
BITMAP
085587
120042
000086
000042
000042
000042
000042
ENDCHAR
STARTCHAR uni09400902.aLong
ENCODING -1
SWIDTH 231 0
DWIDTH 2 0
BBX 7 7 -4 0
BITMAP
08558310
12004200
00008600
00004200
00004200
00004200
00004200
ENDCHAR
STARTCHAR uni09400930094D0902.aLong
ENCODING -1
SWIDTH 231 0
DWIDTH 2 0
BBX 6 7 -4 0
BITMAP
085577
120043
000086
000042
000042
000042
000042
ENDCHAR
STARTCHAR uni09470930094D
ENCODING -1
SWIDTH 0 0
DWIDTH 0 0
BBX 4 2 -3 5
BITMAP
3571
0440
ENDCHAR
STARTCHAR uni09470902
ENCODING -1
SWIDTH 0 0
DWIDTH 0 0
BBX 3 3 -3 4
BITMAP
3430
0510
0010
ENDCHAR
STARTCHAR uni09470901
ENCODING -1
SWIDTH 0 0
DWIDTH 0 0
BBX 5 3 -3 4
BITMAP
342220
055520
001000
ENDCHAR
STARTCHAR uni09470930094D0902
ENCODING -1
SWIDTH 0 0
DWIDTH 0 0
BBX 4 2 -3 5
BITMAP
3371
0360
ENDCHAR
STARTCHAR uni09480930094D
ENCODING -1
SWIDTH 0 0
DWIDTH 0 0
BBX 4 3 -3 4
BITMAP
4751
0740
0010
ENDCHAR
STARTCHAR uni09480902
ENCODING -1
SWIDTH 0 0
DWIDTH 0 0
BBX 4 3 -3 4
BITMAP
4561
0640
0010
ENDCHAR
STARTCHAR uni09480901
ENCODING -1
SWIDTH 0 0
DWIDTH 0 0
BBX 6 3 -3 4
BITMAP
446221
055550
001000
ENDCHAR
STARTCHAR uni09480930094D0902
ENCODING -1
SWIDTH 0 0
DWIDTH 0 0
BBX 4 3 -3 4
BITMAP
4751
0761
0010
ENDCHAR
STARTCHAR uni094B0930094D
ENCODING -1
SWIDTH 231 0
DWIDTH 2 0
BBX 3 7 -1 0
BITMAP
5460
0820
0860
0420
0420
0420
0420
ENDCHAR
STARTCHAR uni094B0902
ENCODING -1
SWIDTH 231 0
DWIDTH 2 0
BBX 3 7 -1 0
BITMAP
4230
0500
0860
0420
0420
0420
0420
ENDCHAR
STARTCHAR uni094B0930094D0902
ENCODING -1
SWIDTH 231 0
DWIDTH 2 0
BBX 3 7 -1 0
BITMAP
4360
0740
0860
0420
0420
0420
0420
ENDCHAR
STARTCHAR uni094C0930094D
ENCODING -1
SWIDTH 231 0
DWIDTH 2 0
BBX 3 7 -1 0
BITMAP
6660
0920
0860
0420
0420
0420
0420
ENDCHAR
STARTCHAR uni094C0902
ENCODING -1
SWIDTH 231 0
DWIDTH 2 0
BBX 3 7 -1 0
BITMAP
5550
0720
0860
0420
0420
0420
0420
ENDCHAR
STARTCHAR uni094C0930094D0902
ENCODING -1
SWIDTH 231 0
DWIDTH 2 0
BBX 3 7 -1 0
BITMAP
5660
0940
0860
0420
0420
0420
0420
ENDCHAR
STARTCHAR uni0915094D0937
ENCODING -1
SWIDTH 656 0
DWIDTH 5 0
BBX 6 5 0 0
BITMAP
087182
287560
600060
605160
269160
ENDCHAR
STARTCHAR uni0915094D0937094D
ENCODING -1
SWIDTH 429 0
DWIDTH 3 0
BBX 5 5 0 0
BITMAP
077100
287520
600000
605100
269100
ENDCHAR
STARTCHAR uni0915094D0937094D092E
ENCODING -1
SWIDTH 933 0
DWIDTH 7 0
BBX 8 5 0 0
BITMAP
08729593
28757060
60008580
60514060
26910050
ENDCHAR
STARTCHAR uni0915094D0937094D092E094D
ENCODING -1
SWIDTH 717 0
DWIDTH 6 0
BBX 7 5 0 0
BITMAP
08729530
28757000
60008530
60514000
26910000
ENDCHAR
STARTCHAR uni0915094D0937094D092E094D092F
ENCODING -1
SWIDTH 1283 0
DWIDTH 10 0
BBX 11 5 0 0
BITMAP
087295595920
287570650600
600085800600
605110456700
267100000600
ENDCHAR
STARTCHAR uni0915094D0937094D092F
ENCODING -1
SWIDTH 989 0
DWIDTH 8 0
BBX 8 5 0 0
BITMAP
07726977
15410633
28868243
60515583
36710033
ENDCHAR
STARTCHAR uni0915094D0937094D0935
ENCODING -1
SWIDTH 936 0
DWIDTH 7 0
BBX 8 5 0 0
BITMAP
08725593
28756060
60006060
60514680
26810050
ENDCHAR
STARTCHAR uni091C094D091E
ENCODING -1
SWIDTH 629 0
DWIDTH 5 0
BBX 6 5 0 0
BITMAP
555681
355640
356240
603540
667340
ENDCHAR
STARTCHAR uni091C094D091E094D
ENCODING -1
SWIDTH 398 0
DWIDTH 3 0
BBX 4 6 0 -1
BITMAP
5555
2655
6000
2661
6572
5000
ENDCHAR
STARTCHAR uni091C094D091E094D092F
ENCODING -1
SWIDTH 975 0
DWIDTH 8 0
BBX 8 5 0 0
BITMAP
55557885
35560551
35634051
60336581
66710051
ENDCHAR
STARTCHAR uni0915094D0928
ENCODING -1
SWIDTH 1003 0
DWIDTH 8 0
BBX 9 5 0 0
BITMAP
5586556810
2656601400
6042466400
6051401400
2681001400
ENDCHAR
STARTCHAR uni0916094D0928
ENCODING -1
SWIDTH 958 0
DWIDTH 8 0
BBX 8 5 0 0
BITMAP
59655594
05263060
66607590
34267060
06100050
ENDCHAR
STARTCHAR uni0917094D0928
ENCODING -1
SWIDTH 736 0
DWIDTH 6 0
BBX 6 5 0 0
BITMAP
595587
060042
063582
214042
000032
ENDCHAR
STARTCHAR uni0918094D0928
ENCODING -1
SWIDTH 814 0
DWIDTH 7 0
BBX 7 5 0 0
BITMAP
86555930
47100600
40055800
25540600
00000600
ENDCHAR
STARTCHAR uni091A094D0928
ENCODING -1
SWIDTH 829 0
DWIDTH 7 0
BBX 7 5 0 0
BITMAP
55555940
48300600
24055900
05450600
00000600
ENDCHAR
STARTCHAR uni091B094D0928
ENCODING -1
SWIDTH 977 0
DWIDTH 8 0
BBX 8 5 0 0
BITMAP
87555585
60260041
28054581
50055041
37580041
ENDCHAR
STARTCHAR uni091C094D0928
ENCODING -1
SWIDTH 831 0
DWIDTH 7 0
BBX 7 5 0 0
BITMAP
55555940
00000600
27585800
03340600
47100600
ENDCHAR
STARTCHAR uni091D094D0928
ENCODING -1
SWIDTH 935 0
DWIDTH 7 0
BBX 8 5 0 0
BITMAP
55955593
35600060
35855060
50612060
66800060
ENDCHAR
STARTCHAR uni091F094D0928
ENCODING -1
SWIDTH 494 0
DWIDTH 4 0
BBX 4 7 0 -2
BITMAP
5586
1671
6001
6006
1673
2582
4042
ENDCHAR
STARTCHAR uni0920094D0928
ENCODING -1
SWIDTH 516 0
DWIDTH 4 0
BBX 5 7 0 -2
BITMAP
557710
168200
600600
600600
167300
258200
404200
ENDCHAR
STARTCHAR uni0921094D0928
ENCODING -1
SWIDTH 481 0
DWIDTH 4 0
BBX 4 7 0 -2
BITMAP
5586
3561
2561
4015
2682
2582
4042
ENDCHAR
STARTCHAR uni0924094D0928
ENCODING -1
SWIDTH 756 0
DWIDTH 6 0
BBX 7 5 0 0
BITMAP
55556810
26601500
60466500
60311500
45001500
ENDCHAR
STARTCHAR uni0925094D0928
ENCODING -1
SWIDTH 855 0
DWIDTH 7 0
BBX 7 5 0 0
BITMAP
27545860
21600420
56345820
26550420
00000420
ENDCHAR
STARTCHAR uni0926094D0928
ENCODING -1
SWIDTH 955 0
DWIDTH 8 0
BBX 8 7 0 -2
BITMAP
55775594
16620060
60004590
60154060
16750060
00040000
00030000
ENDCHAR
STARTCHAR uni0927094D0928
ENCODING -1
SWIDTH 814 0
DWIDTH 7 0
BBX 7 5 0 0
BITMAP
86055930
47100600
40055800
26540600
00000600
ENDCHAR
STARTCHAR uni0928094D0928
ENCODING -1
SWIDTH 738 0
DWIDTH 6 0
BBX 6 5 0 0
BITMAP
555577
000033
457573
404033
000032
ENDCHAR
STARTCHAR uni092A094D0928
ENCODING -1
SWIDTH 782 0
DWIDTH 6 0
BBX 7 5 0 0
BITMAP
96555920
51000600
51065700
04430600
00000600
ENDCHAR
STARTCHAR uni092B094D0928
ENCODING -1
SWIDTH 1013 0
DWIDTH 8 0
BBX 9 5 0 0
BITMAP
9677555910
5137600600
5133375600
1673210600
0033000600
ENDCHAR
STARTCHAR uni092C094D0928
ENCODING -1
SWIDTH 810 0
DWIDTH 6 0
BBX 7 5 0 0
BITMAP
55555930
26100600
66055800
61640600
26500600
ENDCHAR
STARTCHAR uni092D094D0928
ENCODING -1
SWIDTH 757 0
DWIDTH 6 0
BBX 7 5 0 0
BITMAP
70556810
50001500
56766500
30311500
00001500
ENDCHAR
STARTCHAR uni092E094D0928
ENCODING -1
SWIDTH 757 0
DWIDTH 6 0
BBX 7 5 0 0
BITMAP
95556810
60001500
66766500
30311500
00001500
ENDCHAR
STARTCHAR uni092F094D0928
ENCODING -1
SWIDTH 829 0
DWIDTH 7 0
BBX 7 5 0 0
BITMAP
59655940
46000600
60055800
16540600
00000600
ENDCHAR
STARTCHAR uni0935094D0928
ENCODING -1
SWIDTH 798 0
DWIDTH 6 0
BBX 7 5 0 0
BITMAP
55555920
26100600
60065700
60140600
26500600
ENDCHAR
STARTCHAR uni0936094D0928
ENCODING -1
SWIDTH 845 0
DWIDTH 7 0
BBX 7 5 0 0
BITMAP
46645950
30600500
55330500
25020500
05100500
ENDCHAR
STARTCHAR uni0938094D0928
ENCODING -1
SWIDTH 831 0
DWIDTH 7 0
BBX 7 5 0 0
BITMAP
59555940
06000600
68560600
33020600
06000600
ENDCHAR
STARTCHAR uni0939094D0928
ENCODING -1
SWIDTH 500 0
DWIDTH 4 0
BBX 4 6 0 -1
BITMAP
5568
1663
5100
2875
6165
2681
ENDCHAR
STARTCHAR uni0915094D0930
ENCODING -1
SWIDTH 725 0
DWIDTH 6 0
BBX 6 6 0 -1
BITMAP
558655
265661
604224
605124
279361
030000
ENDCHAR
STARTCHAR uni0916094D0930
ENCODING -1
SWIDTH 698 0
DWIDTH 6 0
BBX 6 6 0 -1
BITMAP
596593
052560
666060
3427A0
061750
002100
ENDCHAR
STARTCHAR uni0917094D0930
ENCODING -1
SWIDTH 494 0
DWIDTH 4 0
BBX 4 5 0 0
BITMAP
5977
0633
0633
5293
1633
ENDCHAR
STARTCHAR uni0918094D0930
ENCODING -1
SWIDTH 559 0
DWIDTH 4 0
BBX 5 6 0 -1
BITMAP
875930
600600
371600
600700
268800
042000
ENDCHAR
STARTCHAR uni0919094D0930
ENCODING -1
SWIDTH 505 0
DWIDTH 4 0
BBX 5 7 0 -2
BITMAP
558610
267000
600300
265100
456300
077000
112000
ENDCHAR
STARTCHAR uni091A094D0930
ENCODING -1
SWIDTH 563 0
DWIDTH 5 0
BBX 5 5 0 0
BITMAP
555930
483600
240600
068800
044600
ENDCHAR
STARTCHAR uni091B094D0930
ENCODING -1
SWIDTH 581 0
DWIDTH 5 0
BBX 5 7 0 -2
BITMAP
875940
600600
280600
600510
375800
055300
010100
ENDCHAR
STARTCHAR uni091C094D0930
ENCODING -1
SWIDTH 547 0
DWIDTH 4 0
BBX 5 6 0 -1
BITMAP
555920
285700
033600
033700
467700
022000
ENDCHAR
STARTCHAR uni091D094D0930
ENCODING -1
SWIDTH 684 0
DWIDTH 5 0
BBX 6 5 0 0
BITMAP
559593
356060
358580
506290
668870
ENDCHAR
STARTCHAR uni091E094D0930
ENCODING -1
SWIDTH 598 0
DWIDTH 5 0
BBX 5 5 0 0
BITMAP
555850
361510
018910
362910
006510
ENDCHAR
STARTCHAR uni091F094D0930
ENCODING -1
SWIDTH 485 0
DWIDTH 4 0
BBX 4 6 0 -1
BITMAP
5595
1670
6000
6004
3664
0761
ENDCHAR
STARTCHAR uni0920094D0930
ENCODING -1
SWIDTH 512 0
DWIDTH 4 0
BBX 5 6 0 -1
BITMAP
558710
168200
600600
600600
366400
066100
ENDCHAR
STARTCHAR uni0921094D0930
ENCODING -1
SWIDTH 475 0
DWIDTH 4 0
BBX 4 6 0 -1
BITMAP
5585
2670
6000
3651
4563
1661
ENDCHAR
STARTCHAR uni0922094D0930
ENCODING -1
SWIDTH 485 0
DWIDTH 4 0
BBX 4 6 0 -1
BITMAP
5586
1671
6000
6063
3664
0661
ENDCHAR
STARTCHAR uni0923094D0930
ENCODING -1
SWIDTH 681 0
DWIDTH 5 0
BBX 6 5 0 0
BITMAP
969593
506060
516060
165580
004350
ENDCHAR
STARTCHAR uni0924094D0930
ENCODING -1
SWIDTH 493 0
DWIDTH 4 0
BBX 4 5 0 0
BITMAP
5577
2673
6033
0183
2633
ENDCHAR
STARTCHAR uni0925094D0930
ENCODING -1
SWIDTH 593 0
DWIDTH 5 0
BBX 5 5 0 0
BITMAP
275540
216600
563600
358A00
044500
ENDCHAR
STARTCHAR uni0926094D0930
ENCODING -1
SWIDTH 489 0
DWIDTH 4 0
BBX 4 6 0 -1
BITMAP
5577
1662
6000
6015
1695
0410
ENDCHAR
STARTCHAR uni0927094D0930
ENCODING -1
SWIDTH 560 0
DWIDTH 4 0
BBX 5 6 0 -1
BITMAP
862930
600600
381600
600700
268800
032000
ENDCHAR
STARTCHAR uni0928094D0930
ENCODING -1
SWIDTH 473 0
DWIDTH 4 0
BBX 4 5 0 0
BITMAP
5595
0051
4591
42A1
2651
ENDCHAR
STARTCHAR uni092A094D0930
ENCODING -1
SWIDTH 503 0
DWIDTH 4 0
BBX 5 5 0 0
BITMAP
966810
511400
512400
168400
052400
ENDCHAR
STARTCHAR uni092B094D0930
ENCODING -1
SWIDTH 741 0
DWIDTH 6 0
BBX 6 5 0 0
BITMAP
967755
513752
413406
039452
173300
ENDCHAR
STARTCHAR uni092C094D0930
ENCODING -1
SWIDTH 491 0
DWIDTH 4 0
BBX 4 6 0 -1
BITMAP
5577
2643
6633
6083
2793
0500
ENDCHAR
STARTCHAR uni092D094D0930
ENCODING -1
SWIDTH 491 0
DWIDTH 4 0
BBX 4 5 0 0
BITMAP
7077
5033
5683
3183
1633
ENDCHAR
STARTCHAR uni092E094D0930
ENCODING -1
SWIDTH 490 0
DWIDTH 4 0
BBX 4 5 0 0
BITMAP
9577
6033
6683
3283
1633
ENDCHAR
STARTCHAR uni092F094D0930
ENCODING -1
SWIDTH 564 0
DWIDTH 5 0
BBX 5 5 0 0
BITMAP
595930
041600
460600
259800
053600
ENDCHAR
STARTCHAR uni0935094D0930
ENCODING -1
SWIDTH 484 0
DWIDTH 4 0
BBX 4 6 0 -1
BITMAP
5586
2642
6042
6042
27A2
0500
ENDCHAR
STARTCHAR uni0936094D0930
ENCODING -1
SWIDTH 558 0
DWIDTH 4 0
BBX 5 5 0 0
BITMAP
465730
516600
1B4600
419800
063600
ENDCHAR
STARTCHAR uni0938094D0930
ENCODING -1
SWIDTH 604 0
DWIDTH 5 0
BBX 5 5 0 0
BITMAP
595860
060410
685A10
334710
061410
ENDCHAR
STARTCHAR uni0939094D0930
ENCODING -1
SWIDTH 505 0
DWIDTH 4 0
BBX 5 6 0 -1
BITMAP
557810
266200
600000
377400
625500
255100
ENDCHAR
STARTCHAR uni0915093C094D0930
ENCODING -1
SWIDTH 725 0
DWIDTH 6 0
BBX 6 6 0 -1
BITMAP
558655
265661
604224
605124
279361
031000
ENDCHAR
STARTCHAR uni0916093C094D0930
ENCODING -1
SWIDTH 698 0
DWIDTH 6 0
BBX 6 6 0 -1
BITMAP
596593
052560
666060
342790
061650
001300
ENDCHAR
STARTCHAR uni0917093C094D0930
ENCODING -1
SWIDTH 494 0
DWIDTH 4 0
BBX 4 6 0 -1
BITMAP
5977
0633
0633
5293
1633
0210
ENDCHAR
STARTCHAR uni091C093C094D0930
ENCODING -1
SWIDTH 547 0
DWIDTH 4 0
BBX 5 6 0 -1
BITMAP
555920
285700
033600
033700
467700
322000
ENDCHAR
STARTCHAR uni0921093C094D0930
ENCODING -1
SWIDTH 475 0
DWIDTH 4 0
BBX 4 6 0 -1
BITMAP
5585
2670
6000
3651
4563
3671
ENDCHAR
STARTCHAR uni0922093C094D0930
ENCODING -1
SWIDTH 485 0
DWIDTH 4 0
BBX 4 6 0 -1
BITMAP
5586
1671
6000
6063
3664
3771
ENDCHAR
STARTCHAR uni0928093C094D0930
ENCODING -1
SWIDTH 473 0
DWIDTH 4 0
BBX 4 6 0 -1
BITMAP
5595
0051
4591
42A1
2651
0300
ENDCHAR
STARTCHAR uni092B093C094D0930
ENCODING -1
SWIDTH 741 0
DWIDTH 6 0
BBX 6 6 0 -1
BITMAP
967755
513752
413406
039452
173300
020000
ENDCHAR
STARTCHAR uni092F093C094D0930
ENCODING -1
SWIDTH 564 0
DWIDTH 5 0
BBX 5 6 0 -1
BITMAP
595930
041600
460600
259800
053600
003000
ENDCHAR
STARTCHAR uni0915094D0930094D
ENCODING -1
SWIDTH 518 0
DWIDTH 4 0
BBX 6 6 0 -1
BITMAP
558651
265660
604200
605100
279100
030000
ENDCHAR
STARTCHAR uni0916094D0930094D
ENCODING -1
SWIDTH 469 0
DWIDTH 4 0
BBX 5 6 0 -1
BITMAP
596530
052500
666010
342750
061700
002100
ENDCHAR
STARTCHAR uni0917094D0930094D
ENCODING -1
SWIDTH 264 0
DWIDTH 2 0
BBX 3 5 0 0
BITMAP
5910
0600
0600
5260
1600
ENDCHAR
STARTCHAR uni0918094D0930094D
ENCODING -1
SWIDTH 319 0
DWIDTH 3 0
BBX 4 6 0 -1
BITMAP
8752
6000
3710
6000
2683
0420
ENDCHAR
STARTCHAR uni091A094D0930094D
ENCODING -1
SWIDTH 331 0
DWIDTH 3 0
BBX 4 5 0 0
BITMAP
5551
4830
2400
0683
0320
ENDCHAR
STARTCHAR uni091C094D0930094D
ENCODING -1
SWIDTH 312 0
DWIDTH 3 0
BBX 4 6 0 -1
BITMAP
5552
2852
0330
0332
4652
0220
ENDCHAR
STARTCHAR uni091D094D0930094D
ENCODING -1
SWIDTH 441 0
DWIDTH 4 0
BBX 5 6 0 -1
BITMAP
559520
266000
600000
267540
657340
501600
ENDCHAR
STARTCHAR uni091E094D0930094D
ENCODING -1
SWIDTH 374 0
DWIDTH 3 0
BBX 4 5 0 0
BITMAP
5554
3610
0187
3628
0071
ENDCHAR
STARTCHAR uni091F094D0930094D
ENCODING -1
SWIDTH 485 0
DWIDTH 4 0
BBX 4 7 0 -2
BITMAP
5595
1670
6000
6006
3663
0551
0060
ENDCHAR
STARTCHAR uni0920094D0930094D
ENCODING -1
SWIDTH 512 0
DWIDTH 4 0
BBX 5 7 0 -2
BITMAP
558710
168200
600600
600600
366400
065100
006000
ENDCHAR
STARTCHAR uni0921094D0930094D
ENCODING -1
SWIDTH 475 0
DWIDTH 4 0
BBX 4 8 0 -3
BITMAP
5585
2670
6000
2651
4563
0770
1151
0030
ENDCHAR
STARTCHAR uni0922094D0930094D
ENCODING -1
SWIDTH 485 0
DWIDTH 4 0
BBX 4 8 0 -3
BITMAP
5586
1671
6000
6063
3664
0761
0151
0030
ENDCHAR
STARTCHAR uni0923094D0930094D
ENCODING -1
SWIDTH 457 0
DWIDTH 4 0
BBX 5 5 0 0
BITMAP
969400
506000
516020
165520
004300
ENDCHAR
STARTCHAR uni0924094D0930094D
ENCODING -1
SWIDTH 268 0
DWIDTH 2 0
BBX 4 5 0 0
BITMAP
5552
2660
6032
0160
2600
ENDCHAR
STARTCHAR uni0925094D0930094D
ENCODING -1
SWIDTH 358 0
DWIDTH 3 0
BBX 4 5 0 0
BITMAP
2750
2160
5630
3585
0430
ENDCHAR
STARTCHAR uni0926094D0930094D
ENCODING -1
SWIDTH 489 0
DWIDTH 4 0
BBX 4 7 0 -2
BITMAP
5577
1662
6000
6015
1785
0240
0012
ENDCHAR
STARTCHAR uni0927094D0930094D
ENCODING -1
SWIDTH 322 0
DWIDTH 3 0
BBX 4 6 0 -1
BITMAP
8622
6000
3810
6000
2683
0320
ENDCHAR
STARTCHAR uni0928094D0930094D
ENCODING -1
SWIDTH 247 0
DWIDTH 2 0
BBX 3 5 0 0
BITMAP
5550
0000
4570
4150
1500
ENDCHAR
STARTCHAR uni092A094D0930094D
ENCODING -1
SWIDTH 270 0
DWIDTH 2 0
BBX 3 5 0 0
BITMAP
9640
5100
5100
1670
1600
ENDCHAR
STARTCHAR uni092B094D0930094D
ENCODING -1
SWIDTH 523 0
DWIDTH 4 0
BBX 7 5 -1 0
BITMAP
19586510
06047610
06052000
027A2000
01542000
ENDCHAR
STARTCHAR uni092C094D0930094D
ENCODING -1
SWIDTH 267 0
DWIDTH 2 0
BBX 4 6 0 -1
BITMAP
5550
2610
6600
6161
2770
0500
ENDCHAR
STARTCHAR uni092D094D0930094D
ENCODING -1
SWIDTH 257 0
DWIDTH 2 0
BBX 3 5 0 0
BITMAP
7050
5000
5670
3250
1600
ENDCHAR
STARTCHAR uni092E094D0930094D
ENCODING -1
SWIDTH 261 0
DWIDTH 2 0
BBX 3 5 0 0
BITMAP
9550
6000
6670
3250
1600
ENDCHAR
STARTCHAR uni092F094D0930094D
ENCODING -1
SWIDTH 323 0
DWIDTH 3 0
BBX 4 5 0 0
BITMAP
5960
4600
6001
1683
0520
ENDCHAR
STARTCHAR uni0935094D0930094D
ENCODING -1
SWIDTH 255 0
DWIDTH 2 0
BBX 3 6 0 -1
BITMAP
5530
2610
6000
6000
2770
0500
ENDCHAR
STARTCHAR uni0938094D0930094D
ENCODING -1
SWIDTH 347 0
DWIDTH 3 0
BBX 4 5 0 0
BITMAP
5952
0600
6856
3352
0620
ENDCHAR
STARTCHAR uni0915093C094D0930094D
ENCODING -1
SWIDTH 518 0
DWIDTH 4 0
BBX 6 6 0 -1
BITMAP
558651
265660
604200
605100
279100
031000
ENDCHAR
STARTCHAR uni0916093C094D0930094D
ENCODING -1
SWIDTH 466 0
DWIDTH 4 0
BBX 5 6 0 -1
BITMAP
596530
052500
666010
342750
061600
001300
ENDCHAR
STARTCHAR uni0917093C094D0930094D
ENCODING -1
SWIDTH 264 0
DWIDTH 2 0
BBX 3 6 0 -1
BITMAP
5910
0600
0600
5260
1600
0210
ENDCHAR
STARTCHAR uni091C093C094D0930094D
ENCODING -1
SWIDTH 320 0
DWIDTH 3 0
BBX 4 6 0 -1
BITMAP
5552
2852
0330
0333
4661
3110
ENDCHAR
STARTCHAR uni0928093C094D0930094D
ENCODING -1
SWIDTH 247 0
DWIDTH 2 0
BBX 3 6 0 -1
BITMAP
5550
0000
4570
4150
1500
0300
ENDCHAR
STARTCHAR uni092B093C094D0930094D
ENCODING -1
SWIDTH 523 0
DWIDTH 4 0
BBX 7 6 -1 -1
BITMAP
19586510
06047610
06052000
027A2000
01542000
00300000
ENDCHAR
STARTCHAR uni092F093C094D0930094D
ENCODING -1
SWIDTH 323 0
DWIDTH 3 0
BBX 4 6 0 -1
BITMAP
5960
4600
6001
1683
0520
0030
ENDCHAR
STARTCHAR uni0915094D0915
ENCODING -1
SWIDTH 1255 0
DWIDTH 10 0
BBX 11 5 0 0
BITMAP
558655685510
265666286200
604242150600
605142150600
268106656200
ENDCHAR
STARTCHAR uni0915094D0916
ENCODING -1
SWIDTH 1256 0
DWIDTH 10 0
BBX 11 5 0 0
BITMAP
558655956810
265660653500
604248361500
604107056500
267101501500
ENDCHAR
STARTCHAR uni0915094D091A
ENCODING -1
SWIDTH 1086 0
DWIDTH 9 0
BBX 9 5 0 0
BITMAP
5586555940
2043484600
6041060600
6051055900
2671000600
ENDCHAR
STARTCHAR uni0915094D091C
ENCODING -1
SWIDTH 1071 0
DWIDTH 9 0
BBX 9 5 0 0
BITMAP
5586555930
2046376800
6042006600
6051006600
2681361500
ENDCHAR
STARTCHAR uni0915094D091F
ENCODING -1
SWIDTH 984 0
DWIDTH 8 0
BBX 8 5 0 0
BITMAP
55865595
26565570
60426000
60516004
26813664
ENDCHAR
STARTCHAR uni0915094D0923
ENCODING -1
SWIDTH 1183 0
DWIDTH 9 0
BBX 10 5 0 0
BITMAP
5586869593
2656816060
6042416060
6051165060
2681000060
ENDCHAR
STARTCHAR uni0915094D0924
ENCODING -1
SWIDTH 761 0
DWIDTH 6 0
BBX 7 5 0 0
BITMAP
55595510
38596200
15060600
15060600
06265200
ENDCHAR
STARTCHAR uni0915094D0925
ENCODING -1
SWIDTH 1118 0
DWIDTH 9 0
BBX 9 5 0 0
BITMAP
5586276270
2146775330
6042420330
6051065730
2671000230
ENDCHAR
STARTCHAR uni0915094D0926
ENCODING -1
SWIDTH 1009 0
DWIDTH 8 0
BBX 9 5 0 0
BITMAP
5586556910
2656665300
6042420000
6051420600
2681066600
ENDCHAR
STARTCHAR uni0915094D092A
ENCODING -1
SWIDTH 1007 0
DWIDTH 8 0
BBX 9 5 0 0
BITMAP
5586866810
2656811500
6042412500
6051166500
2681001500
ENDCHAR
STARTCHAR uni0915094D092B
ENCODING -1
SWIDTH 1242 0
DWIDTH 10 0
BBX 10 5 0 0
BITMAP
5586867755
2656812861
6042423406
6051167306
2681002461
ENDCHAR
STARTCHAR uni0915094D092E
ENCODING -1
SWIDTH 994 0
DWIDTH 8 0
BBX 8 5 0 0
BITMAP
55869677
26569133
60425673
60515133
26810023
ENDCHAR
STARTCHAR uni0915094D092F
ENCODING -1
SWIDTH 1076 0
DWIDTH 9 0
BBX 9 5 0 0
BITMAP
5586587940
2047761600
6042510600
6051165800
2671000600
ENDCHAR
STARTCHAR uni0915094D0932
ENCODING -1
SWIDTH 1178 0
DWIDTH 9 0
BBX 10 5 0 0
BITMAP
5586555593
2656555680
6042506070
6051604060
2581361060
ENDCHAR
STARTCHAR uni0915094D0935
ENCODING -1
SWIDTH 1013 0
DWIDTH 8 0
BBX 9 5 0 0
BITMAP
5586555910
2656662600
6042430600
6051431600
2681066600
ENDCHAR
STARTCHAR uni0915094D0936
ENCODING -1
SWIDTH 1194 0
DWIDTH 10 0
BBX 10 5 0 0
BITMAP
5586367363
2656621560
6042286160
6051060060
2681006060
ENDCHAR
STARTCHAR uni0915094D0938
ENCODING -1
SWIDTH 1143 0
DWIDTH 9 0
BBX 10 5 0 0
BITMAP
5586559591
2656616060
6042397560
6051060060
2681024060
ENDCHAR
STARTCHAR uni0916094D0916
ENCODING -1
SWIDTH 1223 0
DWIDTH 10 0
BBX 10 5 0 0
BITMAP
5965568585
0535024651
6660564351
3426551691
0610043051
ENDCHAR
STARTCHAR uni0916094D0924
ENCODING -1
SWIDTH 984 0
DWIDTH 8 0
BBX 8 5 0 0
BITMAP
59655586
05353682
66606042
34268042
06104442
ENDCHAR
STARTCHAR uni0916094D092E
ENCODING -1
SWIDTH 965 0
DWIDTH 8 0
BBX 8 5 0 0
BITMAP
59659594
05356060
66607590
34265060
06100060
ENDCHAR
STARTCHAR uni0916094D092F
ENCODING -1
SWIDTH 1047 0
DWIDTH 8 0
BBX 9 5 0 0
BITMAP
59655A5920
0535050600
6660410600
3426656700
0610000500
ENDCHAR
STARTCHAR uni0916094D0935
ENCODING -1
SWIDTH 975 0
DWIDTH 8 0
BBX 8 5 0 0
BITMAP
59655585
05353651
66606051
34257051
06101681
ENDCHAR
STARTCHAR uni0916094D0936
ENCODING -1
SWIDTH 1123 0
DWIDTH 9 0
BBX 9 5 0 0
BITMAP
5965376280
0535206240
6660654240
3426620240
0610060240
ENDCHAR
STARTCHAR uni0917094D0917
ENCODING -1
SWIDTH 744 0
DWIDTH 6 0
BBX 6 5 0 0
BITMAP
595977
060633
060633
525233
000023
ENDCHAR
STARTCHAR uni0917094D0918
ENCODING -1
SWIDTH 823 0
DWIDTH 7 0
BBX 7 5 0 0
BITMAP
59785930
06420600
06181600
52420700
00166900
ENDCHAR
STARTCHAR uni0917094D091C
ENCODING -1
SWIDTH 801 0
DWIDTH 6 0
BBX 7 5 0 0
BITMAP
59555930
06286700
06033600
52033600
00460600
ENDCHAR
STARTCHAR uni0917094D0923
ENCODING -1
SWIDTH 945 0
DWIDTH 8 0
BBX 8 5 0 0
BITMAP
59878693
06425160
06335160
52066060
00000060
ENDCHAR
STARTCHAR uni0917094D0926
ENCODING -1
SWIDTH 748 0
DWIDTH 6 0
BBX 6 5 0 0
BITMAP
595568
061662
065100
525106
001666
ENDCHAR
STARTCHAR uni0917094D0927
ENCODING -1
SWIDTH 823 0
DWIDTH 7 0
BBX 7 5 0 0
BITMAP
59772930
06420600
06182600
52420700
00166900
ENDCHAR
STARTCHAR uni0917094D092C
ENCODING -1
SWIDTH 755 0
DWIDTH 6 0
BBX 7 5 0 0
BITMAP
59556810
06163500
06562500
52516500
00166500
ENDCHAR
STARTCHAR uni0917094D092D
ENCODING -1
SWIDTH 755 0
DWIDTH 6 0
BBX 7 5 0 0
BITMAP
59715810
06421400
06476400
41321400
00001400
ENDCHAR
STARTCHAR uni0917094D092E
ENCODING -1
SWIDTH 754 0
DWIDTH 6 0
BBX 7 5 0 0
BITMAP
59866810
06421400
06466400
41321400
00001400
ENDCHAR
STARTCHAR uni0917094D092F
ENCODING -1
SWIDTH 828 0
DWIDTH 7 0
BBX 7 5 0 0
BITMAP
59586940
06033600
05360600
10155900
00000600
ENDCHAR
STARTCHAR uni0917094D0932
ENCODING -1
SWIDTH 924 0
DWIDTH 7 0
BBX 8 5 0 0
BITMAP
59555592
06165670
05606060
20603060
00361060
ENDCHAR
STARTCHAR uni0917094D0935
ENCODING -1
SWIDTH 747 0
DWIDTH 6 0
BBX 6 5 0 0
BITMAP
595568
061634
065124
525134
001674
ENDCHAR
STARTCHAR uni0917094D0938
ENCODING -1
SWIDTH 839 0
DWIDTH 7 0
BBX 7 5 0 0
BITMAP
59595940
06060600
06585900
52240600
00060600
ENDCHAR
STARTCHAR uni0918094D092E
ENCODING -1
SWIDTH 818 0
DWIDTH 7 0
BBX 7 5 0 0
BITMAP
86595930
50060600
37185800
60060600
26630600
ENDCHAR
STARTCHAR uni0918094D092F
ENCODING -1
SWIDTH 867 0
DWIDTH 7 0
BBX 7 5 0 0
BITMAP
87569770
60006330
37172330
600A5730
26620330
ENDCHAR
STARTCHAR uni091A094D091A
ENCODING -1
SWIDTH 868 0
DWIDTH 7 0
BBX 7 5 0 0
BITMAP
55555770
48286330
24060330
06565730
00000330
ENDCHAR
STARTCHAR uni091A094D091B
ENCODING -1
SWIDTH 922 0
DWIDTH 7 0
BBX 8 5 0 0
BITMAP
55596592
00060060
15055060
24060060
05586660
ENDCHAR
STARTCHAR uni091A094D092E
ENCODING -1
SWIDTH 830 0
DWIDTH 7 0
BBX 7 5 0 0
BITMAP
55595940
48360600
24075900
06640600
00000600
ENDCHAR
STARTCHAR uni091A094D092F
ENCODING -1
SWIDTH 904 0
DWIDTH 7 0
BBX 8 5 0 0
BITMAP
55559592
48306060
24064060
06555660
00000060
ENDCHAR
STARTCHAR uni091B094D092F
ENCODING -1
SWIDTH 1068 0
DWIDTH 9 0
BBX 9 5 0 0
BITMAP
8755555930
5028552600
2305262600
6005240700
3658055800
ENDCHAR
STARTCHAR uni091B094D0935
ENCODING -1
SWIDTH 581 0
DWIDTH 5 0
BBX 5 6 0 -1
BITMAP
875940
512800
370510
285800
240600
065400
ENDCHAR
STARTCHAR uni091C094D0915
ENCODING -1
SWIDTH 1054 0
DWIDTH 8 0
BBX 9 5 0 0
BITMAP
5555595530
2857070200
0336060500
0336060600
4604673500
ENDCHAR
STARTCHAR uni091C094D091C
ENCODING -1
SWIDTH 903 0
DWIDTH 7 0
BBX 8 5 0 0
BITMAP
55555592
28628560
03305160
03305160
46056050
ENDCHAR
STARTCHAR uni091C094D091D
ENCODING -1
SWIDTH 990 0
DWIDTH 8 0
BBX 8 5 0 0
BITMAP
55555977
28560233
03345773
03340633
46095533
ENDCHAR
STARTCHAR uni091C094D091F
ENCODING -1
SWIDTH 815 0
DWIDTH 7 0
BBX 7 5 0 0
BITMAP
55555930
00045500
28680000
03360210
46075700
ENDCHAR
STARTCHAR uni091C094D0921
ENCODING -1
SWIDTH 797 0
DWIDTH 6 0
BBX 7 5 0 0
BITMAP
55555920
28585500
04260000
04245500
46055700
ENDCHAR
STARTCHAR uni091C094D0924
ENCODING -1
SWIDTH 830 0
DWIDTH 7 0
BBX 7 5 0 0
BITMAP
55555940
38676900
04260600
04260600
46063500
ENDCHAR
STARTCHAR uni091C094D0926
ENCODING -1
SWIDTH 817 0
DWIDTH 7 0
BBX 7 5 0 0
BITMAP
55555930
28595600
03360000
03360600
46046900
ENDCHAR
STARTCHAR uni091C094D092C
ENCODING -1
SWIDTH 820 0
DWIDTH 7 0
BBX 7 5 0 0
BITMAP
55555930
28581600
03366600
03361A00
46045800
ENDCHAR
STARTCHAR uni091C094D092E
ENCODING -1
SWIDTH 813 0
DWIDTH 7 0
BBX 7 5 0 0
BITMAP
55595930
28570600
03385800
03340600
46000600
ENDCHAR
STARTCHAR uni091C094D092F
ENCODING -1
SWIDTH 893 0
DWIDTH 7 0
BBX 8 5 0 0
BITMAP
55559591
28536060
04274060
04235660
46000060
ENDCHAR
STARTCHAR uni091C094D0935
ENCODING -1
SWIDTH 813 0
DWIDTH 7 0
BBX 7 5 0 0
BITMAP
55555930
28570600
03360600
03360600
46046800
ENDCHAR
STARTCHAR uni091D094D092E
ENCODING -1
SWIDTH 936 0
DWIDTH 7 0
BBX 8 5 0 0
BITMAP
55959593
35606060
35859580
50613060
66800050
ENDCHAR
STARTCHAR uni091D094D092F
ENCODING -1
SWIDTH 1000 0
DWIDTH 8 0
BBX 8 5 0 0
BITMAP
55956968
35600524
35854124
50615574
66800024
ENDCHAR
STARTCHAR uni091E094D091B
ENCODING -1
SWIDTH 913 0
DWIDTH 7 0
BBX 8 5 0 0
BITMAP
555A5592
36160060
028A4050
02360060
35066660
ENDCHAR
STARTCHAR uni091E094D091C
ENCODING -1
SWIDTH 932 0
DWIDTH 7 0
BBX 8 5 0 0
BITMAP
55555593
25128680
01812460
01302460
35036160
ENDCHAR
STARTCHAR uni091E094D0936
ENCODING -1
SWIDTH 975 0
DWIDTH 8 0
BBX 8 5 0 0
BITMAP
55446555
36140651
01985351
01433051
36006051
ENDCHAR
STARTCHAR uni091F094D091F
ENCODING -1
SWIDTH 494 0
DWIDTH 4 0
BBX 4 8 0 -3
BITMAP
5595
2670
6003
2682
0490
6200
6005
2661
ENDCHAR
STARTCHAR uni091F094D0920
ENCODING -1
SWIDTH 495 0
DWIDTH 4 0
BBX 4 8 0 -3
BITMAP
5595
2670
6003
2573
0481
5225
6006
1662
ENDCHAR
STARTCHAR uni091F094D092F
ENCODING -1
SWIDTH 990 0
DWIDTH 8 0
BBX 8 5 0 0
BITMAP
55955577
16755433
60000633
60036433
36645583
ENDCHAR
STARTCHAR uni091F094D0935
ENCODING -1
SWIDTH 501 0
DWIDTH 4 0
BBX 4 6 0 -1
BITMAP
5586
2671
6003
3856
5115
1661
ENDCHAR
STARTCHAR uni0920094D092F
ENCODING -1
SWIDTH 998 0
DWIDTH 8 0
BBX 8 5 0 0
BITMAP
55865568
15855424
60070624
60066424
36645574
ENDCHAR
STARTCHAR uni0921094D0921
ENCODING -1
SWIDTH 493 0
DWIDTH 4 0
BBX 4 8 0 -3
BITMAP
5586
3571
2561
4015
4761
2561
4015
2661
ENDCHAR
STARTCHAR uni0921094D0922
ENCODING -1
SWIDTH 493 0
DWIDTH 4 0
BBX 4 7 0 -2
BITMAP
5586
3571
2561
4015
3892
6156
3664
ENDCHAR
STARTCHAR uni0921094D092F
ENCODING -1
SWIDTH 973 0
DWIDTH 8 0
BBX 8 5 0 0
BITMAP
55865595
26755351
60000651
26518361
35634591
ENDCHAR
STARTCHAR uni0921094D0935
ENCODING -1
SWIDTH 493 0
DWIDTH 4 0
BBX 4 6 0 -1
BITMAP
5586
3571
2562
4015
3765
2561
ENDCHAR
STARTCHAR uni0922094D092F
ENCODING -1
SWIDTH 981 0
DWIDTH 8 0
BBX 8 5 0 0
BITMAP
55865586
16765442
60630642
61457442
36646592
ENDCHAR
STARTCHAR uni0923094D091F
ENCODING -1
SWIDTH 908 0
DWIDTH 7 0
BBX 8 5 0 0
BITMAP
96955592
50605540
51615000
16515040
00007560
ENDCHAR
STARTCHAR uni0923094D0920
ENCODING -1
SWIDTH 936 0
DWIDTH 7 0
BBX 8 5 0 0
BITMAP
96955593
50605660
51615060
16515060
00008560
ENDCHAR
STARTCHAR uni0923094D0921
ENCODING -1
SWIDTH 892 0
DWIDTH 7 0
BBX 8 5 0 0
BITMAP
96955591
50606540
51615000
16501030
00017560
ENDCHAR
STARTCHAR uni0923094D0922
ENCODING -1
SWIDTH 908 0
DWIDTH 7 0
BBX 8 5 0 0
BITMAP
96955592
50605540
51615000
16515220
00007570
ENDCHAR
STARTCHAR uni0923094D0923
ENCODING -1
SWIDTH 1127 0
DWIDTH 9 0
BBX 10 5 0 0
BITMAP
9695959681
5060606140
5160606140
1650462140
0000000140
ENDCHAR
STARTCHAR uni0923094D092E
ENCODING -1
SWIDTH 932 0
DWIDTH 7 0
BBX 8 5 0 0
BITMAP
96959593
50606060
51608580
17504060
00000060
ENDCHAR
STARTCHAR uni0923094D092F
ENCODING -1
SWIDTH 998 0
DWIDTH 8 0
BBX 8 5 0 0
BITMAP
96956978
50600624
41507334
00105574
00000024
ENDCHAR
STARTCHAR uni0923094D0935
ENCODING -1
SWIDTH 923 0
DWIDTH 7 0
BBX 8 5 0 0
BITMAP
96955592
50605460
51606060
16506060
00005670
ENDCHAR
STARTCHAR uni0924094D0915
ENCODING -1
SWIDTH 992 0
DWIDTH 8 0
BBX 8 5 0 0
BITMAP
55557755
26722511
60602306
60513306
45167461
ENDCHAR
STARTCHAR uni0924094D0916
ENCODING -1
SWIDTH 1014 0
DWIDTH 8 0
BBX 9 5 0 0
BITMAP
5555955910
2660652600
6038360600
6007055600
4501600500
ENDCHAR
STARTCHAR uni0924094D0924
ENCODING -1
SWIDTH 542 0
DWIDTH 4 0
BBX 5 5 0 0
BITMAP
555920
485700
150600
240600
081500
ENDCHAR
STARTCHAR uni0924094D0925
ENCODING -1
SWIDTH 869 0
DWIDTH 7 0
BBX 7 5 0 0
BITMAP
55276270
00126330
25764330
60155730
45000230
ENDCHAR
STARTCHAR uni0924094D092A
ENCODING -1
SWIDTH 757 0
DWIDTH 6 0
BBX 7 5 0 0
BITMAP
55866810
26811500
60412500
60066500
45001500
ENDCHAR
STARTCHAR uni0924094D092B
ENCODING -1
SWIDTH 992 0
DWIDTH 8 0
BBX 8 5 0 0
BITMAP
55867755
26812511
60423305
60067306
45002461
ENDCHAR
STARTCHAR uni0924094D092E
ENCODING -1
SWIDTH 764 0
DWIDTH 6 0
BBX 7 5 0 0
BITMAP
55775910
26730600
60375600
60220600
45000600
ENDCHAR
STARTCHAR uni0924094D092F
ENCODING -1
SWIDTH 830 0
DWIDTH 7 0
BBX 7 5 0 0
BITMAP
55586940
00023600
25770600
60155900
45000600
ENDCHAR
STARTCHAR uni0924094D0932
ENCODING -1
SWIDTH 957 0
DWIDTH 8 0
BBX 8 5 0 0
BITMAP
55555594
25566690
60335160
60332060
45172060
ENDCHAR
STARTCHAR uni0924094D0935
ENCODING -1
SWIDTH 751 0
DWIDTH 6 0
BBX 6 5 0 0
BITMAP
555568
267324
605124
605124
451674
ENDCHAR
STARTCHAR uni0924094D0938
ENCODING -1
SWIDTH 876 0
DWIDTH 7 0
BBX 7 5 0 0
BITMAP
55568680
26524240
60486740
60060240
45043240
ENDCHAR
STARTCHAR uni0925094D092F
ENCODING -1
SWIDTH 931 0
DWIDTH 7 0
BBX 8 5 0 0
BITMAP
27549593
31605060
56355070
35555680
00000060
ENDCHAR
STARTCHAR uni0925094D0935
ENCODING -1
SWIDTH 862 0
DWIDTH 7 0
BBX 7 5 0 0
BITMAP
27545770
21626430
56360330
35570430
00005720
ENDCHAR
STARTCHAR uni0926094D0917
ENCODING -1
SWIDTH 489 0
DWIDTH 4 0
BBX 4 6 0 -1
BITMAP
5577
2562
6001
2865
0615
3400
ENDCHAR
STARTCHAR uni0926094D0918
ENCODING -1
SWIDTH 686 0
DWIDTH 5 0
BBX 6 6 0 -1
BITMAP
555593
003560
456000
656060
607690
356000
ENDCHAR
STARTCHAR uni0926094D0926
ENCODING -1
SWIDTH 506 0
DWIDTH 4 0
BBX 5 6 0 -1
BITMAP
556810
166300
500000
372000
465600
000500
ENDCHAR
STARTCHAR uni0926094D0927
ENCODING -1
SWIDTH 686 0
DWIDTH 5 0
BBX 6 6 0 -1
BITMAP
555593
004560
436000
656060
606690
356000
ENDCHAR
STARTCHAR uni0926094D092C
ENCODING -1
SWIDTH 481 0
DWIDTH 4 0
BBX 4 6 0 -1
BITMAP
5577
1662
6000
6014
3A75
2561
ENDCHAR
STARTCHAR uni0926094D092D
ENCODING -1
SWIDTH 499 0
DWIDTH 4 0
BBX 4 7 0 -2
BITMAP
5578
2662
5112
4234
0524
0864
0011
ENDCHAR
STARTCHAR uni0926094D092E
ENCODING -1
SWIDTH 706 0
DWIDTH 6 0
BBX 6 5 0 0
BITMAP
559594
357060
601060
006680
005160
ENDCHAR
STARTCHAR uni0926094D092F
ENCODING -1
SWIDTH 583 0
DWIDTH 5 0
BBX 5 5 0 0
BITMAP
559940
254600
371600
500600
365900
ENDCHAR
STARTCHAR uni0926094D0935
ENCODING -1
SWIDTH 483 0
DWIDTH 4 0
BBX 4 6 0 -1
BITMAP
5577
1662
6000
6014
3865
2651
ENDCHAR
STARTCHAR uni0927094D092E
ENCODING -1
SWIDTH 817 0
DWIDTH 7 0
BBX 7 5 0 0
BITMAP
86195930
50060600
33085800
60060600
26630600
ENDCHAR
STARTCHAR uni0927094D092F
ENCODING -1
SWIDTH 886 0
DWIDTH 7 0
BBX 8 5 0 0
BITMAP
86169591
60006050
37173150
60075650
26610050
ENDCHAR
STARTCHAR uni0927094D0935
ENCODING -1
SWIDTH 810 0
DWIDTH 6 0
BBX 7 5 0 0
BITMAP
86155930
60044600
37160600
60060600
26566800
ENDCHAR
STARTCHAR uni0928094D0915
ENCODING -1
SWIDTH 973 0
DWIDTH 8 0
BBX 8 5 0 0
BITMAP
55558654
00265660
45805124
40605124
00269260
ENDCHAR
STARTCHAR uni0928094D091A
ENCODING -1
SWIDTH 820 0
DWIDTH 7 0
BBX 7 5 0 0
BITMAP
55555930
00383600
45450600
40055800
00000600
ENDCHAR
STARTCHAR uni0928094D091B
ENCODING -1
SWIDTH 781 0
DWIDTH 6 0
BBX 7 5 0 0
BITMAP
55955920
00600600
45A40600
40600600
00666600
ENDCHAR
STARTCHAR uni0928094D091F
ENCODING -1
SWIDTH 715 0
DWIDTH 6 0
BBX 6 5 0 0
BITMAP
555594
001560
457000
406002
005672
ENDCHAR
STARTCHAR uni0928094D0921
ENCODING -1
SWIDTH 705 0
DWIDTH 6 0
BBX 6 5 0 0
BITMAP
555594
002560
458000
401230
005571
ENDCHAR
STARTCHAR uni0928094D0924
ENCODING -1
SWIDTH 717 0
DWIDTH 6 0
BBX 6 5 0 0
BITMAP
555594
001690
456060
406060
006360
ENDCHAR
STARTCHAR uni0928094D0925
ENCODING -1
SWIDTH 804 0
DWIDTH 6 0
BBX 7 5 0 0
BITMAP
54572730
00314600
45761700
20556800
00000600
ENDCHAR
STARTCHAR uni0928094D0926
ENCODING -1
SWIDTH 724 0
DWIDTH 6 0
BBX 6 5 0 0
BITMAP
555585
002571
458000
406033
002683
ENDCHAR
STARTCHAR uni0928094D0927
ENCODING -1
SWIDTH 753 0
DWIDTH 6 0
BBX 7 5 0 0
BITMAP
55A26810
00601400
45A41400
40602400
00557400
ENDCHAR
STARTCHAR uni0928094D092A
ENCODING -1
SWIDTH 742 0
DWIDTH 6 0
BBX 6 5 0 0
BITMAP
559577
006033
459033
402673
000033
ENDCHAR
STARTCHAR uni0928094D092B
ENCODING -1
SWIDTH 970 0
DWIDTH 8 0
BBX 8 5 0 0
BITMAP
55959654
00605660
45906134
40269134
00005260
ENDCHAR
STARTCHAR uni0928094D092D
ENCODING -1
SWIDTH 739 0
DWIDTH 6 0
BBX 6 5 0 0
BITMAP
557077
006033
459573
404033
000033
ENDCHAR
STARTCHAR uni0928094D092E
ENCODING -1
SWIDTH 735 0
DWIDTH 6 0
BBX 6 5 0 0
BITMAP
559586
006042
459582
404042
000032
ENDCHAR
STARTCHAR uni0928094D092F
ENCODING -1
SWIDTH 801 0
DWIDTH 6 0
BBX 7 5 0 0
BITMAP
555A5930
00060600
45750600
20356700
00000600
ENDCHAR
STARTCHAR uni0928094D0935
ENCODING -1
SWIDTH 732 0
DWIDTH 6 0
BBX 6 5 0 0
BITMAP
555586
001642
458042
406042
002682
ENDCHAR
STARTCHAR uni0928094D0938
ENCODING -1
SWIDTH 867 0
DWIDTH 7 0
BBX 7 5 0 0
BITMAP
55577770
00033330
30486730
20060330
00052330
ENDCHAR
STARTCHAR uni0928094D0939
ENCODING -1
SWIDTH 714 0
DWIDTH 6 0
BBX 6 6 0 -1
BITMAP
555594
002570
305660
206021
006000
001550
ENDCHAR
STARTCHAR uni092A094D091F
ENCODING -1
SWIDTH 489 0
DWIDTH 4 0
BBX 4 5 0 0
BITMAP
9568
5115
3862
6003
4664
ENDCHAR
STARTCHAR uni092A094D0920
ENCODING -1
SWIDTH 506 0
DWIDTH 4 0
BBX 5 5 0 0
BITMAP
955910
510600
388300
600600
466400
ENDCHAR
STARTCHAR uni092A094D0924
ENCODING -1
SWIDTH 495 0
DWIDTH 4 0
BBX 4 5 0 0
BITMAP
9577
6023
3873
6023
4423
ENDCHAR
STARTCHAR uni092A094D092A
ENCODING -1
SWIDTH 770 0
DWIDTH 6 0
BBX 7 5 0 0
BITMAP
96775910
51330600
51330600
16666600
00000600
ENDCHAR
STARTCHAR uni092A094D092B
ENCODING -1
SWIDTH 1003 0
DWIDTH 8 0
BBX 9 5 0 0
BITMAP
9687685510
5142186200
5133250600
1656650600
0000156200
ENDCHAR
STARTCHAR uni092A094D092E
ENCODING -1
SWIDTH 774 0
DWIDTH 6 0
BBX 7 5 0 0
BITMAP
96685910
51140600
51285600
15630600
00000600
ENDCHAR
STARTCHAR uni092A094D092F
ENCODING -1
SWIDTH 855 0
DWIDTH 7 0
BBX 7 5 0 0
BITMAP
96568860
51006420
41172520
01265820
00000420
ENDCHAR
STARTCHAR uni092A094D0932
ENCODING -1
SWIDTH 960 0
DWIDTH 8 0
BBX 8 5 0 0
BITMAP
96555594
51065690
51245160
16732060
00072060
ENDCHAR
STARTCHAR uni092A094D0935
ENCODING -1
SWIDTH 780 0
DWIDTH 6 0
BBX 7 5 0 0
BITMAP
96555920
51063600
51250600
16640600
00056600
ENDCHAR
STARTCHAR uni092A094D0938
ENCODING -1
SWIDTH 880 0
DWIDTH 7 0
BBX 8 5 0 0
BITMAP
96568681
51024140
51386640
16670140
00043140
ENDCHAR
STARTCHAR uni092B094D091C
ENCODING -1
SWIDTH 1100 0
DWIDTH 9 0
BBX 9 5 0 0
BITMAP
9677555850
5138447810
5134006510
1673006510
0033263510
ENDCHAR
STARTCHAR uni092B094D091F
ENCODING -1
SWIDTH 1006 0
DWIDTH 8 0
BBX 9 5 0 0
BITMAP
9677557710
5137566200
5133420000
1783420400
0033176500
ENDCHAR
STARTCHAR uni092B094D0924
ENCODING -1
SWIDTH 1034 0
DWIDTH 8 0
BBX 9 5 0 0
BITMAP
9677555920
5135175700
5133240600
1673330600
0033181500
ENDCHAR
STARTCHAR uni092B094D092A
ENCODING -1
SWIDTH 1021 0
DWIDTH 8 0
BBX 9 5 0 0
BITMAP
9677775910
5138730600
5134330600
1783076600
0033000600
ENDCHAR
STARTCHAR uni092B094D092B
ENCODING -1
SWIDTH 1256 0
DWIDTH 10 0
BBX 11 5 0 0
BITMAP
967777685510
513873196200
513433150600
167306650600
003300156200
ENDCHAR
STARTCHAR uni092B094D092F
ENCODING -1
SWIDTH 1120 0
DWIDTH 9 0
BBX 9 5 0 0
BITMAP
9677578940
5137672600
4134330600
0153065900
0033000600
ENDCHAR
STARTCHAR uni092B094D0932
ENCODING -1
SWIDTH 1202 0
DWIDTH 10 0
BBX 10 5 0 0
BITMAP
9677555594
5137565690
5133336160
1673323060
0033172060
ENDCHAR
STARTCHAR uni092B094D0936
ENCODING -1
SWIDTH 1211 0
DWIDTH 10 0
BBX 10 5 0 0
BITMAP
9677556464
5138630660
5133386260
1673070060
0033015060
ENDCHAR
STARTCHAR uni092C094D091C
ENCODING -1
SWIDTH 883 0
DWIDTH 7 0
BBX 8 5 0 0
BITMAP
55555681
23048650
65106150
60606150
26755150
ENDCHAR
STARTCHAR uni092C094D091D
ENCODING -1
SWIDTH 962 0
DWIDTH 8 0
BBX 8 6 0 -1
BITMAP
55557794
26266160
63576790
25600660
00096450
00030000
ENDCHAR
STARTCHAR uni092C094D0924
ENCODING -1
SWIDTH 786 0
DWIDTH 6 0
BBX 7 5 0 0
BITMAP
55555920
12065700
54340600
60740600
25681500
ENDCHAR
STARTCHAR uni092C094D0926
ENCODING -1
SWIDTH 775 0
DWIDTH 6 0
BBX 7 5 0 0
BITMAP
55555920
26165400
55340000
60840600
26566700
ENDCHAR
STARTCHAR uni092C094D0927
ENCODING -1
SWIDTH 844 0
DWIDTH 7 0
BBX 7 5 0 0
BITMAP
55691940
26340600
66092600
61740600
26565900
ENDCHAR
STARTCHAR uni092C094D092C
ENCODING -1
SWIDTH 783 0
DWIDTH 6 0
BBX 7 5 0 0
BITMAP
55555920
26163600
65282600
61745700
26565600
ENDCHAR
STARTCHAR uni092C094D092D
ENCODING -1
SWIDTH 764 0
DWIDTH 6 0
BBX 7 5 0 0
BITMAP
55714910
26430600
65375600
60830600
26600600
ENDCHAR
STARTCHAR uni092C094D092F
ENCODING -1
SWIDTH 852 0
DWIDTH 7 0
BBX 7 5 0 0
BITMAP
55578850
26106410
66371510
60655810
26500410
ENDCHAR
STARTCHAR uni092C094D0932
ENCODING -1
SWIDTH 961 0
DWIDTH 8 0
BBX 8 5 0 0
BITMAP
55555594
22065690
55345260
60743160
26572060
ENDCHAR
STARTCHAR uni092C094D0935
ENCODING -1
SWIDTH 776 0
DWIDTH 6 0
BBX 7 5 0 0
BITMAP
55555910
26162600
65240600
61740600
26666600
ENDCHAR
STARTCHAR uni092C094D0936
ENCODING -1
SWIDTH 926 0
DWIDTH 7 0
BBX 8 5 0 0
BITMAP
55277183
24133260
55276060
60890060
26515060
ENDCHAR
STARTCHAR uni092C094D0938
ENCODING -1
SWIDTH 897 0
DWIDTH 7 0
BBX 8 5 0 0
BITMAP
55559591
26106060
55297560
60890060
26525060
ENDCHAR
STARTCHAR uni092D094D092F
ENCODING -1
SWIDTH 827 0
DWIDTH 7 0
BBX 7 5 0 0
BITMAP
70586940
50033600
56720600
10165900
00000600
ENDCHAR
STARTCHAR uni092D094D0932
ENCODING -1
SWIDTH 941 0
DWIDTH 8 0
BBX 8 5 0 0
BITMAP
70555593
50165680
56816060
40513060
00272060
ENDCHAR
STARTCHAR uni092D094D0935
ENCODING -1
SWIDTH 755 0
DWIDTH 6 0
BBX 7 5 0 0
BITMAP
70556810
50173400
56821400
50422400
00066400
ENDCHAR
STARTCHAR uni092E094D0924
ENCODING -1
SWIDTH 765 0
DWIDTH 6 0
BBX 7 5 0 0
BITMAP
95555910
60065600
66810600
30510600
00270600
ENDCHAR
STARTCHAR uni092E094D0926
ENCODING -1
SWIDTH 766 0
DWIDTH 6 0
BBX 7 5 0 0
BITMAP
95555910
60065400
65730000
50330600
00066700
ENDCHAR
STARTCHAR uni092E094D092A
ENCODING -1
SWIDTH 762 0
DWIDTH 6 0
BBX 7 5 0 0
BITMAP
95865910
60420600
65721600
40066600
00000500
ENDCHAR
STARTCHAR uni092E094D092C
ENCODING -1
SWIDTH 768 0
DWIDTH 6 0
BBX 7 5 0 0
BITMAP
95555910
60162600
65862600
50425600
00065600
ENDCHAR
STARTCHAR uni092E094D092D
ENCODING -1
SWIDTH 768 0
DWIDTH 6 0
BBX 7 5 0 0
BITMAP
95714910
60240600
65785600
30120600
00000500
ENDCHAR
STARTCHAR uni092E094D092E
ENCODING -1
SWIDTH 759 0
DWIDTH 6 0
BBX 7 5 0 0
BITMAP
95776810
60331500
65776500
30221500
00001500
ENDCHAR
STARTCHAR uni092E094D092F
ENCODING -1
SWIDTH 834 0
DWIDTH 7 0
BBX 7 5 0 0
BITMAP
95587940
60023600
65720600
10165900
00000600
ENDCHAR
STARTCHAR uni092E094D0932
ENCODING -1
SWIDTH 945 0
DWIDTH 8 0
BBX 8 5 0 0
BITMAP
95555593
60065680
65826060
40423060
00272060
ENDCHAR
STARTCHAR uni092E094D0935
ENCODING -1
SWIDTH 761 0
DWIDTH 6 0
BBX 7 5 0 0
BITMAP
95556910
60172500
65820500
50421500
00066500
ENDCHAR
STARTCHAR uni092E094D0936
ENCODING -1
SWIDTH 884 0
DWIDTH 7 0
BBX 8 5 0 0
BITMAP
95277181
60216150
65764150
40160150
00042150
ENDCHAR
STARTCHAR uni092E094D0938
ENCODING -1
SWIDTH 816 0
DWIDTH 7 0
BBX 7 5 0 0
BITMAP
95595930
60060600
66885800
40420600
00070600
ENDCHAR
STARTCHAR uni092E094D0939
ENCODING -1
SWIDTH 758 0
DWIDTH 6 0
BBX 7 6 0 -1
BITMAP
95556910
60065300
60185200
00240300
00240000
00055200
ENDCHAR
STARTCHAR uni092F094D092F
ENCODING -1
SWIDTH 897 0
DWIDTH 7 0
BBX 8 5 0 0
BITMAP
59559591
04106060
46064060
25555660
00000050
ENDCHAR
STARTCHAR uni0930094D092F
ENCODING -1
SWIDTH 713 0
DWIDTH 6 0
BBX 6 5 0 0
BITMAP
558794
101460
577160
016590
000060
ENDCHAR
STARTCHAR uni0930094D0939
ENCODING -1
SWIDTH 619 0
DWIDTH 5 0
BBX 5 6 0 -1
BITMAP
555770
205620
128610
042050
042000
005510
ENDCHAR
STARTCHAR uni0932094D0915
ENCODING -1
SWIDTH 1182 0
DWIDTH 9 0
BBX 10 5 0 0
BITMAP
5555559553
1656747550
6060706060
6040606060
3610458340
ENDCHAR
STARTCHAR uni0932094D0916
ENCODING -1
SWIDTH 1195 0
DWIDTH 10 0
BBX 10 5 0 0
BITMAP
5555596593
1656253560
6060866060
6010342680
3610061050
ENDCHAR
STARTCHAR uni0932094D0917
ENCODING -1
SWIDTH 950 0
DWIDTH 8 0
BBX 8 5 0 0
BITMAP
55558694
16554260
60605160
60302060
36100060
ENDCHAR
STARTCHAR uni0932094D091C
ENCODING -1
SWIDTH 1035 0
DWIDTH 8 0
BBX 9 5 0 0
BITMAP
5555555920
1655385700
6060042600
6030042600
3610560500
ENDCHAR
STARTCHAR uni0932094D091F
ENCODING -1
SWIDTH 929 0
DWIDTH 7 0
BBX 8 5 0 0
BITMAP
55555593
16667650
60706000
60306040
36107570
ENDCHAR
STARTCHAR uni0932094D0920
ENCODING -1
SWIDTH 953 0
DWIDTH 8 0
BBX 8 5 0 0
BITMAP
55555594
16567670
60606060
60306060
36107570
ENDCHAR
STARTCHAR uni0932094D0921
ENCODING -1
SWIDTH 916 0
DWIDTH 7 0
BBX 8 5 0 0
BITMAP
55555592
16566550
60605000
60301130
36106570
ENDCHAR
STARTCHAR uni0932094D0922
ENCODING -1
SWIDTH 924 0
DWIDTH 7 0
BBX 8 5 0 0
BITMAP
55555592
16467550
60606000
60406330
36107680
ENDCHAR
STARTCHAR uni0932094D0924
ENCODING -1
SWIDTH 929 0
DWIDTH 7 0
BBX 8 5 0 0
BITMAP
55555593
16766580
60606060
60206060
36107260
ENDCHAR
STARTCHAR uni0932094D0925
ENCODING -1
SWIDTH 1061 0
DWIDTH 8 0
BBX 9 5 0 0
BITMAP
5554463730
1656305600
6070861600
6040600700
3610355800
ENDCHAR
STARTCHAR uni0932094D0926
ENCODING -1
SWIDTH 939 0
DWIDTH 8 0
BBX 8 5 0 0
BITMAP
55555593
16567560
60606000
60306060
36104590
ENDCHAR
STARTCHAR uni0932094D092A
ENCODING -1
SWIDTH 939 0
DWIDTH 8 0
BBX 8 5 0 0
BITMAP
55559593
16567060
60606060
60304680
36100050
ENDCHAR
STARTCHAR uni0932094D092B
ENCODING -1
SWIDTH 1176 0
DWIDTH 9 0
BBX 10 5 0 0
BITMAP
5555959553
1656708550
6060607060
6030468060
3610006340
ENDCHAR
STARTCHAR uni0932094D092C
ENCODING -1
SWIDTH 949 0
DWIDTH 8 0
BBX 8 5 0 0
BITMAP
55555594
16567060
60606660
60306190
36103580
ENDCHAR
STARTCHAR uni0932094D092D
ENCODING -1
SWIDTH 931 0
DWIDTH 7 0
BBX 8 5 0 0
BITMAP
55555293
16567060
60608580
60305060
36100060
ENDCHAR
STARTCHAR uni0932094D092E
ENCODING -1
SWIDTH 931 0
DWIDTH 7 0
BBX 8 5 0 0
BITMAP
55559593
16567060
60608580
60305060
36100060
ENDCHAR
STARTCHAR uni0932094D092F
ENCODING -1
SWIDTH 1033 0
DWIDTH 8 0
BBX 9 5 0 0
BITMAP
55555A5920
1656360600
6060750600
6000356700
3610000600
ENDCHAR
STARTCHAR uni0932094D0932
ENCODING -1
SWIDTH 1112 0
DWIDTH 9 0
BBX 9 5 0 0
BITMAP
5555555770
1656765830
6060625430
6030612330
3610740320
ENDCHAR
STARTCHAR uni0932094D0935
ENCODING -1
SWIDTH 940 0
DWIDTH 8 0
BBX 8 5 0 0
BITMAP
55555593
16567560
60607060
60406060
36103580
ENDCHAR
STARTCHAR uni0932094D0938
ENCODING -1
SWIDTH 1068 0
DWIDTH 9 0
BBX 9 5 0 0
BITMAP
5555595930
1666260600
6070885800
6020430600
3610070600
ENDCHAR
STARTCHAR uni0932094D0939
ENCODING -1
SWIDTH 922 0
DWIDTH 7 0
BBX 8 6 0 -1
BITMAP
55555592
16567550
60605000
60306130
36106020
00004530
ENDCHAR
STARTCHAR uni0933094D092F
ENCODING -1
SWIDTH 1050 0
DWIDTH 8 0
BBX 9 5 0 0
BITMAP
55555A5930
2655360600
6070650600
6060556700
2635200500
ENDCHAR
STARTCHAR uni0935094D092F
ENCODING -1
SWIDTH 852 0
DWIDTH 7 0
BBX 7 5 0 0
BITMAP
55578860
26106410
60171510
60255810
26400410
ENDCHAR
STARTCHAR uni0935094D0932
ENCODING -1
SWIDTH 961 0
DWIDTH 8 0
BBX 8 5 0 0
BITMAP
55555594
26165690
60245260
60342160
26673060
ENDCHAR
STARTCHAR uni0935094D0935
ENCODING -1
SWIDTH 776 0
DWIDTH 6 0
BBX 7 5 0 0
BITMAP
55555910
26162600
60240600
60340600
25555600
ENDCHAR
STARTCHAR uni0935094D0939
ENCODING -1
SWIDTH 754 0
DWIDTH 6 0
BBX 7 6 0 -1
BITMAP
55556810
26266300
60185100
60330600
26830200
00065200
ENDCHAR
STARTCHAR uni0936094D0915
ENCODING -1
SWIDTH 1093 0
DWIDTH 9 0
BBX 9 5 0 0
BITMAP
3664596540
4062666600
5536051330
2506060330
0512692600
ENDCHAR
STARTCHAR uni0936094D091A
ENCODING -1
SWIDTH 950 0
DWIDTH 8 0
BBX 8 5 0 0
BITMAP
46645594
20648460
55316060
25006590
05100060
ENDCHAR
STARTCHAR uni0936094D091B
ENCODING -1
SWIDTH 968 0
DWIDTH 8 0
BBX 8 5 0 0
BITMAP
46668594
20642190
65318142
24042042
06127580
ENDCHAR
STARTCHAR uni0936094D091F
ENCODING -1
SWIDTH 854 0
DWIDTH 7 0
BBX 7 5 0 0
BITMAP
46645950
30626700
55360000
25060050
05146630
ENDCHAR
STARTCHAR uni0936094D0924
ENCODING -1
SWIDTH 864 0
DWIDTH 7 0
BBX 7 5 0 0
BITMAP
46645770
20626730
55360330
25060330
05145330
ENDCHAR
STARTCHAR uni0936094D092E
ENCODING -1
SWIDTH 885 0
DWIDTH 7 0
BBX 8 5 0 0
BITMAP
46667691
30633150
55337650
25011150
05100150
ENDCHAR
STARTCHAR uni0936094D092F
ENCODING -1
SWIDTH 940 0
DWIDTH 8 0
BBX 8 5 0 0
BITMAP
46649693
30604160
55341060
25025580
05100060
ENDCHAR
STARTCHAR uni0936094D0932
ENCODING -1
SWIDTH 1039 0
DWIDTH 8 0
BBX 9 5 0 0
BITMAP
4664555920
3062666700
5536060600
2506020600
0514600600
ENDCHAR
STARTCHAR uni0936094D0935
ENCODING -1
SWIDTH 850 0
DWIDTH 7 0
BBX 7 5 0 0
BITMAP
36645850
40626510
55360510
25060510
05126910
ENDCHAR
STARTCHAR uni0936094D0936
ENCODING -1
SWIDTH 1009 0
DWIDTH 8 0
BBX 9 5 0 0
BITMAP
4662771810
3062161500
5534641500
2501601500
0510421500
ENDCHAR
STARTCHAR uni0937094D0915
ENCODING -1
SWIDTH 1039 0
DWIDTH 8 0
BBX 9 5 0 0
BITMAP
9855595520
5515385400
5156060600
1666060600
0004574400
ENDCHAR
STARTCHAR uni0937094D091F
ENCODING -1
SWIDTH 493 0
DWIDTH 4 0
BBX 4 5 0 0
BITMAP
9969
5355
3873
6003
4664
ENDCHAR
STARTCHAR uni0937094D0920
ENCODING -1
SWIDTH 511 0
DWIDTH 4 0
BBX 5 5 0 0
BITMAP
8FFA10
5FF600
3A9400
600600
466400
ENDCHAR
STARTCHAR uni0937094D0923
ENCODING -1
SWIDTH 980 0
DWIDTH 8 0
BBX 8 5 0 0
BITMAP
98596986
55260542
51561542
16556142
00000042
ENDCHAR
STARTCHAR uni0937094D092A
ENCODING -1
SWIDTH 980 0
DWIDTH 8 0
BBX 8 5 0 0
BITMAP
98596986
55260542
51561542
16556142
00000042
ENDCHAR
STARTCHAR uni0937094D092B
ENCODING -1
SWIDTH 1036 0
DWIDTH 8 0
BBX 9 5 0 0
BITMAP
9859595520
5616085400
5157070600
1656670600
0000064400
ENDCHAR
STARTCHAR uni0937094D092E
ENCODING -1
SWIDTH 791 0
DWIDTH 6 0
BBX 7 5 0 0
BITMAP
98595920
55260600
51595700
17640600
00000600
ENDCHAR
STARTCHAR uni0937094D092F
ENCODING -1
SWIDTH 877 0
DWIDTH 7 0
BBX 8 5 0 0
BITMAP
98569681
56106140
41573240
01265740
00000140
ENDCHAR
STARTCHAR uni0937094D0935
ENCODING -1
SWIDTH 802 0
DWIDTH 6 0
BBX 7 5 0 0
BITMAP
98555930
55254600
51570600
16660700
00046700
ENDCHAR
STARTCHAR uni0937094D0937
ENCODING -1
SWIDTH 804 0
DWIDTH 6 0
BBX 7 5 0 0
BITMAP
985B5930
55274600
51572800
16655800
00000600
ENDCHAR
STARTCHAR uni0938094D0915
ENCODING -1
SWIDTH 1089 0
DWIDTH 9 0
BBX 9 5 0 0
BITMAP
5955595540
0603565600
6858060330
3306060330
0602692600
ENDCHAR
STARTCHAR uni0938094D0916
ENCODING -1
SWIDTH 990 0
DWIDTH 8 0
BBX 8 5 0 0
BITMAP
59559577
06006643
68773533
33060673
06034033
ENDCHAR
STARTCHAR uni0938094D091C
ENCODING -1
SWIDTH 970 0
DWIDTH 8 0
BBX 8 5 0 0
BITMAP
59555595
06006790
68630650
33000650
06026350
ENDCHAR
STARTCHAR uni0938094D091F
ENCODING -1
SWIDTH 844 0
DWIDTH 7 0
BBX 7 5 0 0
BITMAP
59555940
06026600
68580000
33060140
06046720
ENDCHAR
STARTCHAR uni0938094D0924
ENCODING -1
SWIDTH 852 0
DWIDTH 7 0
BBX 7 5 0 0
BITMAP
59555850
06026810
68580410
33060410
06054410
ENDCHAR
STARTCHAR uni0938094D0925
ENCODING -1
SWIDTH 960 0
DWIDTH 8 0
BBX 8 5 0 0
BITMAP
59536564
06030660
68576360
33060070
06026590
ENDCHAR
STARTCHAR uni0938094D0926
ENCODING -1
SWIDTH 851 0
DWIDTH 7 0
BBX 7 5 0 0
BITMAP
59555860
06036710
68590000
33060330
06026730
ENDCHAR
STARTCHAR uni0938094D092A
ENCODING -1
SWIDTH 857 0
DWIDTH 7 0
BBX 7 5 0 0
BITMAP
59595860
06060420
68580420
33016820
06000420
ENDCHAR
STARTCHAR uni0938094D092B
ENCODING -1
SWIDTH 1092 0
DWIDTH 9 0
BBX 9 5 0 0
BITMAP
5959595540
0606056600
6858061330
3301690330
0600052600
ENDCHAR
STARTCHAR uni0938094D092C
ENCODING -1
SWIDTH 857 0
DWIDTH 7 0
BBX 7 5 0 0
BITMAP
59555860
06036520
68585420
33060920
06026820
ENDCHAR
STARTCHAR uni0938094D092E
ENCODING -1
SWIDTH 850 0
DWIDTH 7 0
BBX 7 5 0 0
BITMAP
59595850
06060510
68595810
33040510
06000510
ENDCHAR
STARTCHAR uni0938094D092F
ENCODING -1
SWIDTH 920 0
DWIDTH 7 0
BBX 8 5 0 0
BITMAP
5955A592
06005060
68561060
33035670
06000060
ENDCHAR
STARTCHAR uni0938094D0932
ENCODING -1
SWIDTH 1027 0
DWIDTH 8 0
BBX 9 5 0 0
BITMAP
5955555920
0603666600
6858070600
3306020600
0605600600
ENDCHAR
STARTCHAR uni0938094D0935
ENCODING -1
SWIDTH 842 0
DWIDTH 7 0
BBX 7 5 0 0
BITMAP
59555940
06036600
68590600
33060600
06026900
ENDCHAR
STARTCHAR uni0938094D0938
ENCODING -1
SWIDTH 871 0
DWIDTH 7 0
BBX 7 5 0 0
BITMAP
59578780
06024240
68786740
33060240
06042230
ENDCHAR
STARTCHAR uni0939094D0923
ENCODING -1
SWIDTH 1136 0
DWIDTH 9 0
BBX 10 7 0 -2
BITMAP
5587959691
2661606050
5100606050
2321463050
6001000050
1651000000
0060000000
ENDCHAR
STARTCHAR uni0939094D092E
ENCODING -1
SWIDTH 746 0
DWIDTH 6 0
BBX 6 6 0 -1
BITMAP
557778
266124
500024
322674
603224
255111
ENDCHAR
STARTCHAR uni0939094D092F
ENCODING -1
SWIDTH 785 0
DWIDTH 6 0
BBX 7 6 0 -1
BITMAP
55775920
25610600
47560600
60042600
60460700
26565500
ENDCHAR
STARTCHAR uni0939094D0932
ENCODING -1
SWIDTH 1110 0
DWIDTH 9 0
BBX 9 7 0 -2
BITMAP
5587555870
2661566820
2761614420
5112600420
5000740320
1551000000
0060000000
ENDCHAR
STARTCHAR uni0939094D0935
ENCODING -1
SWIDTH 920 0
DWIDTH 7 0
BBX 8 7 0 -2
BITMAP
55875592
26615460
27606060
51236060
50015670
15510000
00600000
ENDCHAR
STARTCHAR uni0915093C094D0915093C
ENCODING -1
SWIDTH 1275 0
DWIDTH 10 0
BBX 11 6 0 -1
BITMAP
558655595510
265666386300
604225060600
605115060600
268106665300
030003000000
ENDCHAR
STARTCHAR uni0915093C094D0924
ENCODING -1
SWIDTH 1016 0
DWIDTH 8 0
BBX 9 6 0 -1
BITMAP
5586555910
2043275600
6041420600
6051510600
2681270500
0300000000
ENDCHAR
STARTCHAR uni0915093C094D092B
ENCODING -1
SWIDTH 1246 0
DWIDTH 10 0
BBX 10 6 0 -1
BITMAP
5586866855
2656812861
6042422406
6051067406
2681002462
0300000000
ENDCHAR
STARTCHAR uni0915093C094D092B093C
ENCODING -1
SWIDTH 1247 0
DWIDTH 10 0
BBX 10 6 0 -1
BITMAP
5586866855
2656822862
6042422406
6051067406
2681002562
0300030000
ENDCHAR
STARTCHAR uni0915093C094D092C
ENCODING -1
SWIDTH 1043 0
DWIDTH 8 0
BBX 9 6 0 -1
BITMAP
5586555920
2656663600
6042183600
6051154700
2781066700
0300000000
ENDCHAR
STARTCHAR uni0915093C094D092E
ENCODING -1
SWIDTH 998 0
DWIDTH 8 0
BBX 8 6 0 -1
BITMAP
55868678
26568124
60425674
60514124
26810024
03000000
ENDCHAR
STARTCHAR uni0916093C094D0924
ENCODING -1
SWIDTH 984 0
DWIDTH 8 0
BBX 8 6 0 -1
BITMAP
59655586
05353682
66606042
34268042
06104442
00030000
ENDCHAR
STARTCHAR uni0916093C094D092E
ENCODING -1
SWIDTH 965 0
DWIDTH 8 0
BBX 8 6 0 -1
BITMAP
59659594
05356060
66607590
34265060
06100060
00030000
ENDCHAR
STARTCHAR uni0916093C094D092F
ENCODING -1
SWIDTH 1045 0
DWIDTH 8 0
BBX 9 6 0 -1
BITMAP
59655A5920
0535050600
6660410600
3426656700
0610000600
0003000000
ENDCHAR
STARTCHAR uni0916093C094D0935
ENCODING -1
SWIDTH 972 0
DWIDTH 8 0
BBX 8 6 0 -1
BITMAP
59655595
05353651
66606051
34267051
06101671
00030000
ENDCHAR
STARTCHAR uni0916093C094D0936
ENCODING -1
SWIDTH 1123 0
DWIDTH 9 0
BBX 9 6 0 -1
BITMAP
5965376280
0535206240
6660654240
3426620240
0610050240
0003000000
ENDCHAR
STARTCHAR uni0916093C094D0938
ENCODING -1
SWIDTH 1066 0
DWIDTH 9 0
BBX 9 6 0 -1
BITMAP
5965595930
0535060600
6660685800
3426620600
0610060600
0003000000
ENDCHAR
STARTCHAR uni091C093C094D091C093C
ENCODING -1
SWIDTH 934 0
DWIDTH 7 0
BBX 8 6 0 -1
BITMAP
55555592
28628560
03305160
03305160
46056050
21011000
ENDCHAR
STARTCHAR uni091C093C094D092F
ENCODING -1
SWIDTH 893 0
DWIDTH 7 0
BBX 8 6 0 -1
BITMAP
55559591
28536060
04284060
04235660
46000060
21000000
ENDCHAR
STARTCHAR uni092B093C094D091C093C
ENCODING -1
SWIDTH 1100 0
DWIDTH 9 0
BBX 9 6 0 -1
BITMAP
9677555850
5138447810
5134006510
1673006510
0033263510
0200030000
ENDCHAR
STARTCHAR uni092B093C094D0924
ENCODING -1
SWIDTH 1036 0
DWIDTH 8 0
BBX 9 6 0 -1
BITMAP
9677555920
5135175700
5133240600
1673240600
0033181500
0200000000
ENDCHAR
STARTCHAR uni092B093C094D092B093C
ENCODING -1
SWIDTH 1256 0
DWIDTH 10 0
BBX 11 6 0 -1
BITMAP
967777685510
513873196200
513433150600
167306650600
003300156200
020003000000
ENDCHAR
STARTCHAR uni092B093C094D0938
ENCODING -1
SWIDTH 1141 0
DWIDTH 9 0
BBX 10 6 0 -1
BITMAP
9677559591
5137606060
5133397560
1673060060
0033024060
0200000000
ENDCHAR
STARTCHAR uni092C094D091C093C
ENCODING -1
SWIDTH 883 0
DWIDTH 7 0
BBX 8 6 0 -1
BITMAP
55555681
23048650
65106150
60606150
26755150
00020000
ENDCHAR
STARTCHAR uni0932094D091C093C
ENCODING -1
SWIDTH 1062 0
DWIDTH 9 0
BBX 9 6 0 -1
BITMAP
5555555920
1655385700
6060042600
6030042600
3610560500
0000300000
ENDCHAR
STARTCHAR uni0936094D0915093C
ENCODING -1
SWIDTH 1093 0
DWIDTH 9 0
BBX 9 6 0 -1
BITMAP
3664596540
4062666600
5536051330
2506060330
0512692600
0000200000
ENDCHAR
STARTCHAR uni0924094D0924094D
ENCODING -1
SWIDTH 309 0
DWIDTH 2 0
BBX 4 5 0 0
BITMAP
5552
4852
2500
2400
0810
ENDCHAR
STARTCHAR uni0928094D092D094D
ENCODING -1
SWIDTH 505 0
DWIDTH 4 0
BBX 5 4 0 1
BITMAP
557050
006000
459550
202000
ENDCHAR
STARTCHAR uni0928094D0938094D
ENCODING -1
SWIDTH 635 0
DWIDTH 5 0
BBX 6 5 0 0
BITMAP
555685
000240
303865
200600
000430
ENDCHAR
STARTCHAR uni092E094D092D094D
ENCODING -1
SWIDTH 533 0
DWIDTH 4 0
BBX 5 4 0 1
BITMAP
957140
603300
657750
201100
ENDCHAR
STARTCHAR uni0932094D092D094D
ENCODING -1
SWIDTH 694 0
DWIDTH 6 0
BBX 7 5 0 0
BITMAP
55555220
16567000
60608520
60305000
36100000
ENDCHAR
STARTCHAR uni0938094D0924094D0930094D
ENCODING -1
SWIDTH 575 0
DWIDTH 5 0
BBX 6 5 0 0
BITMAP
595550
060563
685405
330044
060530
ENDCHAR
STARTCHAR uni0915094D0924094D092F
ENCODING -1
SWIDTH 1356 0
DWIDTH 11 0
BBX 11 5 0 0
BITMAP
558655569860
204327673420
604142150520
605142055820
267127000420
ENDCHAR
STARTCHAR uni0915094D0924094D0930
ENCODING -1
SWIDTH 997 0
DWIDTH 8 0
BBX 8 5 0 0
BITMAP
55865578
20433674
60416034
60512074
26811743
ENDCHAR
STARTCHAR uni0915094D0924094D0935
ENCODING -1
SWIDTH 1242 0
DWIDTH 10 0
BBX 10 5 0 0
BITMAP
5586555577
2043367233
6041606033
6051605033
2681451673
ENDCHAR
STARTCHAR uni0915094D092A094D0930
ENCODING -1
SWIDTH 1007 0
DWIDTH 8 0
BBX 9 5 0 0
BITMAP
5586866810
2556811500
6042411500
3581028500
0041171500
ENDCHAR
STARTCHAR uni0915094D0935094D092F
ENCODING -1
SWIDTH 1384 0
DWIDTH 11 0
BBX 12 5 0 0
BITMAP
558655569681
265666206150
604233073150
605133065650
277107600150
ENDCHAR
STARTCHAR uni0915094D0938094D091F
ENCODING -1
SWIDTH 1376 0
DWIDTH 11 0
BBX 11 5 0 0
BITMAP
558655955770
265661606610
604229782000
605106051040
268101527650
ENDCHAR
STARTCHAR uni0915094D0938094D0921
ENCODING -1
SWIDTH 1388 0
DWIDTH 11 0
BBX 12 5 0 0
BITMAP
558655955591
265661606540
604229764000
605106004540
269101506560
ENDCHAR
STARTCHAR uni0915094D0938094D0924
ENCODING -1
SWIDTH 1423 0
DWIDTH 11 0
BBX 12 5 0 0
BITMAP
558655955592
204321605570
604119765060
605106015060
268101508150
ENDCHAR
STARTCHAR uni0915094D0938094D092A094D0930
ENCODING -1
SWIDTH 1437 0
DWIDTH 12 0
BBX 12 5 0 0
BITMAP
558655959593
255661606060
604229756060
358106001680
004101504350
ENDCHAR
STARTCHAR uni0915094D0938094D092A094D0932
ENCODING -1
SWIDTH 1866 0
DWIDTH 15 0
BBX 15 5 0 0
BITMAP
5586559595555770
2656616060565730
6042297570615330
6051060046602330
2581015000640330
ENDCHAR
STARTCHAR uni0917094D0927094D092F
ENCODING -1
SWIDTH 1156 0
DWIDTH 9 0
BBX 10 5 0 0
BITMAP
597825A592
0642006060
0518264060
1042075670
0016620060
ENDCHAR
STARTCHAR uni0917094D0927094D0935
ENCODING -1
SWIDTH 1084 0
DWIDTH 9 0
BBX 9 5 0 0
BITMAP
5978255940
0642035600
0618260600
5242060600
0016566900
ENDCHAR
STARTCHAR uni0917094D0928094D092F
ENCODING -1
SWIDTH 1069 0
DWIDTH 9 0
BBX 9 5 0 0
BITMAP
5955596930
0600042600
0535760600
1020255800
0000000500
ENDCHAR
STARTCHAR uni0917094D092D094D092F
ENCODING -1
SWIDTH 1102 0
DWIDTH 9 0
BBX 9 5 0 0
BITMAP
5972478850
0624005410
0628630510
4112065910
0000000410
ENDCHAR
STARTCHAR uni0917094D0930094D092F
ENCODING -1
SWIDTH 817 0
DWIDTH 7 0
BBX 7 5 0 0
BITMAP
59596930
06042600
05460600
10259800
00053500
ENDCHAR
STARTCHAR uni091A094D091B094D0935
ENCODING -1
SWIDTH 913 0
DWIDTH 7 0
BBX 8 6 0 -1
BITMAP
55596592
48360370
24064060
06576560
00060060
00026620
ENDCHAR
STARTCHAR uni091C094D091C094D091E
ENCODING -1
SWIDTH 945 0
DWIDTH 8 0
BBX 8 5 0 0
BITMAP
55555593
28660060
03345460
03350660
46095660
ENDCHAR
STARTCHAR uni091C094D091C094D092F
ENCODING -1
SWIDTH 1252 0
DWIDTH 10 0
BBX 11 5 0 0
BITMAP
555555696810
285285261400
033060832400
033060457400
460550001400
ENDCHAR
STARTCHAR uni091C094D091C094D0935
ENCODING -1
SWIDTH 1243 0
DWIDTH 10 0
BBX 10 5 0 0
BITMAP
5555555593
2852857060
0330606060
0330606070
4605504670
ENDCHAR
STARTCHAR uni0924094D0915094D092F
ENCODING -1
SWIDTH 1346 0
DWIDTH 11 0
BBX 11 5 0 0
BITMAP
555568568950
267328672500
605124340600
605124065900
451664000500
ENDCHAR
STARTCHAR uni0924094D0915094D0930
ENCODING -1
SWIDTH 995 0
DWIDTH 8 0
BBX 8 6 0 -1
BITMAP
55556855
26732611
60512405
60512406
45178461
00030000
ENDCHAR
STARTCHAR uni0924094D0915094D0935
ENCODING -1
SWIDTH 1282 0
DWIDTH 10 0
BBX 11 5 0 0
BITMAP
555568555920
267326150600
605124240600
604134150600
450674056600
ENDCHAR
STARTCHAR uni0924094D0915094D0937
ENCODING -1
SWIDTH 943 0
DWIDTH 8 0
BBX 8 5 0 0
BITMAP
55466473
26686780
60340060
60240660
45065660
ENDCHAR
STARTCHAR uni0924094D0916094D0930
ENCODING -1
SWIDTH 1008 0
DWIDTH 8 0
BBX 9 6 0 -1
BITMAP
5555956810
2660653500
6037361500
6007059500
4501543500
0000030000
ENDCHAR
STARTCHAR uni0924094D0924094D092F
ENCODING -1
SWIDTH 888 0
DWIDTH 7 0
BBX 8 5 0 0
BITMAP
55559591
48516060
24084160
24045660
08100050
ENDCHAR
STARTCHAR uni0924094D0924094D0935
ENCODING -1
SWIDTH 788 0
DWIDTH 6 0
BBX 7 5 0 0
BITMAP
55555920
48660600
24150600
24060600
08156700
ENDCHAR
STARTCHAR uni0924094D0928094D092F
ENCODING -1
SWIDTH 1098 0
DWIDTH 9 0
BBX 9 5 0 0
BITMAP
5555578950
2671005510
6047671610
6000165910
4500000510
ENDCHAR
STARTCHAR uni0924094D092A094D0930
ENCODING -1
SWIDTH 763 0
DWIDTH 6 0
BBX 7 5 0 0
BITMAP
55865910
26820600
60321600
60068600
45051600
ENDCHAR
STARTCHAR uni0924094D092A094D0932
ENCODING -1
SWIDTH 1219 0
DWIDTH 10 0
BBX 10 5 0 0
BITMAP
5586555595
2682066690
6032154360
6006751160
4500083060
ENDCHAR
STARTCHAR uni0924094D092E094D092F
ENCODING -1
SWIDTH 1096 0
DWIDTH 9 0
BBX 9 5 0 0
BITMAP
5586578950
2682015500
6046630600
6010065900
4500000500
ENDCHAR
STARTCHAR uni0924094D0930094D092F
ENCODING -1
SWIDTH 848 0
DWIDTH 7 0
BBX 7 5 0 0
BITMAP
55578950
26405510
50371610
01455910
25000510
ENDCHAR
STARTCHAR uni0924094D0938094D092F
ENCODING -1
SWIDTH 1234 0
DWIDTH 10 0
BBX 10 5 0 0
BITMAP
5555956986
2660600542
6029764042
6006005582
4501500042
ENDCHAR
STARTCHAR uni0924094D0938094D0935
ENCODING -1
SWIDTH 1155 0
DWIDTH 9 0
BBX 10 5 0 0
BITMAP
5555955592
2660603060
6029774060
6006015060
4501505660
ENDCHAR
STARTCHAR uni0926094D0917094D0930
ENCODING -1
SWIDTH 493 0
DWIDTH 4 0
BBX 4 7 0 -2
BITMAP
5577
2562
6002
2865
0635
3575
0301
ENDCHAR
STARTCHAR uni0926094D092C094D0930
ENCODING -1
SWIDTH 483 0
DWIDTH 4 0
BBX 4 7 0 -2
BITMAP
5577
1662
6000
6014
3965
25C3
0460
ENDCHAR
STARTCHAR uni0926094D092F094D092D
ENCODING -1
SWIDTH 607 0
DWIDTH 5 0
BBX 5 7 0 -2
BITMAP
559860
255420
282420
420520
167920
155420
002210
ENDCHAR
STARTCHAR uni0926094D092F094D0930
ENCODING -1
SWIDTH 595 0
DWIDTH 5 0
BBX 5 6 0 -1
BITMAP
559950
254500
371500
500500
365A00
006100
ENDCHAR
STARTCHAR uni0927094D0928094D092F
ENCODING -1
SWIDTH 1138 0
DWIDTH 9 0
BBX 10 5 0 0
BITMAP
8625569591
5710006060
4006574160
2654045660
0000000050
ENDCHAR
STARTCHAR uni0928094D0915094D0938
ENCODING -1
SWIDTH 1384 0
DWIDTH 11 0
BBX 12 5 0 0
BITMAP
555586569691
002656615150
306042396650
206051070150
002681034150
ENDCHAR
STARTCHAR uni0928094D0924094D092F
ENCODING -1
SWIDTH 1073 0
DWIDTH 9 0
BBX 9 5 0 0
BITMAP
5555586930
0005761600
4570510600
2060165800
0054000500
ENDCHAR
STARTCHAR uni0928094D0924094D0930
ENCODING -1
SWIDTH 732 0
DWIDTH 6 0
BBX 6 5 0 0
BITMAP
555586
001582
457052
403072
002652
ENDCHAR
STARTCHAR uni0928094D0924094D0938
ENCODING -1
SWIDTH 1134 0
DWIDTH 9 0
BBX 10 5 0 0
BITMAP
5555569681
0016615150
3050496650
2060060150
0055033150
ENDCHAR
STARTCHAR uni0928094D0925094D092F
ENCODING -1
SWIDTH 1168 0
DWIDTH 9 0
BBX 10 5 0 0
BITMAP
553754A592
0030606060
4576355070
2036555670
0000000060
ENDCHAR
STARTCHAR uni0928094D0925094D0935
ENCODING -1
SWIDTH 1089 0
DWIDTH 9 0
BBX 9 5 0 0
BITMAP
5537545940
0030636600
4576360600
2035550600
0000016800
ENDCHAR
STARTCHAR uni0928094D0926094D0930
ENCODING -1
SWIDTH 734 0
DWIDTH 6 0
BBX 6 6 0 -1
BITMAP
555587
001661
458000
406024
002794
000410
ENDCHAR
STARTCHAR uni0928094D0926094D0935
ENCODING -1
SWIDTH 732 0
DWIDTH 6 0
BBX 6 6 0 -1
BITMAP
555586
001661
458000
406013
004774
003551
ENDCHAR
STARTCHAR uni0928094D0927094D092F
ENCODING -1
SWIDTH 1097 0
DWIDTH 9 0
BBX 9 5 0 0
BITMAP
5594378950
0060005510
4596271610
2060195910
0036600510
ENDCHAR
STARTCHAR uni0928094D0927094D0930
ENCODING -1
SWIDTH 783 0
DWIDTH 6 0
BBX 7 6 0 -1
BITMAP
55943920
00600600
45960600
40600700
00369700
00051000
ENDCHAR
STARTCHAR uni0928094D0927094D0935
ENCODING -1
SWIDTH 1036 0
DWIDTH 8 0
BBX 9 5 0 0
BITMAP
5593355920
0060063600
4596150600
4060150700
0036566700
ENDCHAR
STARTCHAR uni0928094D0928094D092F
ENCODING -1
SWIDTH 1071 0
DWIDTH 9 0
BBX 9 5 0 0
BITMAP
5555596930
0000032600
4575760600
2020255800
0000000500
ENDCHAR
STARTCHAR uni0928094D092A094D0930
ENCODING -1
SWIDTH 737 0
DWIDTH 6 0
BBX 6 5 0 0
BITMAP
559577
006033
459043
3026A3
001532
ENDCHAR
STARTCHAR uni0928094D092B094D0930
ENCODING -1
SWIDTH 975 0
DWIDTH 8 0
BBX 8 5 0 0
BITMAP
55958655
00604661
45905224
2014A361
00264100
ENDCHAR
STARTCHAR uni0928094D092D094D092F
ENCODING -1
SWIDTH 1071 0
DWIDTH 9 0
BBX 9 5 0 0
BITMAP
5570596930
0060032600
4595710600
1010255800
0000000500
ENDCHAR
STARTCHAR uni0928094D092D094D0935
ENCODING -1
SWIDTH 995 0
DWIDTH 8 0
BBX 8 5 0 0
BITMAP
55705577
00602743
45959123
40505133
00001673
ENDCHAR
STARTCHAR uni0928094D092E094D092F
ENCODING -1
SWIDTH 1071 0
DWIDTH 9 0
BBX 9 5 0 0
BITMAP
5595596930
0060032600
4595710600
1010255800
0000000500
ENDCHAR
STARTCHAR uni0928094D0938094D091F
ENCODING -1
SWIDTH 1113 0
DWIDTH 9 0
BBX 9 5 0 0
BITMAP
5558655860
0005116700
3058590000
2015060050
0006136630
ENDCHAR
STARTCHAR uni0928094D0938094D092E094D092F
ENCODING -1
SWIDTH 1453 0
DWIDTH 12 0
BBX 12 5 0 0
BITMAP
555959658694
000605103360
306859672060
102501015590
000600000060
ENDCHAR
STARTCHAR uni0928094D0938094D092F
ENCODING -1
SWIDTH 1194 0
DWIDTH 10 0
BBX 10 5 0 0
BITMAP
5559559593
0006004160
3068571060
2025025580
0006000050
ENDCHAR
STARTCHAR uni092A094D0924094D092F
ENCODING -1
SWIDTH 1119 0
DWIDTH 9 0
BBX 9 5 0 0
BITMAP
9655569770
5100006330
4106583330
0144055730
0017100230
ENDCHAR
STARTCHAR uni092C094D091C094D092F
ENCODING -1
SWIDTH 1235 0
DWIDTH 10 0
BBX 10 5 0 0
BITMAP
5555556986
2714861642
6400618242
6140605582
2675500032
ENDCHAR
STARTCHAR uni092C094D0927094D0935
ENCODING -1
SWIDTH 1097 0
DWIDTH 9 0
BBX 9 5 0 0
BITMAP
5569145950
2625026510
6608360510
6175060610
2656566910
ENDCHAR
STARTCHAR uni092C094D092D094D0930
ENCODING -1
SWIDTH 764 0
DWIDTH 6 0
BBX 7 5 0 0
BITMAP
55714910
26430600
65376600
60838600
26671600
ENDCHAR
STARTCHAR uni092C094D0932094D092F
ENCODING -1
SWIDTH 480 0
DWIDTH 4 0
BBX 11 5 0 0
BITMAP
555555596930
261656442600
654442660600
606400255800
265620000600
ENDCHAR
STARTCHAR uni092D094D0930094D092F
ENCODING -1
SWIDTH 830 0
DWIDTH 7 0
BBX 7 5 0 0
BITMAP
70587940
50023600
56720600
12465900
15000600
ENDCHAR
STARTCHAR uni092E094D092A094D0930
ENCODING -1
SWIDTH 765 0
DWIDTH 6 0
BBX 7 5 0 0
BITMAP
95865910
60420600
65721600
40058600
00061600
ENDCHAR
STARTCHAR uni092E094D092C094D092F
ENCODING -1
SWIDTH 1124 0
DWIDTH 9 0
BBX 9 5 0 0
BITMAP
9555569680
6016205240
6586341240
1041475740
0006500240
ENDCHAR
STARTCHAR uni092E094D092C094D0930
ENCODING -1
SWIDTH 768 0
DWIDTH 6 0
BBX 7 6 0 -1
BITMAP
95555910
60162600
65862600
50325600
00068600
00051000
ENDCHAR
STARTCHAR uni092E094D092D094D092F
ENCODING -1
SWIDTH 1101 0
DWIDTH 9 0
BBX 9 5 0 0
BITMAP
9571478850
6033005510
6577630510
1001065910
0000000510
ENDCHAR
STARTCHAR uni092E094D092D094D0930
ENCODING -1
SWIDTH 759 0
DWIDTH 6 0
BBX 7 5 0 0
BITMAP
95715810
60331500
65776500
30227500
00061500
ENDCHAR
STARTCHAR uni092E094D092D094D0935
ENCODING -1
SWIDTH 1028 0
DWIDTH 8 0
BBX 9 5 0 0
BITMAP
9571455920
6033073600
6577640600
5023240600
0000066600
ENDCHAR
STARTCHAR uni0932094D0915094D092F
ENCODING -1
SWIDTH 1534 0
DWIDTH 12 0
BBX 13 5 0 0
BITMAP
55555595595920
16767076750600
60606060600600
60006060366600
36103570000500
ENDCHAR
STARTCHAR uni0932094D0925094D092F
ENCODING -1
SWIDTH 1397 0
DWIDTH 11 0
BBX 12 5 0 0
BITMAP
555446359591
163630505060
606086141060
604060070160
361035555560
ENDCHAR
STARTCHAR uni0932094D0926094D0930
ENCODING -1
SWIDTH 933 0
DWIDTH 7 0
BBX 8 6 0 -1
BITMAP
55555593
16567560
60606000
60306060
36104890
00000400
ENDCHAR
STARTCHAR uni0932094D0932094D092F
ENCODING -1
SWIDTH 1476 0
DWIDTH 12 0
BBX 12 5 0 0
BITMAP
555555557885
165676550651
606061628251
600060005591
361064000051
ENDCHAR
STARTCHAR uni0932094D0935094D0921
ENCODING -1
SWIDTH 1247 0
DWIDTH 10 0
BBX 10 5 0 0
BITMAP
5555555578
1656740662
6060602300
6030604113
3610458565
ENDCHAR
STARTCHAR uni0937094D0915094D0930
ENCODING -1
SWIDTH 1042 0
DWIDTH 8 0
BBX 9 6 0 -1
BITMAP
9855595520
5525385400
5156060600
1666060600
0005874400
0002100000
ENDCHAR
STARTCHAR uni0937094D091F094D092F
ENCODING -1
SWIDTH 997 0
DWIDTH 8 0
BBX 8 5 0 0
BITMAP
99695578
53595524
33116524
60026034
46643564
ENDCHAR
STARTCHAR uni0937094D091F094D0930
ENCODING -1
SWIDTH 493 0
DWIDTH 4 0
BBX 4 6 0 -1
BITMAP
9969
5355
3873
6004
4664
1661
ENDCHAR
STARTCHAR uni0937094D091F094D0935
ENCODING -1
SWIDTH 493 0
DWIDTH 4 0
BBX 4 7 0 -2
BITMAP
9969
5355
2873
6003
3765
5223
2560
ENDCHAR
STARTCHAR uni0937094D0920094D092F
ENCODING -1
SWIDTH 1006 0
DWIDTH 8 0
BBX 9 5 0 0
BITMAP
8FFA556810
4FF9551500
3654551500
6006602500
3654256500
ENDCHAR
STARTCHAR uni0937094D0920094D0930
ENCODING -1
SWIDTH 512 0
DWIDTH 4 0
BBX 5 7 0 -2
BITMAP
8FFA10
5FF600
3A9400
600600
466500
076100
110100
ENDCHAR
STARTCHAR uni0937094D0923094D092F
ENCODING -1
SWIDTH 1273 0
DWIDTH 10 0
BBX 11 5 0 0
BITMAP
986968595910
561524060600
415623640600
011300456600
000000000600
ENDCHAR
STARTCHAR uni0937094D092A094D0930
ENCODING -1
SWIDTH 798 0
DWIDTH 6 0
BBX 7 5 0 0
BITMAP
98595920
55260600
51560600
16657700
00042500
ENDCHAR
STARTCHAR uni0937094D092E094D092F
ENCODING -1
SWIDTH 1121 0
DWIDTH 9 0
BBX 9 5 0 0
BITMAP
9859569780
5626005240
4159541340
0122055740
0000000230
ENDCHAR
STARTCHAR uni0938094D0915094D0930
ENCODING -1
SWIDTH 1084 0
DWIDTH 9 0
BBX 9 6 0 -1
BITMAP
5955595540
0603565600
6858060420
3306060420
0602792600
0000300000
ENDCHAR
STARTCHAR uni0938094D0915094D0935
ENCODING -1
SWIDTH 1369 0
DWIDTH 11 0
BBX 11 5 0 0
BITMAP
595559555770
060356566330
685806061230
330606061330
060269016730
ENDCHAR
STARTCHAR uni0938094D0924094D092F
ENCODING -1
SWIDTH 1185 0
DWIDTH 9 0
BBX 10 5 0 0
BITMAP
595555A593
0600004160
6857041060
3306025580
0605400060
ENDCHAR
STARTCHAR uni0938094D0924094D0930
ENCODING -1
SWIDTH 818 0
DWIDTH 7 0
BBX 7 5 0 0
BITMAP
59555930
06046800
68550600
33003900
06044600
ENDCHAR
STARTCHAR uni0938094D0924094D0935
ENCODING -1
SWIDTH 1126 0
DWIDTH 9 0
BBX 9 5 0 0
BITMAP
5955555680
0603573240
6858051240
3306051240
0605416740
ENDCHAR
STARTCHAR uni0938094D0925094D092F
ENCODING -1
SWIDTH 1303 0
DWIDTH 10 0
BBX 11 5 0 0
BITMAP
5953754A5930
060306050600
685763410700
330355566700
060000000600
ENDCHAR
STARTCHAR uni0938094D092A094D0930
ENCODING -1
SWIDTH 850 0
DWIDTH 7 0
BBX 7 5 0 0
BITMAP
59595850
06060510
68580510
33026A10
06024510
ENDCHAR
STARTCHAR uni0938094D092E094D092F
ENCODING -1
SWIDTH 1189 0
DWIDTH 10 0
BBX 10 5 0 0
BITMAP
5959559693
0606004160
6859571060
3301025580
0600000060
ENDCHAR
STARTCHAR uni093F.a01
ENCODING -1
SWIDTH 231 0
DWIDTH 2 0
BBX 4 7 0 0
BITMAP
2757
4203
8600
4200
4200
4200
4200
ENDCHAR
STARTCHAR uni093F.a04
ENCODING -1
SWIDTH 231 0
DWIDTH 2 0
BBX 5 7 0 0
BITMAP
275580
420030
860000
420000
420000
420000
420000
ENDCHAR
STARTCHAR uni093F.a05
ENCODING -1
SWIDTH 231 0
DWIDTH 2 0
BBX 6 7 0 0
BITMAP
275564
420003
860000
420000
420000
420000
420000
ENDCHAR
STARTCHAR uni093F.a06
ENCODING -1
SWIDTH 231 0
DWIDTH 2 0
BBX 6 7 0 0
BITMAP
275566
420003
860000
420000
420000
420000
420000
ENDCHAR
STARTCHAR uni093F.a07
ENCODING -1
SWIDTH 231 0
DWIDTH 2 0
BBX 7 7 0 0
BITMAP
27555810
42000210
86000000
42000000
42000000
42000000
42000000
ENDCHAR
STARTCHAR uni093F.a08
ENCODING -1
SWIDTH 231 0
DWIDTH 2 0
BBX 7 7 0 0
BITMAP
27555650
42000030
86000000
42000000
42000000
42000000
42000000
ENDCHAR
STARTCHAR uni093F.a09
ENCODING -1
SWIDTH 231 0
DWIDTH 2 0
BBX 7 7 0 0
BITMAP
27555570
42000030
86000000
42000000
42000000
42000000
42000000
ENDCHAR
STARTCHAR uni093F.a10
ENCODING -1
SWIDTH 231 0
DWIDTH 2 0
BBX 8 7 0 0
BITMAP
27555572
42000012
86000000
42000000
42000000
42000000
42000000
ENDCHAR
STARTCHAR uni093F.a11
ENCODING -1
SWIDTH 231 0
DWIDTH 2 0
BBX 8 7 0 0
BITMAP
27555565
42000003
86000000
42000000
42000000
42000000
42000000
ENDCHAR
STARTCHAR uni093F.a12
ENCODING -1
SWIDTH 231 0
DWIDTH 2 0
BBX 8 7 0 0
BITMAP
27555558
42000002
86000000
42000000
42000000
42000000
42000000
ENDCHAR
STARTCHAR uni093F.a13
ENCODING -1
SWIDTH 231 0
DWIDTH 2 0
BBX 9 7 0 0
BITMAP
2755555640
4200000030
8600000000
4200000000
4200000000
4200000000
4200000000
ENDCHAR
STARTCHAR uni093F.a14
ENCODING -1
SWIDTH 231 0
DWIDTH 2 0
BBX 9 7 0 0
BITMAP
2755555660
4200000030
8600000000
4200000000
4200000000
4200000000
4200000000
ENDCHAR
STARTCHAR uni093F.a15
ENCODING -1
SWIDTH 231 0
DWIDTH 2 0
BBX 10 7 0 0
BITMAP
2755555581
4200000011
8600000000
4200000000
4200000000
4200000000
4200000000
ENDCHAR
STARTCHAR uni093F.a16
ENCODING -1
SWIDTH 231 0
DWIDTH 2 0
BBX 10 7 0 0
BITMAP
2755555565
4200000003
8600000000
4200000000
4200000000
4200000000
4200000000
ENDCHAR
STARTCHAR uni093F.a17
ENCODING -1
SWIDTH 231 0
DWIDTH 2 0
BBX 10 7 0 0
BITMAP
2755555557
4200000003
8600000000
4200000000
4200000000
4200000000
4200000000
ENDCHAR
STARTCHAR uni093F.a18
ENCODING -1
SWIDTH 231 0
DWIDTH 2 0
BBX 11 7 0 0
BITMAP
275555555720
420000000120
860000000000
420000000000
420000000000
420000000000
420000000000
ENDCHAR
STARTCHAR uni093F.a19
ENCODING -1
SWIDTH 231 0
DWIDTH 2 0
BBX 11 7 0 0
BITMAP
275555555660
420000000030
860000000000
420000000000
420000000000
420000000000
420000000000
ENDCHAR
STARTCHAR uni093F.a20
ENCODING -1
SWIDTH 231 0
DWIDTH 2 0
BBX 11 7 0 0
BITMAP
275555555580
420000000020
860000000000
420000000000
420000000000
420000000000
420000000000
ENDCHAR
STARTCHAR uni093F.a21
ENCODING -1
SWIDTH 231 0
DWIDTH 2 0
BBX 12 7 0 0
BITMAP
275555555564
420000000003
860000000000
420000000000
420000000000
420000000000
420000000000
ENDCHAR
STARTCHAR uni093F.a22
ENCODING -1
SWIDTH 231 0
DWIDTH 2 0
BBX 12 7 0 0
BITMAP
275555555567
420000000003
860000000000
420000000000
420000000000
420000000000
420000000000
ENDCHAR
STARTCHAR uni093F.a23
ENCODING -1
SWIDTH 231 0
DWIDTH 2 0
BBX 13 7 0 0
BITMAP
27555555555810
42000000000110
86000000000000
42000000000000
42000000000000
42000000000000
42000000000000
ENDCHAR
STARTCHAR uni093F.a24
ENCODING -1
SWIDTH 231 0
DWIDTH 2 0
BBX 13 7 0 0
BITMAP
27555555555650
42000000000030
86000000000000
42000000000000
42000000000000
42000000000000
42000000000000
ENDCHAR
STARTCHAR uni093F.a25
ENCODING -1
SWIDTH 231 0
DWIDTH 2 0
BBX 13 7 0 0
BITMAP
27555555555570
42000000000030
86000000000000
42000000000000
42000000000000
42000000000000
42000000000000
ENDCHAR
STARTCHAR uni093F.a26
ENCODING -1
SWIDTH 231 0
DWIDTH 2 0
BBX 14 7 0 0
BITMAP
27555555555572
42000000000012
86000000000000
42000000000000
42000000000000
42000000000000
42000000000000
ENDCHAR
STARTCHAR uni093F.a32
ENCODING -1
SWIDTH 231 0
DWIDTH 2 0
BBX 17 7 0 0
BITMAP
275555555555555810
420000000000000210
860000000000000000
420000000000000000
420000000000000000
420000000000000000
420000000000000000
ENDCHAR
STARTCHAR uni093E0901
ENCODING -1
SWIDTH 231 0
DWIDTH 2 0
BBX 4 7 -1 0
BITMAP
2221
1550
0860
0420
0420
0420
0420
ENDCHAR
STARTCHAR dvNG_GA
ENCODING -1
SWIDTH 562 0
DWIDTH 5 0
BBX 5 8 0 -3
BITMAP
555930
265400
600110
143300
455600
063300
433300
001100
ENDCHAR
STARTCHAR dvNG_MA
ENCODING -1
SWIDTH 728 0
DWIDTH 6 0
BBX 6 7 0 -2
BITMAP
558686
356141
256241
301541
467341
007581
002041
ENDCHAR
STARTCHAR dvNY_CA
ENCODING -1
SWIDTH 963 0
DWIDTH 8 0
BBX 8 5 0 0
BITMAP
55555594
36138460
01926060
01405590
36000060
ENDCHAR
STARTCHAR dvTT_GA
ENCODING -1
SWIDTH 510 0
DWIDTH 4 0
BBX 5 7 0 -2
BITMAP
556810
166200
600100
600600
187400
063300
433300
ENDCHAR
STARTCHAR dvTTH_TTHA
ENCODING -1
SWIDTH 511 0
DWIDTH 4 0
BBX 5 8 0 -3
BITMAP
558610
268200
600600
268300
049100
522500
600600
266200
ENDCHAR
STARTCHAR dvDD_GA
ENCODING -1
SWIDTH 541 0
DWIDTH 4 0
BBX 5 8 0 -3
BITMAP
555920
265400
600000
143300
455600
063300
433300
001100
ENDCHAR
STARTCHAR dvDDH_DDHA
ENCODING -1
SWIDTH 487 0
DWIDTH 4 0
BBX 4 7 0 -2
BITMAP
5586
2571
6063
3853
6031
6145
1663
ENDCHAR
STARTCHAR dvSHA_MatraVocalicR
ENCODING -1
SWIDTH 558 0
DWIDTH 4 0
BBX 5 7 0 -2
BITMAP
466730
426600
396600
101800
001700
006000
006640
ENDCHAR
STARTCHAR dvT_KH_NA
ENCODING -1
SWIDTH 1341 0
DWIDTH 11 0
BBX 11 5 0 0
BITMAP
555595555940
266065610600
603736280600
600705620600
450150000500
ENDCHAR
STARTCHAR dvT_S_NA
ENCODING -1
SWIDTH 1169 0
DWIDTH 9 0
BBX 10 5 0 0
BITMAP
5555955592
2660600060
6029764060
6006002060
4501500060
ENDCHAR
ENDFONT
